<svg width="17" height="31" viewBox="0 0 17 31" fill="none" xmlns="http://www.w3.org/2000/svg">
<path d="M15.7715 2.6019C15.9107 2.45467 16.0194 2.28149 16.0916 2.09223C16.1638 1.90297 16.198 1.70134 16.1923 1.49886C16.1866 1.29638 16.141 1.09701 16.0582 0.912137C15.9755 0.727262 15.8571 0.560501 15.7098 0.421376C15.5626 0.282251 15.3894 0.173487 15.2002 0.101293C15.0109 0.0290989 14.8093 -0.00511103 14.6068 0.000616841C14.4043 0.00634472 14.205 0.0518979 14.0201 0.134676C13.8352 0.217453 13.6684 0.335834 13.5293 0.48306L0.42152 14.3619C0.150827 14.6482 0 15.0273 0 15.4213C0 15.8154 0.150827 16.1944 0.42152 16.4808L13.5293 30.3612C13.6675 30.5116 13.8343 30.6331 14.0198 30.7186C14.2054 30.804 14.4061 30.8518 14.6102 30.859C14.8144 30.8663 15.018 30.8329 15.2091 30.7608C15.4003 30.6887 15.5752 30.5794 15.7237 30.4391C15.8723 30.2989 15.9914 30.1305 16.0744 29.9438C16.1573 29.7571 16.2023 29.5557 16.2067 29.3515C16.2111 29.1472 16.175 28.9441 16.1003 28.754C16.0256 28.5639 15.9138 28.3904 15.7715 28.2439L3.663 15.4213L15.7715 2.6019Z" fill="#252525"/>
</svg>
