<svg width="41" height="40" viewBox="0 0 41 40" fill="none" xmlns="http://www.w3.org/2000/svg">
<path d="M35.302 20C35.302 19.558 35.1265 19.134 34.8139 18.8215C34.5013 18.5089 34.0774 18.3333 33.6354 18.3333L10.9921 18.3333L19.8154 9.51333C20.1283 9.20037 20.3042 8.77591 20.3042 8.33333C20.3042 7.89074 20.1283 7.46629 19.8154 7.15333C19.5024 6.84037 19.078 6.66456 18.6354 6.66456C18.1928 6.66456 17.7683 6.84037 17.4554 7.15333L5.78872 18.82C5.63351 18.9748 5.51036 19.1587 5.42634 19.3612C5.34232 19.5637 5.29907 19.7808 5.29907 20C5.29907 20.2192 5.34232 20.4363 5.42634 20.6388C5.51036 20.8413 5.63351 21.0252 5.78872 21.18L17.4554 32.8467C17.6103 33.0016 17.7943 33.1245 17.9968 33.2084C18.1992 33.2923 18.4162 33.3354 18.6354 33.3354C19.078 33.3354 19.5024 33.1596 19.8154 32.8467C20.1283 32.5337 20.3042 32.1092 20.3042 31.6667C20.3042 31.2241 20.1283 30.7996 19.8154 30.4867L10.9921 21.6667L33.6354 21.6667C34.0774 21.6667 34.5013 21.4911 34.8139 21.1785C35.1265 20.8659 35.302 20.442 35.302 20Z" fill="#252525"/>
</svg>
