<svg width="17" height="31" viewBox="0 0 17 31" fill="none" xmlns="http://www.w3.org/2000/svg">
<path d="M0.771437 28.2581C0.632312 28.4053 0.523547 28.5785 0.451354 28.7678C0.379159 28.957 0.344949 29.1586 0.350677 29.3611C0.356404 29.5636 0.401959 29.763 0.484736 29.9478C0.567514 30.1327 0.685895 30.2995 0.83312 30.4386C0.980346 30.5777 1.15353 30.6865 1.34279 30.7587C1.53205 30.8309 1.73368 30.8651 1.93616 30.8594C2.13864 30.8536 2.33801 30.8081 2.52288 30.7253C2.70776 30.6425 2.87452 30.5242 3.01364 30.3769L16.1214 16.4981C16.3921 16.2118 16.543 15.8327 16.543 15.4387C16.543 15.0446 16.3921 14.6656 16.1214 14.3792L3.01364 0.498835C2.87544 0.348387 2.70871 0.226896 2.52316 0.141426C2.3376 0.0559577 2.13691 0.00820916 1.93275 0.000955514C1.72858 -0.00629813 1.52501 0.0270881 1.33386 0.0991744C1.14271 0.171261 0.967781 0.280609 0.819246 0.42087C0.670711 0.56113 0.551524 0.729507 0.468612 0.91622C0.385699 1.10293 0.340713 1.30426 0.336265 1.5085C0.331817 1.71275 0.367995 1.91584 0.4427 2.10599C0.517406 2.29613 0.629148 2.46954 0.771437 2.61613L12.88 15.4387L0.771437 28.2581Z" fill="#B5325D"/>
</svg>
