<svg width="41" height="40" viewBox="0 0 41 40" fill="none" xmlns="http://www.w3.org/2000/svg">
<path d="M5.30207 20C5.30207 19.558 5.47766 19.1341 5.79022 18.8215C6.10278 18.5089 6.52671 18.3333 6.96874 18.3333L29.6121 18.3333L20.7887 9.51335C20.4758 9.20039 20.3 8.77593 20.3 8.33334C20.3 7.89076 20.4758 7.4663 20.7887 7.15334C21.1017 6.84039 21.5261 6.66457 21.9687 6.66457C22.4113 6.66457 22.8358 6.84039 23.1487 7.15334L34.8154 18.82C34.9706 18.9748 35.0938 19.1587 35.1778 19.3612C35.2618 19.5637 35.305 19.7808 35.305 20C35.305 20.2192 35.2618 20.4363 35.1778 20.6388C35.0938 20.8413 34.9706 21.0252 34.8154 21.18L23.1487 32.8467C22.9938 33.0016 22.8098 33.1246 22.6073 33.2084C22.4049 33.2923 22.1879 33.3354 21.9687 33.3354C21.5261 33.3354 21.1017 33.1596 20.7887 32.8467C20.4758 32.5337 20.3 32.1093 20.3 31.6667C20.3 31.2241 20.4758 30.7996 20.7887 30.4867L29.6121 21.6667L6.96874 21.6667C6.52671 21.6667 6.10278 21.4911 5.79022 21.1785C5.47766 20.866 5.30207 20.442 5.30207 20Z" fill="#252525"/>
</svg>
