<svg width="40" height="40" viewBox="0 0 40 40" fill="none" xmlns="http://www.w3.org/2000/svg">
<path d="M12.1429 21.4286H27.8571M27.8571 31.4286H12.1429M23.5714 11.4286V2.85715C23.5714 2.47826 23.4209 2.1149 23.153 1.84699C22.8851 1.57908 22.5217 1.42857 22.1429 1.42857H17.8571C17.4783 1.42857 17.1149 1.57908 16.847 1.84699C16.5791 2.1149 16.4286 2.47826 16.4286 2.85715V11.4286C15.1098 12.3052 14.0284 13.4943 13.2806 14.8901C12.5329 16.286 12.142 17.8451 12.1429 19.4286V35.7143C12.1429 36.4721 12.4439 37.1988 12.9797 37.7346C13.5155 38.2704 14.2422 38.5714 15 38.5714H25C25.7578 38.5714 26.4845 38.2704 27.0203 37.7346C27.5561 37.1988 27.8571 36.4721 27.8571 35.7143V19.4286C27.858 17.8451 27.4671 16.286 26.7193 14.8901C25.9716 13.4943 24.8902 12.3052 23.5714 11.4286Z" stroke="#252525" stroke-width="2.85714" stroke-linecap="round" stroke-linejoin="round"/>
</svg>
