<svg width="29" height="40" viewBox="0 0 29 40" fill="none" xmlns="http://www.w3.org/2000/svg">
<path d="M28.2839 14.2268L24.4128 1.025C24.326 0.729222 24.1463 0.469565 23.9005 0.28482C23.6547 0.100075 23.3559 0.000159515 23.0489 0H6.01725C5.71021 0.000159515 5.41146 0.100075 5.16564 0.28482C4.91981 0.469565 4.74011 0.729222 4.65337 1.025L0.782216 14.2268C0.174853 16.2503 0.143066 18.404 0.690446 20.4447C1.23783 22.4854 2.34256 24.3317 3.87985 25.775C6.40879 28.1563 9.65787 29.6202 13.1105 29.9339V37.1429H7.42026C7.04297 37.1429 6.68113 37.2934 6.41435 37.5613C6.14757 37.8292 5.99769 38.1926 5.99769 38.5714C5.99769 38.9503 6.14757 39.3137 6.41435 39.5816C6.68113 39.8495 7.04297 40 7.42026 40H21.6459C22.0232 40 22.385 39.8495 22.6518 39.5816C22.9186 39.3137 23.0685 38.9503 23.0685 38.5714C23.0685 38.1926 22.9186 37.8292 22.6518 37.5613C22.385 37.2934 22.0232 37.1429 21.6459 37.1429H15.9556V29.9339C19.4083 29.6204 22.6575 28.1565 25.1863 25.775C26.7232 24.3314 27.8277 22.4851 28.3751 20.4445C28.9225 18.4039 28.8909 16.2503 28.2839 14.2268ZM7.08062 2.85714H21.9855L25.5579 15.0339C25.574 15.0875 25.5882 15.1411 25.6024 15.1946C27.6291 22.449 18.1806 26.8934 14.6679 26.3039C10.3447 26.8481 0.782216 23.4467 4.51823 11.5946L7.08062 2.85714Z" fill="#252525"/>
</svg>
