<svg width="54" height="54" viewBox="0 0 54 54" fill="none" xmlns="http://www.w3.org/2000/svg">
<path d="M36.2501 11.4557C36.3637 11.5753 36.4527 11.7161 36.5119 11.8701C36.5711 12.024 36.5994 12.1882 36.5951 12.3531C36.5909 12.518 36.5542 12.6804 36.4872 12.8311C36.4202 12.9819 36.3241 13.1179 36.2045 13.2315C35.0227 14.3545 32.9823 17.1643 32.2212 20.8983C33.0902 21.1499 33.8967 21.581 34.5887 22.1637C35.3095 21.6738 36.1227 21.3361 36.9785 21.1714C37.8343 21.0067 38.7147 21.0184 39.5658 21.2058C40.4169 21.3932 41.2208 21.7524 41.9283 22.2613C42.6358 22.7702 43.232 23.4181 43.6803 24.1655C44.1287 24.9128 44.4198 25.7438 44.5358 26.6075C44.6518 27.4713 44.5903 28.3496 44.355 29.1888C44.1198 30.0279 43.7157 30.8102 43.1676 31.4878C42.6195 32.1653 41.9388 32.7239 41.1673 33.1292C41.5231 34.5237 41.3968 35.9975 40.8088 37.311C40.4337 38.1535 39.8809 38.9048 39.1882 39.5135C38.4955 40.1221 37.6793 40.5737 36.7956 40.8373C36.8677 41.7153 36.7578 42.5986 36.4728 43.4322C36.1879 44.2658 35.7341 45.0316 35.1397 45.6818C34.5453 46.3319 33.8232 46.8525 33.0185 47.2109C32.2137 47.5693 31.3437 47.7578 30.4628 47.7646C29.5819 47.7715 28.7091 47.5965 27.8989 47.2507C27.0887 46.9049 26.3586 46.3956 25.7542 45.7547C25.1498 45.1139 24.6841 44.3552 24.3862 43.5261C24.0884 42.6971 23.9647 41.8155 24.0231 40.9366C22.5929 40.3759 21.4118 39.3198 20.6953 37.961C19.9787 36.6022 19.7743 35.0311 20.1195 33.5341C19.2848 33.1975 18.5305 32.6888 17.9057 32.041C17.2808 31.3933 16.7996 30.6212 16.4932 29.7749C16.1868 28.9287 16.0623 28.0274 16.1277 27.1298C16.193 26.2322 16.4468 25.3585 16.8726 24.5656C17.2983 23.7727 17.8864 23.0784 18.5984 22.528C19.3105 21.9776 20.1306 21.5835 21.0052 21.3714C21.8798 21.1592 22.7893 21.1338 23.6744 21.2968C24.5595 21.4598 25.4003 21.8075 26.142 22.3172C26.5912 21.9084 27.0918 21.5693 27.6285 21.3067L22.5692 20.9637C21.6089 20.8986 20.6709 20.6449 19.8087 20.2171C18.9464 19.7894 18.1769 19.196 17.5441 18.4709C16.9112 17.7457 16.4274 16.903 16.1202 15.9909C15.8131 15.0787 15.6886 14.115 15.7539 13.1548L23.0649 13.6511C24.757 13.7662 26.3568 14.4645 27.5918 15.6269C28.8268 16.7893 29.6206 18.344 29.8378 20.026C30.7777 15.8698 33.0566 12.7566 34.4743 11.4102C34.5939 11.2965 34.7347 11.2076 34.8886 11.1484C35.0426 11.0892 35.2067 11.0609 35.3716 11.0651C35.5365 11.0693 35.699 11.106 35.8497 11.173C36.0004 11.2401 36.1365 11.3361 36.2501 11.4557ZM24.6518 24.341C24.0459 23.9439 23.3412 23.7239 22.617 23.7055C21.8928 23.6872 21.1779 23.8714 20.5527 24.2372C19.9275 24.6031 19.4168 25.1362 19.0781 25.7766C18.7394 26.4169 18.5861 27.1391 18.6355 27.8618C18.6849 28.5845 18.935 29.2791 19.3576 29.8674C19.7803 30.4558 20.3588 30.9144 21.028 31.1919C21.6971 31.4693 22.4305 31.5545 23.1454 31.4378C23.8604 31.3211 24.5286 31.0072 25.0748 30.5315C24.4849 29.6202 24.1366 28.5739 24.0626 27.4909C23.9886 26.408 24.1913 25.324 24.6518 24.341ZM26.8284 32.3344C25.6668 33.388 24.16 33.9806 22.5918 34.0005C22.436 34.6004 22.4257 35.2288 22.5617 35.8334C22.6977 36.4381 22.976 37.0015 23.3737 37.4769C23.7713 37.9523 24.2766 38.3259 24.8477 38.5667C25.4188 38.8075 26.0391 38.9084 26.657 38.8612C27.275 38.8139 27.8727 38.6199 28.4006 38.2951C28.9284 37.9703 29.3711 37.5242 29.6918 36.9939C30.0125 36.4635 30.202 35.8643 30.2445 35.246C30.2869 34.6277 30.1812 34.0082 29.9361 33.439C28.8214 33.3488 27.7499 32.9679 26.8284 32.3344ZM32.4915 33.1242C32.928 34.5637 32.8415 36.1112 32.2475 37.4932C32.8495 38.0786 33.6246 38.4537 34.4572 38.5624C35.2899 38.671 36.1353 38.5075 36.8674 38.0963C37.5995 37.685 38.1789 37.048 38.5192 36.2803C38.8595 35.5127 38.9425 34.6556 38.7556 33.8369C37.9129 33.9104 37.0639 33.8168 36.2574 33.5615C35.4509 33.3062 34.7028 32.8942 34.0558 32.3492C33.572 32.6774 33.0458 32.9381 32.4915 33.1242ZM35.8217 30.5461C36.3843 30.978 37.0543 31.248 37.7592 31.3268C38.4641 31.4056 39.1772 31.2903 39.8214 30.9934C40.4655 30.6964 41.0163 30.229 41.4141 29.6418C41.8119 29.0545 42.0417 28.3697 42.0787 27.6614C42.1156 26.953 41.9582 26.248 41.6236 25.6226C41.289 24.9972 40.7898 24.4751 40.18 24.1128C39.5702 23.7504 38.873 23.5616 38.1637 23.5667C37.4544 23.5718 36.76 23.7707 36.1555 24.1418C36.669 25.144 36.9086 26.2642 36.8499 27.3888C36.7913 28.5134 36.4366 29.6026 35.8217 30.5461ZM32.3511 40.5499C31.7943 40.3018 31.2758 39.9755 30.8112 39.5809C29.6555 40.6943 28.125 41.3351 26.5207 41.3771C26.52 41.9017 26.6252 42.421 26.8302 42.904C27.0352 43.3869 27.3356 43.8234 27.7135 44.1873C28.0914 44.5512 28.5389 44.835 29.0293 45.0216C29.5196 45.2082 30.0425 45.2938 30.5667 45.2732C31.0909 45.2526 31.6056 45.1263 32.0798 44.9019C32.554 44.6775 32.9779 44.3595 33.3261 43.9671C33.6744 43.5748 33.9397 43.116 34.1062 42.6186C34.2727 42.1211 34.337 41.5951 34.2951 41.0721C33.6394 41.0037 32.9853 40.8329 32.3511 40.5499ZM26.8991 25.4688C26.68 25.9371 26.5564 26.4444 26.5355 26.9609C26.5146 27.4775 26.5968 27.9931 26.7773 28.4776C26.9579 28.962 27.2331 29.4057 27.587 29.7826C27.9409 30.1595 28.3664 30.4621 28.8385 30.6727C29.3107 30.8834 29.8201 30.9979 30.3369 31.0095C30.8538 31.0211 31.3678 30.9297 31.849 30.7404C32.3301 30.5512 32.7687 30.268 33.1392 29.9074C33.5097 29.5468 33.8046 29.116 34.0067 28.6402C34.4056 27.7012 34.4199 26.6432 34.0465 25.6938C33.6732 24.7445 32.942 23.9796 32.0104 23.564C31.0787 23.1483 30.0211 23.115 29.0652 23.4712C28.1093 23.8275 27.3315 24.5448 26.8991 25.4688Z" fill="#252525"/>
</svg>
