<svg width="40" height="40" viewBox="0 0 40 40" fill="none" xmlns="http://www.w3.org/2000/svg">
<path d="M34.1922 16.2141L21.6922 4.42031C21.6861 4.41498 21.6803 4.40924 21.675 4.40312C21.2148 3.98458 20.615 3.75266 19.993 3.75266C19.3709 3.75266 18.7712 3.98458 18.3109 4.40312L18.2938 4.42031L5.80781 16.2141C5.55312 16.4483 5.34982 16.7328 5.21077 17.0496C5.07172 17.3664 4.99995 17.7087 5 18.0547V32.5C5 33.163 5.26339 33.7989 5.73223 34.2678C6.20107 34.7366 6.83696 35 7.5 35H15C15.663 35 16.2989 34.7366 16.7678 34.2678C17.2366 33.7989 17.5 33.163 17.5 32.5V25H22.5V32.5C22.5 33.163 22.7634 33.7989 23.2322 34.2678C23.7011 34.7366 24.337 35 25 35H32.5C33.163 35 33.7989 34.7366 34.2678 34.2678C34.7366 33.7989 35 33.163 35 32.5V18.0547C35.0001 17.7087 34.9283 17.3664 34.7892 17.0496C34.6502 16.7328 34.4469 16.4483 34.1922 16.2141ZM32.5 32.5H25V25C25 24.337 24.7366 23.7011 24.2678 23.2322C23.7989 22.7634 23.163 22.5 22.5 22.5H17.5C16.837 22.5 16.2011 22.7634 15.7322 23.2322C15.2634 23.7011 15 24.337 15 25V32.5H7.5V18.0547L7.51719 18.0391L20 6.25L32.4844 18.0359L32.5016 18.0516L32.5 32.5Z" fill="black"/>
</svg>
