<svg width="41" height="40" viewBox="0 0 41 40" fill="none" xmlns="http://www.w3.org/2000/svg">
<path d="M9.14881 6.66667H31.6488C33.0324 6.66658 34.3635 7.19593 35.3692 8.14612C36.3749 9.09632 36.9788 10.3953 37.0571 11.7767L37.0655 12.0833V27.9167C37.0656 29.3002 36.5362 30.6314 35.586 31.6371C34.6358 32.6427 33.3368 33.2467 31.9555 33.325L31.6488 33.3333H9.14881C7.76524 33.3334 6.43409 32.8041 5.42842 31.8539C4.42275 30.9037 3.8188 29.6047 3.74047 28.2233L3.73214 27.9167V12.0833C3.73205 10.6998 4.2614 9.36862 5.21159 8.36295C6.16179 7.35728 7.4608 6.75334 8.84214 6.67501L9.14881 6.66667ZM34.5655 15.6217L20.9821 22.7717C20.8288 22.8527 20.6602 22.9009 20.4872 22.9132C20.3142 22.9256 20.1405 22.9018 19.9771 22.8433L19.8171 22.7733L6.23214 15.6233V27.9167C6.23217 28.6487 6.50742 29.3539 7.00327 29.8923C7.49912 30.4308 8.17931 30.7631 8.90881 30.8233L9.14881 30.8333H31.6488C32.3811 30.8333 33.0865 30.5578 33.625 30.0616C34.1635 29.5654 34.4956 28.8848 34.5555 28.155L34.5655 27.9167V15.6217ZM31.6488 9.16667H9.14881C8.41682 9.1667 7.71161 9.44196 7.17315 9.9378C6.6347 10.4337 6.30237 11.1138 6.24214 11.8433L6.23214 12.0833V12.7983L20.3988 20.2533L34.5655 12.7967V12.0833C34.5654 11.3511 34.2899 10.6457 33.7937 10.1072C33.2975 9.56866 32.6169 9.23651 31.8871 9.17667L31.6488 9.16667Z" fill="#252525"/>
</svg>
