<svg width="40" height="40" viewBox="0 0 40 40" fill="none" xmlns="http://www.w3.org/2000/svg">
<path fill-rule="evenodd" clip-rule="evenodd" d="M20 4.58333C17.2373 4.58333 14.5878 5.68079 12.6343 7.6343C10.6808 9.5878 9.58335 12.2373 9.58335 15C9.58335 17.7627 10.6808 20.4122 12.6343 22.3657C14.5878 24.3192 17.2373 25.4167 20 25.4167C22.7627 25.4167 25.4122 24.3192 27.3657 22.3657C29.3192 20.4122 30.4167 17.7627 30.4167 15C30.4167 12.2373 29.3192 9.5878 27.3657 7.6343C25.4122 5.68079 22.7627 4.58333 20 4.58333ZM7.08335 15C7.08469 13.1127 7.4996 11.2486 8.29889 9.53889C9.09818 7.82919 10.2624 6.31541 11.7097 5.10408C13.157 3.89274 14.8521 3.01328 16.6759 2.52758C18.4996 2.04187 20.4076 1.96173 22.2657 2.29278C24.1237 2.62382 25.8867 3.35802 27.4304 4.44372C28.9742 5.52941 30.2613 6.94022 31.2012 8.57686C32.141 10.2135 32.7108 12.0362 32.8704 13.9168C33.03 15.7973 32.7756 17.69 32.125 19.4617L35.9383 23.4083C36.3667 23.8533 36.7233 24.2233 36.99 24.5317C37.2533 24.835 37.5233 25.1817 37.6817 25.585C38.2383 26.9933 37.7917 28.66 36.45 29.48C36.0667 29.7167 35.6267 29.8133 35.25 29.8767C34.8633 29.9433 34.3733 29.9933 33.795 30.055L33.755 30.0583C32.99 30.14 32.845 30.165 32.7467 30.2033C32.5924 30.264 32.4533 30.3577 32.339 30.4777C32.2247 30.5977 32.1381 30.7413 32.085 30.8983C32.0417 31.015 32.0167 31.1867 31.9383 31.9717L31.935 32.0083C31.875 32.61 31.825 33.115 31.7633 33.5117C31.7033 33.895 31.6133 34.335 31.3917 34.72C30.6083 36.09 28.96 36.6033 27.53 35.9983C27.1283 35.8283 26.7867 35.5433 26.4967 35.2733C26.1967 34.9967 25.8417 34.6267 25.4133 34.1817L25.38 34.1483L20 28.4833L14.6133 34.1583L14.5883 34.1833C14.16 34.6283 13.8033 34.9983 13.505 35.275C13.2133 35.545 12.8717 35.83 12.4717 36C11.0383 36.605 9.39168 36.0917 8.60835 34.7217C8.38835 34.3367 8.29668 33.8983 8.23668 33.5117C8.17501 33.1167 8.12502 32.6117 8.06668 32.0117L8.06168 31.9733C7.98501 31.1883 7.95835 31.0183 7.91668 30.9C7.86364 30.743 7.77695 30.5994 7.66266 30.4794C7.54837 30.3593 7.40925 30.2657 7.25502 30.205C7.15502 30.1667 7.01002 30.1417 6.24502 30.06L6.20668 30.0567C5.62835 29.995 5.13835 29.9433 4.75168 29.8783C4.37502 29.8167 3.93502 29.7183 3.55002 29.4817C2.21002 28.6617 1.76335 26.995 2.31835 25.5867C2.47835 25.1833 2.74668 24.8367 3.01002 24.5333C3.27668 24.225 3.63335 23.855 4.06335 23.41L7.87501 19.4633C7.34958 18.034 7.08154 16.5229 7.08335 15ZM9.04668 21.8483L5.88668 25.12C5.42668 25.5967 5.11668 25.9167 4.90002 26.1683C4.80307 26.2702 4.71705 26.3819 4.64335 26.5017C4.49335 26.885 4.64335 27.2083 4.84168 27.34C4.85668 27.345 4.94168 27.3733 5.16502 27.4117C5.46502 27.4617 5.88168 27.5067 6.50835 27.5733L6.63335 27.5867C7.20002 27.645 7.70168 27.6983 8.15001 27.87C9.14835 28.2533 9.91168 29.0533 10.27 30.0567C10.43 30.505 10.48 31.0117 10.5367 31.6017L10.55 31.7267C10.6133 32.375 10.6567 32.8083 10.7067 33.1267C10.75 33.3967 10.7833 33.4833 10.785 33.4883C10.9183 33.7133 11.1917 33.8233 11.4933 33.6967C11.4933 33.6967 11.5767 33.6517 11.8033 33.44C12.045 33.2167 12.3533 32.8983 12.8117 32.4233L12.815 32.42L17.3483 27.6433C15.6459 27.2855 14.0332 26.5879 12.6068 25.5921C11.1803 24.5964 9.96944 23.323 9.04668 21.8483ZM22.6517 27.645C24.3545 27.2872 25.9677 26.5894 27.3944 25.5933C28.8212 24.5973 30.0322 23.3235 30.955 21.8483L34.115 25.12C34.575 25.5967 34.8833 25.9167 35.1 26.1683C35.305 26.4017 35.3517 26.4933 35.3567 26.5017C35.5067 26.885 35.3567 27.2083 35.16 27.34C35.1433 27.345 35.06 27.3733 34.8367 27.4117C34.535 27.4617 34.12 27.5067 33.4917 27.5733L33.3667 27.5867C32.8017 27.645 32.2983 27.6983 31.85 27.87C30.8533 28.2533 30.0883 29.0533 29.73 30.0567C29.57 30.505 29.52 31.0117 29.4633 31.6017L29.45 31.7267C29.3867 32.375 29.3433 32.8083 29.2933 33.1267C29.2517 33.3967 29.2167 33.4833 29.2167 33.4883C29.0833 33.7133 28.8083 33.825 28.505 33.6967H28.5083C28.5083 33.6967 28.425 33.6517 28.1967 33.44C27.8521 33.1096 27.5158 32.7707 27.1883 32.4233L27.185 32.42L22.6517 27.645ZM20.0017 11.7233C19.9033 11.8917 19.795 12.085 19.6683 12.3133L19.505 12.6067C19.4927 12.6288 19.4805 12.651 19.4683 12.6733C19.3367 12.9133 19.12 13.31 18.7583 13.585C18.39 13.865 17.945 13.9617 17.6867 14.0183L17.615 14.0333L17.2967 14.105C17.0033 14.1717 16.7667 14.225 16.5633 14.2767C16.695 14.4383 16.8667 14.6417 17.09 14.9033L17.3067 15.1567L17.3567 15.2133C17.5367 15.4217 17.8283 15.755 17.9617 16.1883C18.095 16.615 18.0483 17.055 18.02 17.3317C18.0171 17.3578 18.0143 17.3839 18.0117 17.41L17.9783 17.7483C17.953 18.0036 17.9302 18.2592 17.91 18.515C18.0833 18.4383 18.28 18.3483 18.515 18.24L18.8133 18.1033L18.88 18.07C19.12 17.9583 19.5367 17.7633 20 17.7633C20.465 17.7633 20.88 17.9583 21.12 18.0717L21.1867 18.1033L21.4867 18.24C21.72 18.3483 21.9167 18.44 22.0917 18.515C22.07 18.2593 22.0467 18.0037 22.0217 17.7483L21.9883 17.41C21.9857 17.3839 21.983 17.3578 21.98 17.3317C21.9517 17.0533 21.9067 16.615 22.0383 16.1883C22.1717 15.755 22.4633 15.4217 22.6433 15.2133L22.6933 15.1567L22.91 14.9033C23.1333 14.6417 23.305 14.4383 23.4383 14.2767C23.235 14.2267 22.9967 14.1717 22.705 14.105L22.3867 14.0333L22.315 14.0167C22.055 13.9617 21.6117 13.865 21.2417 13.5833C20.88 13.31 20.6633 12.9133 20.5333 12.675L20.495 12.6067L20.3317 12.3133C20.205 12.085 20.0983 11.8917 20 11.7233H20.0017ZM18.355 9.66666C18.6417 9.29166 19.1633 8.74999 19.9983 8.74999C20.835 8.74999 21.3567 9.29166 21.6433 9.66666C21.9167 10.0233 22.1933 10.5183 22.4767 11.0267L22.5133 11.095L22.6783 11.39L22.7717 11.5567L22.9367 11.595L23.2533 11.6667L23.3333 11.6833C23.88 11.8083 24.4217 11.93 24.8383 12.095C25.3 12.2767 25.9217 12.6283 26.1633 13.4033C26.4 14.1617 26.1017 14.805 25.8417 15.22C25.6 15.6033 25.235 16.03 24.8583 16.4683L24.8083 16.5267L24.5917 16.7817L24.455 16.9433L24.475 17.1683L24.5083 17.5067L24.515 17.5833C24.5733 18.17 24.6283 18.7367 24.6067 19.19C24.5867 19.6667 24.4733 20.3867 23.8267 20.875C23.16 21.3817 22.4267 21.2717 21.96 21.1367C21.53 21.015 21.0233 20.78 20.51 20.545L20.4383 20.5117L20.14 20.3733C20.0928 20.3516 20.0456 20.3299 19.9983 20.3083L19.8567 20.375L19.56 20.5117L19.4867 20.545C18.975 20.78 18.4667 21.015 18.0367 21.1367C17.57 21.27 16.8367 21.3817 16.17 20.875C15.525 20.3867 15.4117 19.6667 15.39 19.1917C15.37 18.7367 15.4233 18.17 15.4817 17.5833L15.49 17.5067L15.5233 17.1683L15.5433 16.9433C15.4976 16.8891 15.4515 16.8353 15.405 16.7817L15.1883 16.5267L15.1383 16.4683C14.7633 16.03 14.3967 15.6017 14.155 15.2183C13.895 14.805 13.5983 14.1617 13.8333 13.4017C14.075 12.63 14.6983 12.2767 15.1583 12.095C15.575 11.93 16.1183 11.8083 16.665 11.685L16.7417 11.6683L17.06 11.595L17.2267 11.5567L17.32 11.39L17.4833 11.095L17.5217 11.0267C17.805 10.5183 18.08 10.0233 18.355 9.66666Z" fill="#252525"/>
</svg>
