<svg width="41" height="40" viewBox="0 0 41 40" fill="none" xmlns="http://www.w3.org/2000/svg">
<path d="M32.0655 18.3333H22.0655V8.33334C22.0655 7.89131 21.8899 7.46739 21.5773 7.15483C21.2648 6.84227 20.8408 6.66667 20.3988 6.66667C19.9568 6.66667 19.5329 6.84227 19.2203 7.15483C18.9077 7.46739 18.7321 7.89131 18.7321 8.33334V18.3333H8.73214C8.29011 18.3333 7.86619 18.5089 7.55363 18.8215C7.24107 19.1341 7.06547 19.558 7.06547 20C7.06547 20.442 7.24107 20.866 7.55363 21.1785C7.86619 21.4911 8.29011 21.6667 8.73214 21.6667H18.7321V31.6667C18.7321 32.1087 18.9077 32.5326 19.2203 32.8452C19.5329 33.1577 19.9568 33.3333 20.3988 33.3333C20.8408 33.3333 21.2648 33.1577 21.5773 32.8452C21.8899 32.5326 22.0655 32.1087 22.0655 31.6667V21.6667H32.0655C32.5075 21.6667 32.9314 21.4911 33.244 21.1785C33.5565 20.866 33.7321 20.442 33.7321 20C33.7321 19.558 33.5565 19.1341 33.244 18.8215C32.9314 18.5089 32.5075 18.3333 32.0655 18.3333Z" fill="#252525"/>
</svg>
