<svg width="35" height="34" viewBox="0 0 35 34" fill="none" xmlns="http://www.w3.org/2000/svg">
<path d="M17.0847 4.25C20.3629 4.25 23.3974 4.828 25.6669 5.82108C26.7988 6.31692 27.8047 6.94308 28.5456 7.71092C29.2327 8.41925 29.7427 9.30892 29.8234 10.3402L29.8347 10.625V24.7917C29.8347 25.9448 29.295 26.9308 28.5456 27.7057C27.8047 28.4736 26.7988 29.0998 25.6669 29.5956C23.3974 30.5872 20.3629 31.1667 17.0847 31.1667C13.8066 31.1667 10.7721 30.5887 8.50258 29.5956C7.37066 29.0998 6.36483 28.4736 5.62391 27.7057C4.93683 26.9974 4.42683 26.1077 4.34608 25.0764L4.33475 24.7917V10.625C4.33475 9.47183 4.8745 8.48583 5.62391 7.71092C6.36483 6.94308 7.37066 6.31692 8.50258 5.82108C10.7721 4.82942 13.8066 4.25 17.0847 4.25ZM27.0014 21.8266C26.572 22.0839 26.1262 22.3129 25.6669 22.5122C23.3974 23.5039 20.3629 24.0833 17.0847 24.0833C13.8066 24.0833 10.7721 23.5053 8.50258 22.5122C8.0433 22.313 7.59752 22.0839 7.16808 21.8266V24.7917C7.16808 25.007 7.26158 25.3243 7.66108 25.7366C8.06625 26.1559 8.72075 26.5979 9.63875 27.0002C11.4719 27.8021 14.1027 28.3333 17.0847 28.3333C20.0668 28.3333 22.6976 27.8021 24.5307 27.0002C25.4487 26.5979 26.1032 26.1559 26.5084 25.7366C26.9079 25.3257 27.0014 25.007 27.0014 24.7917V21.8266ZM27.0014 14.7432C26.572 15.0006 26.1262 15.2296 25.6669 15.4289C23.3974 16.4206 20.3629 17 17.0847 17C13.8066 17 10.7721 16.422 8.50258 15.4289C8.0433 15.2296 7.59752 15.0006 7.16808 14.7432V17.7083C7.16808 17.9237 7.26158 18.241 7.66108 18.6532C8.06625 19.0726 8.72075 19.5146 9.63875 19.9169C11.4719 20.7188 14.1027 21.25 17.0847 21.25C20.0668 21.25 22.6976 20.7188 24.5307 19.9169C25.4487 19.5146 26.1032 19.0726 26.5084 18.6532C26.9079 18.2424 27.0014 17.9237 27.0014 17.7083V14.7432ZM17.0847 7.08333C14.1027 7.08333 11.4719 7.61458 9.63875 8.41642C8.72075 8.81875 8.06625 9.26075 7.66108 9.68008C7.26158 10.0909 7.16808 10.4097 7.16808 10.625C7.16808 10.8403 7.26158 11.1577 7.66108 11.5699C8.06625 11.9892 8.72075 12.4312 9.63875 12.8336C11.4719 13.6354 14.1027 14.1667 17.0847 14.1667C20.0668 14.1667 22.6976 13.6354 24.5307 12.8336C25.4487 12.4312 26.1032 11.9892 26.5084 11.5699C26.9079 11.1591 27.0014 10.8403 27.0014 10.625C27.0014 10.4097 26.9079 10.0923 26.5084 9.68008C26.1032 9.26075 25.4487 8.81875 24.5307 8.41642C22.6976 7.61458 20.0668 7.08333 17.0847 7.08333Z" fill="black"/>
</svg>
