<svg width="40" height="40" viewBox="0 0 40 40" fill="none" xmlns="http://www.w3.org/2000/svg">
<path fill-rule="evenodd" clip-rule="evenodd" d="M24.7941 27.6129C21.7459 30.0861 17.8809 31.2802 13.9928 30.95C10.1047 30.6197 6.48878 28.7901 3.88757 25.837C1.28637 22.8839 -0.10261 19.0314 0.00591196 15.0708C0.114434 11.1102 1.71222 7.34208 4.4711 4.54042C7.22999 1.73876 10.9406 0.116208 14.8407 0.00600361C18.7408 -0.104201 22.5345 1.30631 25.4425 3.94784C28.3506 6.58938 30.1522 10.2614 30.4775 14.2098C30.8027 18.1581 29.6268 22.0831 27.1913 25.1785L38.8518 37.0174C39.0184 37.1751 39.1521 37.3652 39.2448 37.5765C39.3375 37.7878 39.3873 38.0159 39.3913 38.2472C39.3954 38.4784 39.3535 38.7082 39.2682 38.9226C39.1828 39.1371 39.0559 39.3319 38.8948 39.4955C38.7337 39.6591 38.5419 39.788 38.3307 39.8746C38.1195 39.9613 37.8933 40.0038 37.6655 39.9997C37.4378 39.9956 37.2132 39.945 37.0051 39.8509C36.7971 39.7567 36.6098 39.621 36.4545 39.4518L24.7941 27.6129ZM6.86928 24.0256C5.20942 22.3398 4.07891 20.1922 3.62063 17.8542C3.16235 15.5161 3.39688 13.0926 4.29456 10.8898C5.19225 8.68711 6.7128 6.80405 8.66406 5.47864C10.6153 4.15323 12.9097 3.44497 15.2572 3.44336C17.6047 3.44176 19.9 4.14688 21.853 5.46962C23.8061 6.79236 25.3291 8.67335 26.2297 10.8749C27.1303 13.0764 27.368 15.4996 26.9129 17.8383C26.4577 20.1769 25.33 22.3261 23.6724 24.0141L23.6611 24.0256L23.6498 24.0348C21.4224 26.2915 18.404 27.5581 15.2577 27.5563C12.1113 27.5546 9.09427 26.2847 6.86928 24.0256Z" fill="#252525"/>
</svg>
