<svg width="40" height="40" viewBox="0 0 40 40" fill="none" xmlns="http://www.w3.org/2000/svg">
<path d="M32.9398 22.7199C33.4021 22.7213 33.8493 22.5581 34.2033 22.26C34.5575 21.9618 34.7956 21.548 34.8775 21.0917L34.8775 21.0915L36.7815 10.4574L36.8868 9.86929H36.2894H9.07005H8.47231L8.57792 10.4576L10.7051 22.3082L10.7789 22.7199H11.1972H32.9398ZM32.9398 22.7199C32.9394 22.7199 32.939 22.7199 32.9386 22.7199L32.9404 22.2199M32.9398 22.7199H32.9404V22.2199M32.9404 22.2199C33.284 22.2212 33.6171 22.1 33.8813 21.8775C34.1455 21.6551 34.3239 21.3456 34.3854 21.0034L32.9404 22.2199ZM38.7808 8.25636L38.7822 8.25805C38.8737 8.36798 38.9406 8.49738 38.9777 8.63718L39.461 8.5091L38.9777 8.63719C39.0146 8.77673 39.0209 8.92291 38.996 9.06526C38.9959 9.06554 38.9959 9.06582 38.9958 9.0661L36.7721 21.4445L36.7721 21.4446C36.6087 22.3549 36.1352 23.1769 35.4357 23.7682C34.7362 24.3593 33.8551 24.6824 32.9459 24.6826C32.9459 24.6826 32.9459 24.6826 32.9459 24.6826H11.7294H11.1316L11.2373 25.271L11.8171 28.4983C11.8987 28.9534 12.1358 29.3662 12.4884 29.6643C12.8412 29.9624 13.2871 30.1265 13.7486 30.1265H13.7487H31.4589C32.3716 30.1265 33.2642 30.4005 34.024 30.9145C34.7839 31.4285 35.377 32.1597 35.7276 33.0164C36.0781 33.8732 36.1699 34.8163 35.9911 35.7263C35.8124 36.6362 35.3712 37.4711 34.7245 38.1259C34.0778 38.7806 33.2546 39.2258 32.3593 39.4061C31.4641 39.5863 30.5362 39.4939 29.6925 39.1401C28.8488 38.7863 28.1266 38.1867 27.6181 37.4162C27.1095 36.6456 26.8377 35.7391 26.8377 34.8112V34.8105C26.8368 34.1154 26.9899 33.4293 27.2856 32.8026L27.6222 32.0892H26.8334H18.526H17.7388L18.0734 32.8017C18.4407 33.5838 18.587 34.4539 18.4957 35.3154C18.4045 36.177 18.0794 36.9955 17.5571 37.6804C17.0349 38.3652 16.3362 38.8895 15.5389 39.1959C14.7416 39.5022 13.8764 39.579 13.039 39.4178C12.2016 39.2566 11.4239 38.8637 10.7924 38.2817C10.1609 37.6998 9.7002 36.9514 9.46232 36.1193C9.22443 35.2872 9.21883 34.4045 9.44616 33.5693C9.67347 32.7342 10.1246 31.9799 10.7488 31.3897L11.0912 31.0659L10.7882 30.7049C10.3438 30.1756 10.045 29.5364 9.92257 28.8516L9.92246 28.851L5.24752 2.87409L5.17347 2.46265H4.75542H1.46321C1.20975 2.46265 0.965409 2.36078 0.784286 2.17741C0.602957 1.99384 0.5 1.74356 0.5 1.48133C0.5 1.21909 0.602957 0.968816 0.784286 0.785242C0.965409 0.601875 1.20975 0.5 1.46321 0.5H4.76449C4.76452 0.5 4.76454 0.5 4.76457 0.5C5.33107 0.5001 5.88044 0.701429 6.3168 1.07022C6.75332 1.43914 7.04919 1.95249 7.15129 2.5214L7.15132 2.52157L8.0457 7.49513L8.1197 7.90664H8.53781H38.0434H38.0435C38.1835 7.90661 38.322 7.9377 38.4493 7.99795C38.5767 8.05821 38.6899 8.14629 38.7808 8.25636ZM13.3736 37.4806L13.4723 36.9905L13.3736 37.4806C13.8975 37.5862 14.4406 37.5319 14.9337 37.3251L14.7404 36.864L14.9337 37.3251C15.4268 37.1184 15.8473 36.7686 16.1427 36.3211C16.438 35.8736 16.5953 35.3482 16.5953 34.8112C16.5953 34.0912 16.3128 33.3996 15.8082 32.8886C15.3033 32.3775 14.6172 32.0892 13.9005 32.0892C13.3661 32.0892 12.8443 32.2496 12.4009 32.5495C11.9577 32.8494 11.6132 33.2749 11.41 33.7715C11.2068 34.2682 11.1537 34.8143 11.2572 35.3411C11.3607 35.8679 11.6164 36.3527 11.9928 36.7337C12.3692 37.1149 12.8496 37.3751 13.3736 37.4806ZM30.932 37.4806L31.0308 36.9905L30.932 37.4806C31.456 37.5862 31.999 37.5319 32.4922 37.3251C32.9853 37.1184 33.4058 36.7686 33.7012 36.3211C33.9965 35.8736 34.1538 35.3482 34.1538 34.8112C34.1538 34.0912 33.8713 33.3996 33.3666 32.8886C32.8617 32.3775 32.1756 32.0892 31.4589 32.0892C30.9246 32.0892 30.4027 32.2496 29.9594 32.5495C29.5162 32.8494 29.1716 33.2749 28.9684 33.7715C28.7652 34.2682 28.7122 34.8143 28.8157 35.3411C28.9192 35.8679 29.1749 36.3527 29.5513 36.7337C29.9277 37.1149 30.4081 37.3751 30.932 37.4806Z" fill="#252525" stroke="#252525"/>
</svg>
