<svg width="44" height="40" viewBox="0 0 44 40" fill="none" xmlns="http://www.w3.org/2000/svg">
<path fill-rule="evenodd" clip-rule="evenodd" d="M2.23883 34.359V15.8975H5.31575V34.359C5.31575 35.039 5.5859 35.6912 6.06676 36.1721C6.54762 36.6529 7.19981 36.9231 7.87985 36.9231H36.5978C37.2778 36.9231 37.93 36.6529 38.4109 36.1721C38.8917 35.6912 39.1619 35.039 39.1619 34.359V15.8975H42.2388V34.359C42.2388 35.8551 41.6445 37.2899 40.5866 38.3478C39.5287 39.4057 38.0939 40 36.5978 40H7.87985C6.38376 40 4.94894 39.4057 3.89105 38.3478C2.83315 37.2899 2.23883 35.8551 2.23883 34.359Z" fill="#252525"/>
<path fill-rule="evenodd" clip-rule="evenodd" d="M15.8561 22.1651C16.914 21.1072 18.3488 20.5128 19.8449 20.5128H23.9475C25.4436 20.5128 26.8784 21.1072 27.9363 22.1651C28.9942 23.223 29.5885 24.6578 29.5885 26.1539V38.4616H26.5116V26.1539C26.5116 25.4738 26.2415 24.8216 25.7606 24.3408C25.2797 23.8599 24.6275 23.5898 23.9475 23.5898H19.8449C19.1649 23.5898 18.5127 23.8599 18.0318 24.3408C17.551 24.8216 17.2808 25.4738 17.2808 26.1539V38.4616H14.2039V26.1539C14.2039 24.6578 14.7982 23.223 15.8561 22.1651Z" fill="#252525"/>
<path fill-rule="evenodd" clip-rule="evenodd" d="M13.6437 0H30.8338L31.9151 12.9732C31.9602 13.4828 31.8608 13.9948 31.6283 14.4506C31.3948 14.9085 31.0365 15.2909 30.5949 15.5538L30.5918 15.5556C29.768 16.0434 28.1517 16.9495 26.7943 17.3677C25.1675 17.8689 23.7237 18.1436 22.2388 18.1436C20.7539 18.1436 19.3101 17.8689 17.6832 17.3677C16.3263 16.9496 14.7096 16.0434 13.8882 15.5591L13.8829 15.556C13.4405 15.2928 13.0817 14.9096 12.8482 14.4508C12.6159 13.9945 12.5169 13.4821 12.5625 12.9723L13.6437 0ZM16.4749 3.07692L15.6459 13.0225C16.4778 13.5041 17.6891 14.1498 18.5892 14.4272C20.0249 14.8695 21.1524 15.0667 22.2388 15.0667C23.3252 15.0667 24.4526 14.8695 25.8884 14.4272C26.7887 14.1498 28.0015 13.5032 28.8315 13.021L28.0027 3.07692H16.4749Z" fill="#252525"/>
<path fill-rule="evenodd" clip-rule="evenodd" d="M37.561 1.35827e-08C37.5611 1.35827e-08 37.5609 1.35827e-08 37.561 1.35827e-08H27.5879L28.7007 13.3626C28.7346 13.7935 28.8706 14.2101 29.0974 14.578C29.3253 14.9477 29.6383 15.2576 30.0104 15.4818L30.0164 15.4854C30.8079 15.9575 32.5174 16.9317 33.9357 17.3679C35.1949 17.7546 36.6574 17.8587 37.9567 17.8541C39.2771 17.8494 40.5373 17.7313 41.4413 17.619L41.4504 17.6179C41.84 17.5671 42.2139 17.4321 42.5461 17.2223C42.8784 17.0126 43.1609 16.733 43.3743 16.4031C43.5876 16.0731 43.7266 15.7007 43.7815 15.3116C43.8359 14.9272 43.8068 14.5356 43.6965 14.1634L40.2242 2.00819C40.0587 1.42964 39.7091 0.920239 39.2286 0.557992C38.7482 0.195812 38.1626 -5.95543e-05 37.561 1.35827e-08ZM37.3295 3.07692L40.626 14.6165C39.8573 14.7005 38.9112 14.7738 37.9459 14.7772C36.7681 14.7813 35.6651 14.6801 34.8403 14.4269C33.8825 14.1324 32.5756 13.4209 31.7528 12.9377L30.9317 3.07692H37.3295Z" fill="#252525"/>
<path fill-rule="evenodd" clip-rule="evenodd" d="M6.75817 1.35827e-08C6.75806 1.35827e-08 6.75829 1.35827e-08 6.75817 1.35827e-08H16.7313L15.6185 13.3626C15.5845 13.7935 15.4486 14.2101 15.2218 14.578C14.9938 14.9477 14.6808 15.2576 14.3088 15.4818L14.3028 15.4854C13.5113 15.9575 11.8018 16.9317 10.3834 17.3679C9.12421 17.7546 7.66171 17.8587 6.36242 17.8541C5.04201 17.8494 3.78184 17.7313 2.87786 17.619L2.86875 17.6179C2.47914 17.5671 2.10524 17.4321 1.77302 17.2223C1.4408 17.0126 1.15821 16.733 0.94488 16.4031C0.731544 16.0731 0.592571 15.7007 0.537609 15.3116C0.483296 14.9272 0.512307 14.5356 0.622609 14.1634L4.09495 2.00819C4.26044 1.42964 4.61001 0.920239 5.0905 0.557992C5.57091 0.195812 6.15654 -5.95543e-05 6.75817 1.35827e-08ZM6.98966 3.07692L3.6932 14.6165C4.46186 14.7005 5.408 14.7738 6.37324 14.7772C7.55108 14.7813 8.65408 14.6801 9.4789 14.4269C10.4366 14.1324 11.7435 13.4209 12.5663 12.9377L13.3875 3.07692H6.98966Z" fill="#252525"/>
</svg>
