<svg width="41" height="40" viewBox="0 0 41 40" fill="none" xmlns="http://www.w3.org/2000/svg">
<path d="M34.5135 7.5H28.2635V6.25C28.2635 5.25544 27.8685 4.30161 27.1652 3.59835C26.4619 2.89509 25.5081 2.5 24.5135 2.5H17.0135C16.019 2.5 15.0652 2.89509 14.3619 3.59835C13.6586 4.30161 13.2635 5.25544 13.2635 6.25V7.5H7.01355C6.68203 7.5 6.36409 7.6317 6.12967 7.86612C5.89525 8.10054 5.76355 8.41848 5.76355 8.75C5.76355 9.08152 5.89525 9.39946 6.12967 9.63388C6.36409 9.8683 6.68203 10 7.01355 10H8.26355V32.5C8.26355 33.163 8.52694 33.7989 8.99578 34.2678C9.46462 34.7366 10.1005 35 10.7635 35H30.7635C31.4266 35 32.0625 34.7366 32.5313 34.2678C33.0002 33.7989 33.2635 33.163 33.2635 32.5V10H34.5135C34.8451 10 35.163 9.8683 35.3974 9.63388C35.6319 9.39946 35.7635 9.08152 35.7635 8.75C35.7635 8.41848 35.6319 8.10054 35.3974 7.86612C35.163 7.6317 34.8451 7.5 34.5135 7.5ZM15.7635 6.25C15.7635 5.91848 15.8952 5.60054 16.1297 5.36612C16.3641 5.1317 16.682 5 17.0135 5H24.5135C24.8451 5 25.163 5.1317 25.3974 5.36612C25.6319 5.60054 25.7635 5.91848 25.7635 6.25V7.5H15.7635V6.25ZM30.7635 32.5H10.7635V10H30.7635V32.5ZM18.2635 16.25V26.25C18.2635 26.5815 18.1319 26.8995 17.8974 27.1339C17.663 27.3683 17.3451 27.5 17.0135 27.5C16.682 27.5 16.3641 27.3683 16.1297 27.1339C15.8952 26.8995 15.7635 26.5815 15.7635 26.25V16.25C15.7635 15.9185 15.8952 15.6005 16.1297 15.3661C16.3641 15.1317 16.682 15 17.0135 15C17.3451 15 17.663 15.1317 17.8974 15.3661C18.1319 15.6005 18.2635 15.9185 18.2635 16.25ZM25.7635 16.25V26.25C25.7635 26.5815 25.6319 26.8995 25.3974 27.1339C25.163 27.3683 24.8451 27.5 24.5135 27.5C24.182 27.5 23.8641 27.3683 23.6297 27.1339C23.3952 26.8995 23.2635 26.5815 23.2635 26.25V16.25C23.2635 15.9185 23.3952 15.6005 23.6297 15.3661C23.8641 15.1317 24.182 15 24.5135 15C24.8451 15 25.163 15.1317 25.3974 15.3661C25.6319 15.6005 25.7635 15.9185 25.7635 16.25Z" fill="#252525"/>
</svg>
