<svg width="54" height="40" viewBox="0 0 54 40" fill="none" xmlns="http://www.w3.org/2000/svg">
<path d="M0.443222 4.83871C0.443222 3.5554 0.953013 2.32466 1.86045 1.41723C2.76788 0.509791 3.99863 0 5.28193 0H34.3142C35.5975 0 36.8283 0.509791 37.7357 1.41723C38.6431 2.32466 39.1529 3.5554 39.1529 4.83871V9.67742H42.4432C43.1682 9.67807 43.8838 9.84161 44.537 10.156C45.1903 10.4703 45.7646 10.9274 46.2174 11.4935L50.9949 17.4613C51.6822 18.32 52.0566 19.3872 52.0561 20.4871V27.4194C52.0561 28.7027 51.5464 29.9334 50.6389 30.8408C49.7315 31.7483 48.5007 32.2581 47.2174 32.2581H45.6045C45.6045 33.9691 44.9248 35.6101 43.7149 36.82C42.505 38.03 40.864 38.7097 39.1529 38.7097C37.4418 38.7097 35.8008 38.03 34.5909 36.82C33.381 35.6101 32.7013 33.9691 32.7013 32.2581H16.5723C16.5741 33.118 16.404 33.9697 16.072 34.7629C15.74 35.5562 15.2527 36.2751 14.6389 36.8773C14.025 37.4796 13.297 37.953 12.4975 38.2698C11.698 38.5866 10.8433 38.7404 9.98353 38.7221C9.12377 38.7039 8.27634 38.5139 7.49106 38.1634C6.70579 37.8129 5.9985 37.3089 5.4108 36.6811C4.82309 36.0533 4.36683 35.3144 4.06882 34.5077C3.77081 33.7011 3.63708 32.843 3.67548 31.9839C2.73047 31.6513 1.91201 31.0335 1.33304 30.2159C0.754079 29.3983 0.443168 28.4212 0.443222 27.4194L0.443222 4.83871ZM4.61742 28.8903C5.20065 27.9355 6.0223 27.1488 7.00161 26.6076C7.98092 26.0665 9.08419 25.7894 10.203 25.8037C11.3218 25.8181 12.4176 26.1232 13.3828 26.6893C14.3479 27.2553 15.1491 28.0628 15.7077 29.0323H33.5658C34.1332 28.0525 34.9473 27.2384 35.9271 26.671V4.83871C35.9271 4.41094 35.7572 4.00069 35.4547 3.69822C35.1522 3.39574 34.742 3.22581 34.3142 3.22581H5.28193C4.85417 3.22581 4.44392 3.39574 4.14144 3.69822C3.83896 4.00069 3.66903 4.41094 3.66903 4.83871V27.4194C3.66878 27.7298 3.75813 28.0337 3.92635 28.2947C4.09458 28.5556 4.33454 28.7624 4.61742 28.8903ZM39.1529 25.8065C40.2854 25.8065 41.3979 26.1046 42.3786 26.6708C43.3594 27.2371 44.1738 28.0515 44.74 29.0323H47.2174C47.6452 29.0323 48.0555 28.8623 48.3579 28.5599C48.6604 28.2574 48.8303 27.8471 48.8303 27.4194V20.4839C48.8297 20.1178 48.7046 19.7629 48.4755 19.4774L43.7013 13.5097C43.5505 13.3208 43.3591 13.1682 43.1413 13.0632C42.9236 12.9583 42.685 12.9036 42.4432 12.9032H39.1529V25.8065ZM10.1206 29.0323C9.26511 29.0323 8.44461 29.3721 7.83965 29.9771C7.2347 30.582 6.89484 31.4025 6.89484 32.2581C6.89484 33.1136 7.2347 33.9341 7.83965 34.5391C8.44461 35.144 9.26511 35.4839 10.1206 35.4839C10.9762 35.4839 11.7967 35.144 12.4016 34.5391C13.0066 33.9341 13.3465 33.1136 13.3465 32.2581C13.3465 31.4025 13.0066 30.582 12.4016 29.9771C11.7967 29.3721 10.9762 29.0323 10.1206 29.0323ZM39.1529 29.0323C38.2974 29.0323 37.4769 29.3721 36.8719 29.9771C36.267 30.582 35.9271 31.4025 35.9271 32.2581C35.9271 33.1136 36.267 33.9341 36.8719 34.5391C37.4769 35.144 38.2974 35.4839 39.1529 35.4839C40.0085 35.4839 40.8289 35.144 41.4339 34.5391C42.0389 33.9341 42.3787 33.1136 42.3787 32.2581C42.3787 31.4025 42.0389 30.582 41.4339 29.9771C40.8289 29.3721 40.0085 29.0323 39.1529 29.0323Z" fill="#252525"/>
</svg>
