<svg width="40" height="40" viewBox="0 0 40 40" fill="none" xmlns="http://www.w3.org/2000/svg">
<path d="M32.0828 14.9484L28.6813 3.39687C28.605 3.13807 28.4471 2.91087 28.2311 2.74922C28.0151 2.58757 27.7526 2.50014 27.4828 2.5H12.5172C12.2474 2.50014 11.9849 2.58757 11.7689 2.74922C11.5529 2.91087 11.395 3.13807 11.3188 3.39687L7.91719 14.9484C7.38351 16.719 7.35558 18.6035 7.83656 20.3891C8.31754 22.1747 9.28826 23.7902 10.6391 25.0531C12.8611 27.1369 15.7161 28.4179 18.75 28.6922V35H13.75C13.4185 35 13.1005 35.1317 12.8661 35.3661C12.6317 35.6005 12.5 35.9185 12.5 36.25C12.5 36.5815 12.6317 36.8995 12.8661 37.1339C13.1005 37.3683 13.4185 37.5 13.75 37.5H26.25C26.5815 37.5 26.8995 37.3683 27.1339 37.1339C27.3683 36.8995 27.5 36.5815 27.5 36.25C27.5 35.9185 27.3683 35.6005 27.1339 35.3661C26.8995 35.1317 26.5815 35 26.25 35H21.25V28.6922C24.2838 28.4176 27.1388 27.1367 29.3609 25.0531C30.7118 23.7902 31.6825 22.1747 32.1635 20.3891C32.6444 18.6035 32.6165 16.719 32.0828 14.9484ZM13.4516 5H26.5484L29.6875 15.6547C29.7016 15.7016 29.7141 15.7484 29.7266 15.7953C26.3797 16.9953 22.6109 15.5453 20.5656 14.5094C16.6297 12.5172 13.5047 12.2641 11.2 12.6453L13.4516 5ZM27.6563 23.2266C25.5806 25.1701 22.8435 26.2515 20 26.2515C17.1565 26.2515 14.4194 25.1701 12.3438 23.2266C11.3329 22.2793 10.6071 21.0683 10.2482 19.7303C9.88923 18.3924 9.91152 16.9807 10.3125 15.6547L10.3828 15.4172C12.2578 14.7828 15.2375 14.6141 19.4344 16.7406C21.1766 17.6234 23.9906 18.7484 27.0016 18.7484C28.0079 18.7533 29.0099 18.6166 29.9781 18.3422C29.8506 20.2056 29.0208 21.9512 27.6563 23.2266Z" fill="#252525"/>
</svg>
