<svg width="33" height="36" viewBox="0 0 33 36" fill="none" xmlns="http://www.w3.org/2000/svg">
<path d="M22.2041 11.6295C18.1466 7.13747 12.274 6.33413 9.09152 9.84084C5.90609 13.3471 6.61522 19.8344 10.6727 24.3313C14.7313 28.8249 20.6035 29.625 23.7871 26.1179C26.9744 22.6116 26.263 16.1264 22.2041 11.6295ZM12.4534 13.22C11.1919 14.834 9.57925 15.7253 8.84637 15.208C8.11751 14.6887 8.41344 12.8488 9.67643 11.2353C10.9409 9.61771 12.6887 8.841 13.419 9.36028C14.1493 9.87433 13.7149 11.6061 12.4534 13.22Z" fill="white"/>
<path d="M32.7798 0.65794C32.9091 0.481213 32.9153 0.24477 32.7908 0.105163L32.7878 0.101532C32.6633 -0.0344433 32.4521 -0.0344431 32.2891 0.105163C26.9939 4.64116 20.7399 10.8278 14.6741 17.5269C9.13585 23.6434 4.10031 29.7836 0.0987 35.2997C-0.0291703 35.4776 -0.0339198 35.7129 0.0910278 35.8537C0.0910278 35.8537 0.0910279 35.8537 0.0924893 35.8581C0.21561 35.9941 0.429702 35.9897 0.591184 35.8537C5.88173 31.3201 12.1386 25.1294 18.2044 18.4307C23.7441 12.3127 28.7815 6.16997 32.7798 0.65794Z" fill="white"/>
</svg>
