<svg width="69" height="69" viewBox="0 0 69 69" fill="none" xmlns="http://www.w3.org/2000/svg">
<circle cx="34.5" cy="34.5" r="33.5" fill="#F1F1F1" stroke="#8A8A8A" stroke-width="2"/>
<path d="M46.9662 58.1285C45.0253 58.1285 42.9424 57.0321 42.9187 53.9734V40.931L41.1908 40.8348C40.5754 40.7963 40.1021 40.3731 40.1021 39.8729V38.2955C40.1021 31.4473 40.1021 24.6182 40.1021 17.77C40.1021 14.6536 42.3033 12.5568 45.546 12.5376C48.9071 12.5376 51.0373 14.5767 51.0373 17.7315C51.0373 29.8314 51.0373 41.912 51.0373 54.0119C51.0373 57.6284 48.2916 58.0901 47.1318 58.1285C47.1318 58.1285 46.9898 58.1285 46.9662 58.1285ZM42.469 38.988L44.1968 39.0842C44.8123 39.1227 45.2856 39.5459 45.2856 40.0461V53.9734C45.2856 55.4546 45.8537 56.2049 46.9662 56.2049V57.1667L47.0372 56.2049C47.5106 56.2049 48.6704 56.1664 48.6704 54.0119C48.6704 41.9313 48.6704 29.8314 48.6704 17.7315C48.6704 16.7504 48.3627 14.4613 45.5933 14.4613C43.6288 14.4613 42.469 15.7117 42.469 17.77C42.469 24.6182 42.469 31.4473 42.469 38.2763V38.9496V38.988Z" fill="#8A8A8A"/>
<path d="M17.8809 28.1388C17.2182 28.1388 16.6974 27.7156 16.6974 27.177C16.6974 24.1183 16.6974 23.0796 16.6974 22.0023C16.6974 20.7904 16.6738 19.5208 16.6738 15.3656C16.6264 14.827 17.1708 14.4038 17.8336 14.4038C18.4963 14.4038 19.017 14.827 19.017 15.3656C19.017 19.5015 19.017 20.7712 19.0407 21.9831C19.0407 23.0796 19.0407 24.1183 19.0407 27.177C19.0407 27.7156 18.52 28.1388 17.8572 28.1388H17.8809Z" fill="#8A8A8A"/>
<path d="M24.8633 58.1289C24.8633 58.1289 24.6976 58.1289 24.6266 58.1289C23.6561 58.1866 22.6384 57.8788 21.8809 57.3017C20.9815 56.6092 20.4845 55.5704 20.4845 54.3777C20.4608 47.2601 20.4608 40.1426 20.4845 33.025C20.4845 31.9477 20.4134 31.5438 19.3483 31.0436C17.7861 30.3126 16.792 28.5236 16.721 27.2347C16.6974 26.6961 17.1944 26.2537 17.8572 26.2344C18.4726 26.1575 19.0643 26.6192 19.088 27.1578C19.1353 27.9657 19.8691 29.0622 20.5555 29.3892C22.7094 30.4088 22.8751 31.6976 22.8751 33.0442C22.8277 40.1618 22.8514 47.2794 22.8751 54.3969C22.8751 55.051 23.1118 55.5896 23.5378 55.9166C23.8455 56.1475 24.2242 56.2437 24.6739 56.2244C25.2893 56.2629 25.6444 56.1475 25.9284 55.9166C26.3545 55.5896 26.5675 55.051 26.5912 54.3969C26.6148 47.2794 26.6148 40.1618 26.5912 33.0442C26.5912 31.6976 26.7568 30.4088 28.9107 29.3892C29.6445 29.043 30.3782 27.9465 30.3782 27.1963C30.3782 25.1956 30.3783 23.272 30.4019 21.3483C30.4019 19.4054 30.4256 17.4433 30.4256 15.3849C30.4256 14.8463 30.9463 14.4231 31.6091 14.4231C32.2718 14.4231 32.7925 14.8463 32.7925 15.3849C32.7925 17.4625 32.7925 19.4054 32.7689 21.3675C32.7689 23.2912 32.7452 25.1956 32.7452 27.2155C32.7452 28.639 31.5617 30.3703 30.1179 31.0628C29.0528 31.563 28.9818 31.967 28.9818 33.0442C29.0291 40.1618 29.0054 47.2794 28.9818 54.3969C28.9818 55.5896 28.4847 56.6284 27.5853 57.3209C26.8752 57.8595 25.9521 58.1481 24.958 58.1481L24.8633 58.1289Z" fill="#8A8A8A"/>
<path d="M22.4254 25.6188C21.7627 25.6188 21.2419 25.1956 21.2419 24.657V15.3656C21.2419 14.827 21.7627 14.4038 22.4254 14.4038C23.0882 14.4038 23.6089 14.827 23.6089 15.3656V24.657C23.6089 25.1956 23.0882 25.6188 22.4254 25.6188Z" fill="#8A8A8A"/>
<path d="M26.9701 25.6188C26.3073 25.6188 25.7866 25.1956 25.7866 24.657V15.3656C25.7866 14.827 26.3073 14.4038 26.9701 14.4038C27.6328 14.4038 28.1536 14.827 28.1536 15.3656V24.657C28.1536 25.1956 27.6328 25.6188 26.9701 25.6188Z" fill="#8A8A8A"/>
<path d="M22.4255 16.3274C21.7628 16.3274 21.242 15.9042 21.242 15.3656C21.242 14.827 20.745 14.4422 20.1532 14.4422C19.5615 14.4422 19.0644 14.8654 19.0644 15.3656C19.0644 15.8657 18.5437 16.3274 17.881 16.3274C17.2182 16.3274 16.6975 15.9042 16.6975 15.3656C16.6975 13.7882 18.236 12.5186 20.1532 12.5186C22.0705 12.5186 23.609 13.8074 23.609 15.3656C23.609 15.9042 23.0882 16.3274 22.4255 16.3274Z" fill="#8A8A8A"/>
<path d="M26.9699 16.3274C26.3072 16.3274 25.7865 15.9042 25.7865 15.3656C25.7865 14.827 25.2894 14.4422 24.6977 14.4422C24.1059 14.4422 23.6089 14.8654 23.6089 15.3656C23.6089 15.8657 23.0882 16.3274 22.4254 16.3274C21.7627 16.3274 21.2419 15.9042 21.2419 15.3656C21.2419 13.7882 22.7805 12.5186 24.6977 12.5186C26.6149 12.5186 28.1534 13.8074 28.1534 15.3656C28.1534 15.9042 27.6327 16.3274 26.9699 16.3274Z" fill="#8A8A8A"/>
<path d="M31.5146 16.3274C30.8519 16.3274 30.3311 15.9042 30.3311 15.3656C30.3311 14.827 29.8341 14.4422 29.2423 14.4422C28.6506 14.4422 28.1536 14.8654 28.1536 15.3656C28.1536 15.8657 27.6328 16.3274 26.9701 16.3274C26.3073 16.3274 25.7866 15.9042 25.7866 15.3656C25.7866 13.7882 27.3251 12.5186 29.2423 12.5186C31.1596 12.5186 32.6981 13.8074 32.6981 15.3656C32.6981 15.9042 32.1773 16.3274 31.5146 16.3274Z" fill="#8A8A8A"/>
<path d="M17.8099 16.3274C17.1472 16.3274 16.6265 15.9042 16.6265 15.3656C16.6265 13.7882 18.2123 12.5186 20.1532 12.5186C20.8159 12.5186 21.3367 12.9418 21.3367 13.4804C21.3367 14.019 20.8159 14.4422 20.1532 14.4422C19.4905 14.4422 18.9934 14.8654 18.9934 15.3656C18.9934 15.8657 18.4727 16.3274 17.8099 16.3274Z" fill="#8A8A8A"/>
</svg>
