<svg width="69" height="69" viewBox="0 0 69 69" fill="none" xmlns="http://www.w3.org/2000/svg">
<circle cx="34.5" cy="34.5" r="33.5" fill="#F1F1F1" stroke="#8A8A8A" stroke-width="2"/>
<path d="M35 24C33.7639 24 32.5555 24.3666 31.5277 25.0533C30.4999 25.7401 29.6988 26.7162 29.2258 27.8582C28.7527 29.0003 28.6289 30.2569 28.8701 31.4693C29.1112 32.6817 29.7065 33.7953 30.5806 34.6694C31.4547 35.5435 32.5683 36.1388 33.7807 36.3799C34.9931 36.6211 36.2497 36.4973 37.3918 36.0242C38.5338 35.5512 39.5099 34.7501 40.1967 33.7223C40.8834 32.6945 41.25 31.4861 41.25 30.25C41.25 28.5924 40.5915 27.0027 39.4194 25.8306C38.2473 24.6585 36.6576 24 35 24ZM35 34C34.2583 34 33.5333 33.7801 32.9166 33.368C32.2999 32.956 31.8193 32.3703 31.5355 31.6851C31.2516 30.9998 31.1774 30.2458 31.3221 29.5184C31.4667 28.791 31.8239 28.1228 32.3483 27.5983C32.8728 27.0739 33.541 26.7167 34.2684 26.5721C34.9958 26.4274 35.7498 26.5016 36.4351 26.7855C37.1203 27.0693 37.706 27.5499 38.118 28.1666C38.5301 28.7833 38.75 29.5083 38.75 30.25C38.75 31.2446 38.3549 32.1984 37.6517 32.9017C36.9484 33.6049 35.9946 34 35 34ZM35 16.5C31.3545 16.5041 27.8596 17.9541 25.2818 20.5318C22.7041 23.1096 21.2541 26.6045 21.25 30.25C21.25 35.1562 23.5172 40.3563 27.8125 45.2891C29.7425 47.5181 31.9148 49.5252 34.2891 51.2734C34.4992 51.4207 34.7496 51.4996 35.0062 51.4996C35.2629 51.4996 35.5133 51.4207 35.7234 51.2734C38.0934 49.5245 40.2614 47.5174 42.1875 45.2891C46.4766 40.3563 48.75 35.1562 48.75 30.25C48.7459 26.6045 47.2959 23.1096 44.7182 20.5318C42.1404 17.9541 38.6455 16.5041 35 16.5ZM35 48.6875C32.4172 46.6562 23.75 39.1953 23.75 30.25C23.75 27.2663 24.9353 24.4048 27.045 22.295C29.1548 20.1853 32.0163 19 35 19C37.9837 19 40.8452 20.1853 42.955 22.295C45.0647 24.4048 46.25 27.2663 46.25 30.25C46.25 39.1922 37.5828 46.6562 35 48.6875Z" fill="#8A8A8A"/>
</svg>
