<svg width="69" height="69" viewBox="0 0 69 69" fill="none" xmlns="http://www.w3.org/2000/svg">
<circle cx="34.5" cy="34.5" r="33.5" fill="#F1F1F1" stroke="#8A8A8A" stroke-width="2"/>
<path d="M27.1429 35.4285H42.8572M42.8572 45.4285H27.1429M38.5715 25.4285V16.857C38.5715 16.4782 38.4209 16.1148 38.153 15.8469C37.8851 15.579 37.5218 15.4285 37.1429 15.4285H32.8572C32.4783 15.4285 32.1149 15.579 31.847 15.8469C31.5791 16.1148 31.4286 16.4782 31.4286 16.857V25.4285C30.1099 26.305 29.0284 27.4942 28.2807 28.89C27.5329 30.2859 27.142 31.845 27.1429 33.4285V49.7142C27.1429 50.4719 27.4439 51.1987 27.9797 51.7345C28.5155 52.2703 29.2423 52.5713 30 52.5713H40C40.7578 52.5713 41.4845 52.2703 42.0203 51.7345C42.5562 51.1987 42.8572 50.4719 42.8572 49.7142V33.4285C42.858 31.845 42.4671 30.2859 41.7194 28.89C40.9716 27.4942 39.8902 26.305 38.5715 25.4285Z" stroke="#8A8A8A" stroke-width="2.85714" stroke-linecap="round" stroke-linejoin="round"/>
</svg>
