<svg width="69" height="69" viewBox="0 0 69 69" fill="none" xmlns="http://www.w3.org/2000/svg">
<circle cx="34.5" cy="34.5" r="33.5" fill="#F1F1F1" stroke="#8A8A8A" stroke-width="2"/>
<path d="M40.1584 18.4017C40.2715 18.5207 40.36 18.6608 40.4189 18.8141C40.4778 18.9673 40.506 19.1306 40.5018 19.2948C40.4976 19.4589 40.4611 19.6206 40.3944 19.7706C40.3277 19.9206 40.2321 20.056 40.113 20.1691C38.9368 21.2868 36.9061 24.0833 36.1486 27.7996C37.0134 28.05 37.8162 28.479 38.5049 29.059C39.2222 28.5714 40.0316 28.2354 40.8833 28.0714C41.7351 27.9075 42.6113 27.9192 43.4584 28.1057C44.3055 28.2922 45.1056 28.6496 45.8098 29.1561C46.5139 29.6626 47.1073 30.3075 47.5535 31.0513C47.9997 31.7951 48.2894 32.6222 48.4049 33.4819C48.5204 34.3415 48.4592 35.2157 48.225 36.0509C47.9909 36.8861 47.5887 37.6647 47.0432 38.339C46.4976 39.0134 45.8202 39.5693 45.0523 39.9727C45.4065 41.3606 45.2807 42.8274 44.6955 44.1347C44.3223 44.9732 43.772 45.721 43.0826 46.3268C42.3932 46.9326 41.5808 47.382 40.7014 47.6443C40.773 48.5181 40.6637 49.3974 40.3801 50.227C40.0965 51.0566 39.6448 51.8188 39.0532 52.4659C38.4616 53.113 37.7429 53.6311 36.942 53.9878C36.1411 54.3445 35.2752 54.5321 34.3985 54.5389C33.5218 54.5458 32.653 54.3716 31.8467 54.0274C31.0403 53.6832 30.3136 53.1763 29.7121 52.5385C29.1105 51.9007 28.647 51.1456 28.3506 50.3205C28.0541 49.4954 27.9311 48.618 27.9892 47.7431C26.5657 47.1851 25.3903 46.134 24.6771 44.7816C23.9639 43.4292 23.7605 41.8656 24.104 40.3757C23.2733 40.0407 22.5225 39.5343 21.9007 38.8897C21.2788 38.245 20.7998 37.4765 20.4949 36.6343C20.19 35.7921 20.066 34.895 20.1311 34.0017C20.1961 33.1083 20.4488 32.2387 20.8725 31.4495C21.2962 30.6604 21.8815 29.9694 22.5902 29.4216C23.2989 28.8738 24.1151 28.4816 24.9856 28.2705C25.856 28.0593 26.7612 28.034 27.6422 28.1962C28.5231 28.3584 29.3599 28.7045 30.0981 29.2118C30.5452 28.8049 31.0434 28.4674 31.5775 28.2061L26.5421 27.8647C25.5864 27.7999 24.6528 27.5474 23.7947 27.1217C22.9365 26.696 22.1707 26.1054 21.5408 25.3837C20.9109 24.6619 20.4294 23.8232 20.1237 22.9154C19.818 22.0075 19.6941 21.0484 19.7591 20.0927L27.0355 20.5867C28.7196 20.7012 30.3119 21.3962 31.5411 22.5531C32.7702 23.71 33.5602 25.2574 33.7764 26.9315C34.7119 22.7949 36.98 19.6964 38.391 18.3563C38.51 18.2432 38.6501 18.1547 38.8033 18.0958C38.9566 18.0368 39.1199 18.0087 39.2841 18.0129C39.4482 18.0171 39.6099 18.0536 39.7599 18.1203C39.9099 18.187 40.0453 18.2826 40.1584 18.4017ZM28.6149 31.226C28.0119 30.8308 27.3105 30.6118 26.5898 30.5936C25.869 30.5753 25.1575 30.7586 24.5352 31.1228C23.9129 31.4869 23.4047 32.0175 23.0675 32.6548C22.7304 33.2921 22.5779 34.0109 22.627 34.7302C22.6762 35.4495 22.9251 36.1408 23.3458 36.7263C23.7665 37.3119 24.3422 37.7684 25.0082 38.0445C25.6742 38.3206 26.4041 38.4054 27.1157 38.2893C27.8272 38.1732 28.4923 37.8608 29.036 37.3872C28.4489 36.4803 28.1022 35.4389 28.0285 34.3611C27.9548 33.2832 28.1566 32.2044 28.6149 31.226ZM30.7813 39.1816C29.6251 40.2302 28.1254 40.82 26.5647 40.8399C26.4096 41.4369 26.3994 42.0623 26.5347 42.6641C26.67 43.2659 26.9471 43.8267 27.3428 44.2999C27.7385 44.773 28.2415 45.1449 28.8099 45.3845C29.3783 45.6241 29.9956 45.7246 30.6107 45.6776C31.2257 45.6306 31.8206 45.4374 32.346 45.1141C32.8713 44.7909 33.3119 44.3469 33.6311 43.8191C33.9503 43.2913 34.1389 42.6949 34.1811 42.0795C34.2234 41.4641 34.1182 40.8475 33.8742 40.281C32.7648 40.1913 31.6984 39.8122 30.7813 39.1816ZM36.4176 39.9677C36.852 41.4004 36.7659 42.9406 36.1747 44.316C36.7738 44.8987 37.5453 45.272 38.374 45.3802C39.2027 45.4883 40.0442 45.3256 40.7728 44.9163C41.5014 44.5069 42.0781 43.8729 42.4168 43.1089C42.7555 42.3449 42.838 41.4918 42.6521 40.6771C41.8133 40.7502 40.9684 40.657 40.1657 40.4029C39.363 40.1489 38.6184 39.7388 37.9745 39.1964C37.493 39.523 36.9692 39.7825 36.4176 39.9677ZM39.732 37.4017C40.292 37.8316 40.9588 38.1003 41.6604 38.1788C42.362 38.2573 43.0717 38.1425 43.7128 37.8469C44.3539 37.5514 44.902 37.0862 45.298 36.5018C45.6939 35.9173 45.9227 35.2357 45.9594 34.5307C45.9962 33.8257 45.8395 33.1241 45.5065 32.5016C45.1735 31.8791 44.6766 31.3595 44.0697 30.9989C43.4628 30.6382 42.7689 30.4503 42.063 30.4554C41.357 30.4605 40.6659 30.6584 40.0643 31.0278C40.5753 32.0253 40.8137 33.1401 40.7554 34.2594C40.697 35.3787 40.344 36.4628 39.732 37.4017ZM36.2778 47.3583C35.7237 47.1114 35.2076 46.7867 34.7452 46.3939C33.595 47.5021 32.0717 48.1397 30.475 48.1816C30.4743 48.7037 30.579 49.2206 30.783 49.7012C30.987 50.1819 31.2861 50.6163 31.6622 50.9785C32.0383 51.3407 32.4837 51.6231 32.9717 51.8088C33.4597 51.9945 33.9802 52.0797 34.5019 52.0593C35.0236 52.0388 35.5359 51.9131 36.0078 51.6897C36.4797 51.4664 36.9017 51.1499 37.2482 50.7594C37.5948 50.3689 37.8589 49.9123 38.0246 49.4172C38.1904 48.922 38.2543 48.3985 38.2127 47.8781C37.56 47.81 36.909 47.64 36.2778 47.3583ZM30.8516 32.3485C30.6335 32.8146 30.5105 33.3195 30.4897 33.8336C30.4689 34.3477 30.5507 34.8609 30.7304 35.343C30.9101 35.8252 31.1841 36.2667 31.5363 36.6419C31.8885 37.017 32.3119 37.3182 32.7819 37.5278C33.2518 37.7375 33.7587 37.8514 34.2732 37.863C34.7876 37.8746 35.2992 37.7836 35.7781 37.5952C36.2569 37.4069 36.6935 37.125 37.0622 36.7661C37.4309 36.4072 37.7245 35.9785 37.9256 35.5049C38.3226 34.5704 38.3369 33.5174 37.9653 32.5725C37.5936 31.6276 36.8659 30.8664 35.9387 30.4527C35.0115 30.0389 33.9589 30.0058 33.0075 30.3604C32.0561 30.715 31.2819 31.4289 30.8516 32.3485Z" fill="#8A8A8A"/>
</svg>
