<svg width="29" height="29" viewBox="0 0 29 29" fill="none" xmlns="http://www.w3.org/2000/svg">
<path d="M28.2195 14.7797C28.2195 18.4927 26.7445 22.0536 24.119 24.6792C21.4935 27.3047 17.9326 28.7797 14.2195 28.7797C10.5065 28.7797 6.94556 27.3047 4.32005 24.6792C1.69454 22.0536 0.219543 18.4927 0.219543 14.7797C0.219543 11.0666 1.69454 7.50568 4.32005 4.88017C6.94556 2.25466 10.5065 0.779663 14.2195 0.779663C17.9326 0.779663 21.4935 2.25466 24.119 4.88017C26.7445 7.50568 28.2195 11.0666 28.2195 14.7797ZM14.2195 6.90466C14.2195 6.6726 14.1274 6.45004 13.9633 6.28594C13.7992 6.12185 13.5766 6.02966 13.3445 6.02966C13.1125 6.02966 12.8899 6.12185 12.7258 6.28594C12.5617 6.45004 12.4695 6.6726 12.4695 6.90466V16.5297C12.4696 16.6839 12.5104 16.8354 12.5879 16.9688C12.6653 17.1021 12.7766 17.2127 12.9105 17.2892L19.0355 20.7892C19.2365 20.8978 19.4721 20.9235 19.6918 20.8608C19.9115 20.7981 20.0979 20.6519 20.2113 20.4535C20.3246 20.2551 20.3559 20.0203 20.2984 19.7992C20.2409 19.578 20.0992 19.3882 19.9035 19.2702L14.2195 16.0222V6.90466Z" fill="#252525"/>
</svg>
