<svg width="60" height="40" viewBox="0 0 60 40" fill="none" xmlns="http://www.w3.org/2000/svg">
<path d="M33.1391 37.7943C32.953 40 33.8544 40 33.9737 40H35.1361C35.2055 39.992 35.9409 40.0596 36.3284 37.8241L37.9677 26.2205L33.9737 25.8628L33.1391 37.7943ZM44.2866 23.2191H39.7561L41.7531 37.8241C42.0512 40 42.7584 39.9825 43.1838 40H44.376C44.4964 39.9903 45.0914 40 45.0914 37.7943L44.2866 23.2191ZM20.7397 28.4948C26.999 28.4948 26.8798 19.6721 20.7397 19.6721C14.6592 19.6721 14.3909 28.4948 20.7397 28.4948ZM51.4103 9.21013C50.7844 9.21013 50.2777 8.70343 50.2777 8.07749C50.2777 7.45156 50.7844 6.97466 51.4103 6.97466C52.0363 6.97466 52.5131 7.45156 52.5131 8.07749C52.5131 8.70343 52.0363 9.21013 51.4103 9.21013ZM33.1391 38.5097C33.1391 39.4545 33.8521 40 33.9737 40H35.1361C35.1987 39.9868 36.0899 40 36.3284 38.5097L37.9677 26.2205L33.9737 25.8628L33.1391 38.5097ZM19.0705 26.2205L14.8976 27.6512L16.7754 38.5097C17.0437 40 17.759 40 17.8485 40H19.0705C19.2515 40 19.9945 40 19.9349 38.5097L19.0705 26.2205ZM44.2866 23.2191H39.7561L41.7531 38.5097C41.9021 40 42.7674 39.9811 42.8433 39.9903L44.376 40C44.5071 39.9598 44.9176 39.8104 45.0667 38.5079L44.2866 23.2191ZM37.9677 26.5872C44.6145 26.5574 46.1048 23.4277 47.5057 20.2683C50.0988 14.9031 50.0988 14.9031 55.6428 14.9031C58.9811 14.9031 59.2196 11.4754 59.2196 11.4754L51.5295 3.84501C52.7814 2.62295 53.5266 1.96721 52.7814 0C47.148 4.20268 45.7173 4.23249 37.6696 4.23249H12.9602C10.3373 4.23249 7.98259 5.45454 7.98259 9.0313C7.98259 13.9791 8.0422 17.7049 5.6577 20.8644C2.82611 20.8644 1.27618 22.146 0.590637 25.0373C8.34027 25.0373 10.0392 20.775 10.0392 9.0313C10.0392 7.77943 11.5295 7.77943 11.5295 9.0313V17.5857C11.5295 23.2787 8.54891 24.4709 8.54891 27.0641V38.5097C8.54891 40 9.24306 40 9.4431 40H10.7546C10.9632 40 11.7382 40 11.9468 38.5097L13.1689 29.2101C20.7695 23.845 28.3403 26.617 37.9677 26.5872Z" fill="#252525"/>
</svg>
