<svg width="69" height="69" viewBox="0 0 69 69" fill="none" xmlns="http://www.w3.org/2000/svg">
<circle cx="34.5" cy="34.5" r="34.5" transform="rotate(-90 34.5 34.5)" fill="#B5325D"/>
<path d="M41.2499 17.4558C41.3635 17.5754 41.4525 17.7162 41.5117 17.8702C41.5709 18.0242 41.5992 18.1883 41.595 18.3532C41.5908 18.5181 41.5541 18.6805 41.4871 18.8313C41.42 18.982 41.324 19.118 41.2044 19.2316C40.0225 20.3547 37.9822 23.1644 37.2211 26.8984C38.09 27.15 38.8966 27.5811 39.5886 28.1638C40.3093 27.6739 41.1225 27.3362 41.9783 27.1715C42.8341 27.0068 43.7145 27.0185 44.5657 27.2059C45.4168 27.3933 46.2207 27.7525 46.9282 28.2614C47.6357 28.7703 48.2318 29.4183 48.6802 30.1656C49.1285 30.9129 49.4196 31.7439 49.5356 32.6077C49.6517 33.4714 49.5901 34.3497 49.3549 35.1889C49.1196 36.0281 48.7156 36.8104 48.1674 37.4879C47.6193 38.1655 46.9387 38.724 46.1672 39.1294C46.523 40.5238 46.3966 41.9976 45.8086 43.3112C45.4336 44.1536 44.8808 44.9049 44.1881 45.5136C43.4954 46.1223 42.6792 46.5739 41.7955 46.8374C41.8675 47.7154 41.7576 48.5988 41.4727 49.4323C41.1877 50.2659 40.7339 51.0317 40.1395 51.6819C39.5451 52.3321 38.823 52.8526 38.0183 53.211C37.2136 53.5694 36.3436 53.7579 35.4627 53.7648C34.5818 53.7716 33.709 53.5966 32.8988 53.2508C32.0886 52.905 31.3584 52.3957 30.754 51.7548C30.1496 51.114 29.6839 50.3553 29.3861 49.5263C29.0882 48.6972 28.9646 47.8157 29.0229 46.9367C27.5927 46.376 26.4117 45.3199 25.6951 43.9611C24.9785 42.6023 24.7742 41.0312 25.1193 39.5343C24.2847 39.1976 23.5303 38.6889 22.9055 38.0412C22.2807 37.3934 21.7994 36.6213 21.4931 35.7751C21.1867 34.9288 21.0621 34.0275 21.1275 33.1299C21.1929 32.2323 21.4467 31.3586 21.8724 30.5657C22.2981 29.7728 22.8862 29.0785 23.5983 28.5281C24.3104 27.9778 25.1304 27.5837 26.005 27.3715C26.8797 27.1594 27.7892 27.1339 28.6743 27.2969C29.5593 27.4599 30.4002 27.8076 31.1419 28.3173C31.5911 27.9085 32.0917 27.5694 32.6283 27.3068L27.569 26.9638C26.6087 26.8987 25.6707 26.645 24.8085 26.2173C23.9463 25.7895 23.1768 25.1961 22.5439 24.471C21.911 23.7459 21.4272 22.9031 21.1201 21.991C20.8129 21.0789 20.6884 20.1151 20.7538 19.1549L28.0647 19.6512C29.7568 19.7663 31.3567 20.4646 32.5917 21.627C33.8267 22.7894 34.6204 24.3441 34.8377 26.0262C35.7776 21.8699 38.0564 18.7568 39.4741 17.4103C39.5937 17.2967 39.7345 17.2077 39.8885 17.1485C40.0424 17.0893 40.2066 17.061 40.3715 17.0652C40.5364 17.0695 40.6988 17.1061 40.8495 17.1732C41.0003 17.2402 41.1363 17.3362 41.2499 17.4558ZM29.6516 30.3411C29.0457 29.944 28.341 29.724 27.6169 29.7057C26.8927 29.6873 26.1778 29.8715 25.5525 30.2374C24.9273 30.6033 24.4166 31.1364 24.0779 31.7767C23.7392 32.4171 23.5859 33.1392 23.6353 33.8619C23.6847 34.5847 23.9348 35.2793 24.3575 35.8676C24.7802 36.4559 25.3586 36.9145 26.0278 37.192C26.697 37.4694 27.4303 37.5546 28.1453 37.4379C28.8602 37.3212 29.5284 37.0074 30.0747 36.5316C29.4848 35.6204 29.1364 34.574 29.0624 33.4911C28.9884 32.4081 29.1912 31.3241 29.6516 30.3411ZM31.8283 38.3345C30.6666 39.3881 29.1598 39.9807 27.5916 40.0006C27.4359 40.6005 27.4256 41.2289 27.5615 41.8335C27.6975 42.4382 27.9759 43.0016 28.3735 43.477C28.7711 43.9524 29.2765 44.3261 29.8475 44.5668C30.4186 44.8076 31.0389 44.9086 31.6569 44.8613C32.2748 44.8141 32.8726 44.62 33.4004 44.2952C33.9283 43.9704 34.3709 43.5243 34.6916 42.994C35.0124 42.4637 35.2018 41.8644 35.2443 41.2461C35.2868 40.6278 35.1811 40.0083 34.9359 39.4391C33.8213 39.3489 32.7498 38.9681 31.8283 38.3345ZM37.4914 39.1243C37.9278 40.5638 37.8414 42.1113 37.2473 43.4933C37.8493 44.0787 38.6245 44.4538 39.4571 44.5625C40.2897 44.6712 41.1352 44.5077 41.8673 44.0964C42.5993 43.6851 43.1788 43.0481 43.5191 42.2804C43.8594 41.5128 43.9423 40.6557 43.7555 39.837C42.9127 39.9105 42.0638 39.8169 41.2573 39.5616C40.4508 39.3063 39.7026 38.8943 39.0557 38.3493C38.5719 38.6775 38.0456 38.9383 37.4914 39.1243ZM40.8215 36.5462C41.3842 36.9781 42.0541 37.2481 42.7591 37.3269C43.464 37.4058 44.177 37.2905 44.8212 36.9935C45.4654 36.6965 46.0161 36.2291 46.4139 35.6419C46.8118 35.0547 47.0416 34.3699 47.0785 33.6615C47.1154 32.9531 46.9581 32.2482 46.6235 31.6227C46.2888 30.9973 45.7897 30.4752 45.1799 30.1129C44.5701 29.7505 43.8729 29.5617 43.1636 29.5668C42.4543 29.572 41.7599 29.7708 41.1554 30.1419C41.6688 31.1442 41.9084 32.2643 41.8498 33.3889C41.7912 34.5136 41.4364 35.6027 40.8215 36.5462ZM37.3509 46.55C36.7941 46.3019 36.2756 45.9757 35.8111 45.581C34.6553 46.6945 33.1248 47.3352 31.5206 47.3772C31.5198 47.9018 31.6251 48.4212 31.83 48.9041C32.035 49.387 32.3355 49.8235 32.7134 50.1874C33.0913 50.5513 33.5388 50.8351 34.0291 51.0217C34.5194 51.2083 35.0424 51.2939 35.5666 51.2733C36.0908 51.2528 36.6055 51.1265 37.0796 50.902C37.5538 50.6776 37.9778 50.3596 38.326 49.9672C38.6742 49.5749 38.9395 49.1162 39.1061 48.6187C39.2726 48.1212 39.3368 47.5952 39.295 47.0722C38.6392 47.0038 37.9852 46.833 37.3509 46.55ZM31.899 31.469C31.6798 31.9372 31.5562 32.4445 31.5353 32.9611C31.5144 33.4777 31.5966 33.9932 31.7772 34.4777C31.9577 34.9621 32.233 35.4058 32.5869 35.7827C32.9408 36.1596 33.3662 36.4622 33.8384 36.6729C34.3105 36.8835 34.8199 36.998 35.3368 37.0096C35.8537 37.0213 36.3677 36.9298 36.8488 36.7406C37.3299 36.5513 37.7686 36.2682 38.139 35.9075C38.5095 35.5469 38.8044 35.1161 39.0066 34.6403C39.4055 33.7013 39.4198 32.6433 39.0464 31.694C38.673 30.7446 37.9418 29.9798 37.0102 29.5641C36.0786 29.1484 35.021 29.1151 34.0651 29.4714C33.1091 29.8276 32.3313 30.545 31.899 31.469Z" fill="white"/>
</svg>
