<svg width="41" height="40" viewBox="0 0 41 40" fill="none" xmlns="http://www.w3.org/2000/svg">
<path d="M38.3889 14.6875C38.3889 25.625 22.1717 34.4781 21.4811 34.8438C21.2991 34.9417 21.0956 34.9929 20.8889 34.9929C20.6822 34.9929 20.4788 34.9417 20.2967 34.8438C19.6061 34.4781 3.38892 25.625 3.38892 14.6875C3.39181 12.1191 4.41339 9.65673 6.22952 7.8406C8.04565 6.02447 10.508 5.00289 13.0764 5C16.303 5 19.128 6.3875 20.8889 8.73281C22.6499 6.3875 25.4749 5 28.7014 5C31.2698 5.00289 33.7322 6.02447 35.5483 7.8406C37.3644 9.65673 38.386 12.1191 38.3889 14.6875Z" fill="#252525"/>
</svg>
