<svg width="41" height="40" viewBox="0 0 41 40" fill="none" xmlns="http://www.w3.org/2000/svg">
<path d="M22.304 3.335C23.5202 3.33033 24.7364 3.34256 25.9523 3.37167L26.2756 3.38333C26.649 3.39667 27.0173 3.41333 27.4623 3.43333C29.2356 3.51667 30.4456 3.79667 31.5073 4.20833C32.6073 4.63167 33.534 5.205 34.4606 6.13167C35.3079 6.96435 35.9637 7.97158 36.3823 9.08334C36.794 10.145 37.074 11.3567 37.1573 13.13C37.1773 13.5733 37.194 13.9433 37.2073 14.3167L37.2173 14.64C37.2469 15.8553 37.2597 17.071 37.2556 18.2867L37.2573 19.53V21.7133C37.2614 22.9296 37.2486 24.1458 37.219 25.3617L37.209 25.685C37.1956 26.0583 37.179 26.4267 37.159 26.8717C37.0756 28.645 36.7923 29.855 36.3823 30.9167C35.965 32.0296 35.3091 33.0377 34.4606 33.87C33.6272 34.7172 32.6195 35.3729 31.5073 35.7917C30.4456 36.2033 29.2356 36.4833 27.4623 36.5667C27.0173 36.5867 26.649 36.6033 26.2756 36.6167L25.9523 36.6267C24.7364 36.6563 23.5202 36.6691 22.304 36.665L21.0606 36.6667H18.879C17.6627 36.6708 16.4465 36.658 15.2306 36.6283L14.9073 36.6183C14.5117 36.604 14.1161 36.5873 13.7206 36.5683C11.9473 36.485 10.7373 36.2017 9.67397 35.7917C8.56177 35.3739 7.55436 34.718 6.7223 33.87C5.87404 33.0371 5.21767 32.0293 4.79897 30.9167C4.3873 29.855 4.1073 28.645 4.02397 26.8717C4.0054 26.4762 3.98874 26.0806 3.97397 25.685L3.96563 25.3617C3.93491 24.1458 3.92101 22.9296 3.92397 21.7133V18.2867C3.91931 17.071 3.93154 15.8553 3.96063 14.64L3.9723 14.3167C3.98563 13.9433 4.0023 13.5733 4.0223 13.13C4.10563 11.355 4.38563 10.1467 4.7973 9.08334C5.21625 7.97104 5.87391 6.96408 6.72397 6.13334C7.55546 5.28459 8.56223 4.62762 9.67397 4.20833C10.7373 3.79667 11.9456 3.51667 13.7206 3.43333L14.9073 3.38333L15.2306 3.375C16.4459 3.34429 17.6616 3.3304 18.8773 3.33333L22.304 3.335ZM20.5906 11.6683C19.4865 11.6527 18.3902 11.8567 17.3656 12.2684C16.341 12.6802 15.4084 13.2915 14.622 14.0668C13.8357 14.8421 13.2113 15.7659 12.7851 16.7846C12.3589 17.8033 12.1395 18.8966 12.1395 20.0008C12.1395 21.1051 12.3589 22.1984 12.7851 23.2171C13.2113 24.2358 13.8357 25.1596 14.622 25.9349C15.4084 26.7102 16.341 27.3215 17.3656 27.7332C18.3902 28.145 19.4865 28.349 20.5906 28.3333C22.8008 28.3333 24.9204 27.4554 26.4832 25.8926C28.046 24.3298 28.924 22.2101 28.924 20C28.924 17.7899 28.046 15.6702 26.4832 14.1074C24.9204 12.5446 22.8008 11.6683 20.5906 11.6683ZM20.5906 15.0017C21.2548 14.9894 21.9148 15.1097 22.532 15.3553C23.1491 15.601 23.7112 15.9672 24.1853 16.4326C24.6593 16.8979 25.0359 17.4531 25.293 18.0656C25.5502 18.6781 25.6826 19.3357 25.6827 20C25.6829 20.6643 25.5506 21.3219 25.2937 21.9345C25.0368 22.5471 24.6604 23.1024 24.1865 23.5679C23.7125 24.0334 23.1506 24.3998 22.5335 24.6457C21.9164 24.8916 21.2565 25.012 20.5923 25C19.2662 25 17.9944 24.4732 17.0568 23.5355C16.1191 22.5979 15.5923 21.3261 15.5923 20C15.5923 18.6739 16.1191 17.4022 17.0568 16.4645C17.9944 15.5268 19.2662 15 20.5923 15L20.5906 15.0017ZM29.3406 9.16834C28.803 9.18986 28.2945 9.41859 27.9216 9.80662C27.5488 10.1947 27.3406 10.7119 27.3406 11.25C27.3406 11.7881 27.5488 12.3053 27.9216 12.6934C28.2945 13.0814 28.803 13.3101 29.3406 13.3317C29.8932 13.3317 30.4231 13.1122 30.8138 12.7215C31.2045 12.3308 31.424 11.8009 31.424 11.2483C31.424 10.6958 31.2045 10.1659 30.8138 9.7752C30.4231 9.3845 29.8932 9.165 29.3406 9.165V9.16834Z" fill="black"/>
</svg>
