<svg width="41" height="40" viewBox="0 0 41 40" fill="none" xmlns="http://www.w3.org/2000/svg">
<path d="M5.17462 14.4629L20.3946 22.3786C20.5473 22.458 20.7168 22.4994 20.8889 22.4994C21.061 22.4994 21.2305 22.458 21.3832 22.3786L36.6032 14.4643V28.2143C36.6033 29.4002 36.1495 30.5412 35.3351 31.4032C34.5206 32.2652 33.4072 32.7829 32.2232 32.85L31.9603 32.8571H9.81748C8.63157 32.8572 7.49058 32.4035 6.62858 31.589C5.76657 30.7746 5.24891 29.6612 5.18176 28.4771L5.17462 28.2143V14.4629ZM9.81748 7.14286H31.9603C33.1462 7.14278 34.2872 7.59651 35.1492 8.41096C36.0112 9.22541 36.5289 10.3388 36.5961 11.5229L36.6032 11.7857V12.0486L20.8889 20.22L5.17462 12.0486V11.7857C5.17454 10.5998 5.62827 9.45882 6.44272 8.59681C7.25718 7.73481 8.37061 7.21714 9.55462 7.15L9.81748 7.14286Z" fill="#252525"/>
</svg>
