<svg width="34" height="42" viewBox="0 0 34 42" fill="none" xmlns="http://www.w3.org/2000/svg">
<path d="M16.7195 0.000205994C12.345 0.00516862 8.15104 1.74515 5.05776 4.83843C1.96449 7.9317 0.224506 12.1257 0.219543 16.5002C0.219543 30.619 15.2195 41.2821 15.8589 41.7283C16.1111 41.905 16.4116 41.9998 16.7195 41.9998C17.0275 41.9998 17.328 41.905 17.5802 41.7283C18.2195 41.2821 33.2195 30.619 33.2195 16.5002C33.2146 12.1257 31.4746 7.9317 28.3813 4.83843C25.288 1.74515 21.0941 0.00516862 16.7195 0.000205994ZM16.7195 10.5002C17.9062 10.5002 19.0663 10.8521 20.053 11.5114C21.0397 12.1707 21.8087 13.1078 22.2628 14.2041C22.7169 15.3005 22.8358 16.5069 22.6043 17.6708C22.3727 18.8346 21.8013 19.9037 20.9622 20.7429C20.1231 21.582 19.054 22.1534 17.8901 22.3849C16.7262 22.6164 15.5198 22.4976 14.4234 22.0435C13.3271 21.5894 12.39 20.8203 11.7307 19.8336C11.0714 18.8469 10.7195 17.6869 10.7195 16.5002C10.7195 14.9089 11.3517 13.3828 12.4769 12.2576C13.6021 11.1323 15.1282 10.5002 16.7195 10.5002Z" fill="#252525"/>
</svg>
