<svg width="23" height="28" viewBox="0 0 23 28" fill="none" xmlns="http://www.w3.org/2000/svg">
<path d="M11.2195 0C8.30318 0.00330845 5.50721 1.16331 3.44502 3.22551C1.38284 5.28772 0.222852 8.08372 0.219543 11.0001C0.219543 20.4127 10.2195 27.5215 10.6458 27.819C10.8139 27.9368 11.0143 28 11.2195 28C11.4248 28 11.6252 27.9368 11.7933 27.819C12.2195 27.5215 22.2195 20.4127 22.2195 11.0001C22.2162 8.08372 21.0562 5.28772 18.9941 3.22551C16.9319 1.16331 14.1359 0.00330845 11.2195 0ZM11.2195 7.00007C12.0107 7.00007 12.784 7.23467 13.4418 7.6742C14.0996 8.11373 14.6123 8.73845 14.9151 9.46936C15.2178 10.2003 15.297 11.0045 15.1427 11.7805C14.9883 12.5564 14.6074 13.2691 14.048 13.8286C13.4886 14.388 12.7758 14.7689 11.9999 14.9233C11.224 15.0776 10.4197 14.9984 9.68881 14.6957C8.9579 14.3929 8.33319 13.8802 7.89367 13.2224C7.45414 12.5646 7.21954 11.7912 7.21954 11.0001C7.21954 9.93923 7.64097 8.92181 8.39112 8.17165C9.14126 7.4215 10.1587 7.00007 11.2195 7.00007Z" fill="#252525"/>
</svg>
