<svg width="42" height="40" viewBox="0 0 42 40" fill="none" xmlns="http://www.w3.org/2000/svg">
<path d="M5.01563 19.8471C5.01434 20.1709 5.07751 20.492 5.20146 20.7917C5.3254 21.0913 5.50764 21.3635 5.73757 21.5924L10.5201 26.375C10.8344 26.6881 11.2591 26.8651 11.7019 26.8675L30.7877 26.9033C31.4397 26.9038 32.0643 26.6456 32.5245 26.1854C32.9847 25.7252 33.2429 25.1006 33.2424 24.4486L33.2263 15.361C33.2246 14.7088 32.9641 14.0831 32.5021 13.6211C32.0401 13.1591 31.4143 12.8986 30.7621 12.8968L11.6841 12.8611C11.2412 12.8612 10.8168 13.0361 10.5032 13.3479L5.7349 18.1163C5.50608 18.3423 5.32465 18.6117 5.20116 18.9088C5.07768 19.2059 5.01461 19.5249 5.01563 19.8471ZM12.6951 18.6257C12.9414 18.8719 13.1093 19.1854 13.1777 19.5264C13.2461 19.8675 13.212 20.2208 13.0795 20.5417C12.947 20.8626 12.7223 21.1367 12.4336 21.3293C12.1449 21.5219 11.8053 21.6243 11.4577 21.6237C11.1101 21.6231 10.7701 21.5194 10.4808 21.3258C10.1914 21.1322 9.96565 20.8573 9.83206 20.5359C9.69847 20.2145 9.66304 19.8611 9.73025 19.5203C9.79746 19.1795 9.96429 18.8666 10.2096 18.6213C10.5387 18.2923 10.9854 18.1079 11.4515 18.1087C11.9176 18.1096 12.3649 18.2955 12.6951 18.6257Z" fill="#252525"/>
</svg>
