<svg width="32" height="36" viewBox="0 0 32 36" fill="none" xmlns="http://www.w3.org/2000/svg">
<path d="M26.4902 3.1749C26.3045 2.80351 26.327 2.35784 26.5521 2.01502C26.8334 1.57507 27.3792 1.39223 27.8744 1.56936C28.0601 1.63792 28.2626 1.62649 28.437 1.53507C28.6115 1.44937 28.7465 1.28939 28.8084 1.10083C28.8422 0.997988 28.9041 0.866574 28.9828 0.740873C29.4386 0.0552308 30.3557 -0.196171 31.0759 0.163791C31.5092 0.380911 31.813 0.758014 31.9424 1.22654C32.0662 1.68934 31.9875 2.18072 31.7343 2.57496C31.6442 2.70638 31.5655 2.80351 31.4867 2.87208C31.3348 3.00349 31.2447 3.18633 31.2335 3.39202C31.2222 3.592 31.2897 3.78627 31.4248 3.93482C31.7793 4.32335 31.8299 4.90615 31.5429 5.3461C31.3235 5.68892 30.9353 5.88319 30.5302 5.86033C29.613 5.80319 28.7465 6.14602 28.1388 6.80309L27.3849 7.43159C27.2217 7.29447 27.0585 7.16876 26.8841 7.05449C26.704 6.9345 26.524 6.82594 26.3327 6.72881L26.5971 5.77463C26.9347 4.93472 26.901 3.98624 26.4902 3.1749ZM17.5776 14.3109C17.5326 14.6994 17.4538 15.0936 17.3694 15.4822C17.3582 15.5336 17.3469 15.5793 17.3357 15.6307H14.9275L14.4548 14.5337L15.3101 8.95715L15.6196 6.95164C16.9643 8.64289 17.6733 10.6827 17.6733 12.9339C17.6677 13.4024 17.6395 13.8538 17.5776 14.3109ZM9.0814 15.6307C8.98574 15.5222 8.89572 15.4079 8.81132 15.2993C8.71004 15.1679 8.60313 15.0422 8.51311 14.9108C8.40057 14.7565 8.30492 14.5908 8.20364 14.4309C8.11924 14.2937 8.02922 14.1566 7.95607 14.0195C7.86604 13.8538 7.78727 13.6766 7.70287 13.5052C7.63535 13.3624 7.5622 13.2196 7.50594 13.0767C7.43279 12.8996 7.37653 12.711 7.31463 12.5282C7.26399 12.3796 7.20773 12.2368 7.16834 12.0882C7.11207 11.894 7.07831 11.6997 7.0333 11.5054C6.99954 11.3569 6.96578 11.2141 6.93765 11.0598C6.92077 10.9512 6.91514 10.8369 6.89826 10.7284L10.5668 13.311L13.1213 15.1165L13.3408 15.6307H9.0814ZM13.3745 11.9968L11.3095 7.1402L9.58217 3.07777C11.4502 3.64342 13.0763 4.5119 14.3536 5.63178L13.3745 11.9968ZM8.25428 3.65485L12.041 12.5568L11.3883 12.0997L6.81386 8.87716C6.83074 8.50577 6.87013 8.13438 6.92639 7.75727C7.12333 6.40313 7.56783 5.03185 8.25428 3.65485ZM5.154 8.28865C5.2384 8.28865 5.3228 8.28865 5.4072 8.29436C5.39595 8.40863 5.39595 8.52291 5.39032 8.64289C5.38469 8.7686 5.37344 8.90001 5.37344 9.02571C5.36219 9.32854 5.36781 9.62565 5.37907 9.92276C5.38469 10.0142 5.38469 10.1056 5.39032 10.1913C5.41845 10.5741 5.45784 10.9455 5.52536 11.3169C5.54224 11.4026 5.55912 11.4883 5.576 11.5683C5.63227 11.854 5.69416 12.1397 5.77293 12.4196C5.80669 12.5339 5.84045 12.6539 5.87421 12.7682C5.95299 13.0253 6.04301 13.2824 6.14429 13.5338C6.18368 13.6367 6.22306 13.7338 6.26245 13.8366C6.40874 14.1795 6.56629 14.5108 6.75197 14.8365C6.76885 14.8651 6.79136 14.8994 6.80824 14.9279C6.94327 15.1679 7.08394 15.4022 7.24149 15.6307H0.832743C0.70333 15.6307 0.573917 15.6422 0.450131 15.665C0.151919 14.9965 0 14.2652 0 13.5224C0 10.637 2.31255 8.28865 5.154 8.28865ZM21.0042 34.5316C21.0042 35.3429 20.3572 36 19.5582 36H11.7878C10.9888 36 10.3418 35.3429 10.3418 34.5316V33.086H21.0042V34.5316ZM31.1322 17.3848C31.2841 17.562 31.3573 17.7848 31.3291 18.0133C30.6314 23.9556 26.7884 29.275 21.5219 31.6176H9.81849C4.55195 29.275 0.708957 23.9556 0.0112533 18.0133C-0.0281332 17.6877 0.140666 17.3734 0.450131 17.202C0.557037 17.1391 0.692077 17.1049 0.832743 17.1049H8.73817H14.4436H17.8927H25.3199H30.502C30.7496 17.0991 30.9747 17.202 31.1322 17.3848ZM26.7997 13.9966L26.5465 14.2309C26.524 14.2137 26.5071 14.1852 26.4846 14.168L24.8079 13.0481C24.4759 12.8253 24.0258 12.9224 23.8063 13.2595C23.5869 13.5967 23.6825 14.0538 24.0145 14.2766L25.4605 15.2422L25.0442 15.6307H18.8267C18.8324 15.6136 18.8324 15.5964 18.8324 15.5793C18.8718 15.3793 18.8999 15.1851 18.9336 14.9851C18.9562 14.848 18.9843 14.7051 19.0068 14.568L20.4472 10.3627L21.0943 10.7912C21.2181 10.8712 21.3531 10.9112 21.4881 10.9112C21.7245 10.9112 21.9552 10.797 22.0958 10.5798C22.3153 10.2427 22.2196 9.78563 21.8876 9.5628L21.1168 9.04857C22.0846 7.82584 23.7163 7.32303 25.2299 7.84869C25.5224 7.94583 25.8038 8.08867 26.0851 8.27722C26.3439 8.44863 26.5859 8.65432 26.8053 8.90572C27.4242 9.59708 27.7675 10.4998 27.7675 11.454C27.7618 12.4139 27.4017 13.3281 26.7997 13.9966Z" fill="white"/>
</svg>
