<svg width="29" height="40" viewBox="0 0 29 40" fill="none" xmlns="http://www.w3.org/2000/svg">
<path d="M27.8698 14.3872L24.0903 1.55208C24.0056 1.26452 23.8301 1.01208 23.5901 0.832465C23.3501 0.652852 23.0584 0.555712 22.7587 0.555557H6.13019C5.83042 0.555712 5.53874 0.652852 5.29874 0.832465C5.05873 1.01208 4.88328 1.26452 4.79859 1.55208L1.01908 14.3872C0.426094 16.3544 0.39506 18.4483 0.929482 20.4323C1.4639 22.4163 2.54249 24.2113 4.04339 25.6146C6.51246 27.9297 9.68463 29.3529 13.0555 29.658V36.6667H7.49998C7.13163 36.6667 6.77836 36.813 6.51789 37.0735C6.25742 37.3339 6.11109 37.6872 6.11109 38.0556C6.11109 38.4239 6.25742 38.7772 6.51789 39.0376C6.77836 39.2981 7.13163 39.4444 7.49998 39.4444H21.3889C21.7572 39.4444 22.1105 39.2981 22.371 39.0376C22.6314 38.7772 22.7778 38.4239 22.7778 38.0556C22.7778 37.6872 22.6314 37.3339 22.371 37.0735C22.1105 36.813 21.7572 36.6667 21.3889 36.6667H15.8333V29.658C19.2043 29.3532 22.3765 27.9299 24.8455 25.6146C26.346 24.2111 27.4244 22.4161 27.9588 20.4322C28.4932 18.4483 28.4623 16.3545 27.8698 14.3872ZM7.16839 3.33333H21.7205L25.2083 15.1719C25.2239 15.224 25.2378 15.276 25.2517 15.3281C21.533 16.6615 17.3455 15.0503 15.0729 13.8993C10.6996 11.6858 7.22741 11.4045 4.66665 11.8281L7.16839 3.33333Z" fill="#252525"/>
</svg>
