<svg width="33" height="36" fill="none" xmlns="http://www.w3.org/2000/svg"><path d="M22.204 11.63c-4.057-4.493-9.93-5.296-13.112-1.79-3.186 3.507-2.477 9.994 1.58 14.491 4.06 4.494 9.931 5.294 13.115 1.787 3.187-3.506 2.476-9.992-1.583-14.488zm-9.75 1.59c-1.262 1.614-2.875 2.505-3.608 1.988-.728-.52-.433-2.36.83-3.973 1.265-1.617 3.013-2.394 3.743-1.875.73.514.296 2.246-.966 3.86z" fill="#fff"/><path d="M32.78.658c.13-.177.135-.413.01-.553l-.002-.003c-.125-.136-.336-.136-.499.003-5.295 4.536-11.55 10.723-17.615 17.422C9.136 23.643 4.1 29.784.1 35.3c-.128.178-.133.413-.008.554l.001.004c.124.136.338.132.5-.004 5.29-4.534 11.547-10.725 17.612-17.423C23.744 12.313 28.782 6.17 32.78.658z" fill="#fff"/></svg>