<svg width="69" height="69" fill="none" xmlns="http://www.w3.org/2000/svg"><circle cx="34.5" cy="34.5" r="33.5" fill="#F1F1F1" stroke="#8A8A8A" stroke-width="2"/><path d="M40.158 18.402a1.249 1.249 0 01-.045 1.767c-1.176 1.118-3.207 3.914-3.964 7.63.864.251 1.667.68 2.356 1.26a6.375 6.375 0 116.547 10.914 6.346 6.346 0 01-.356 4.162 6.362 6.362 0 01-3.995 3.51 6.375 6.375 0 01-12.35 2.675 6.373 6.373 0 01-.362-2.577 6.375 6.375 0 01-3.885-7.367 6.373 6.373 0 115.994-11.164 6.331 6.331 0 011.48-1.006l-5.036-.341a7.292 7.292 0 01-6.783-7.772l7.276.494a7.296 7.296 0 016.741 6.345c.936-4.137 3.204-7.236 4.615-8.576a1.25 1.25 0 011.767.046zM28.615 31.226a3.873 3.873 0 10.421 6.161 6.368 6.368 0 01-.421-6.161zm2.166 7.956a6.398 6.398 0 01-4.216 1.658 3.875 3.875 0 107.31-.559 6.364 6.364 0 01-3.094-1.1zm5.637.786a6.347 6.347 0 01-.243 4.348 3.874 3.874 0 006.477-3.639 6.398 6.398 0 01-4.678-1.48 6.406 6.406 0 01-1.556.77zm3.314-2.566a3.874 3.874 0 10.332-6.374 6.362 6.362 0 01-.332 6.374zm-3.454 9.956a6.375 6.375 0 01-1.533-.964 6.396 6.396 0 01-4.27 1.788 3.876 3.876 0 107.738-.304 6.354 6.354 0 01-1.935-.52zm-5.426-15.01a3.874 3.874 0 107.017 3.284 3.874 3.874 0 00-7.017-3.283z" fill="#8A8A8A"/></svg>