<svg width="69" height="69" fill="none" xmlns="http://www.w3.org/2000/svg"><circle cx="34.5" cy="34.5" r="33.5" fill="#F1F1F1" stroke="#8A8A8A" stroke-width="2"/><path d="M35 24a6.25 6.25 0 100 12.5A6.25 6.25 0 0035 24zm0 10a3.75 3.75 0 110-7.5 3.75 3.75 0 010 7.5zm0-17.5a13.766 13.766 0 00-13.75 13.75c0 4.906 2.267 10.106 6.563 15.04a39.715 39.715 0 006.476 5.983 1.25 1.25 0 001.434 0 39.711 39.711 0 006.465-5.984c4.289-4.933 6.562-10.133 6.562-15.039A13.766 13.766 0 0035 16.5zm0 32.188c-2.583-2.032-11.25-9.493-11.25-18.438a11.25 11.25 0 0122.5 0c0 8.942-8.667 16.406-11.25 18.438z" fill="#8A8A8A"/></svg>