<svg width="69" height="69" fill="none" xmlns="http://www.w3.org/2000/svg"><circle cx="34.5" cy="34.5" r="33.5" fill="#F1F1F1" stroke="#8A8A8A" stroke-width="2"/><path d="M46.966 58.129c-1.94 0-4.024-1.097-4.047-4.156V40.931l-1.728-.096c-.616-.039-1.089-.462-1.089-.962V17.77c0-3.116 2.201-5.213 5.444-5.232 3.361 0 5.491 2.039 5.491 5.194v36.28c0 3.616-2.745 4.078-3.905 4.117h-.166zM42.47 38.988l1.728.096c.615.039 1.089.462 1.089.962v13.927c0 1.482.568 2.232 1.68 2.232v.962l.071-.962c.474 0 1.633-.039 1.633-2.193v-36.28c0-.982-.307-3.27-3.077-3.27-1.964 0-3.124 1.25-3.124 3.308v21.218zM17.88 28.139c-.662 0-1.183-.423-1.183-.962v-5.175c0-1.212-.023-2.481-.023-6.636-.048-.539.497-.962 1.16-.962.662 0 1.183.423 1.183.962 0 4.136 0 5.405.024 6.617v5.194c0 .539-.521.962-1.184.962h.024z" fill="#8A8A8A"/><path d="M24.863 58.129h-.236a4.221 4.221 0 01-2.746-.827c-.9-.693-1.396-1.732-1.396-2.924-.024-7.118-.024-14.235 0-21.353 0-1.077-.072-1.481-1.137-1.981-1.562-.731-2.556-2.52-2.627-3.81-.024-.538.473-.98 1.136-1 .616-.077 1.207.385 1.231.924.047.808.781 1.904 1.467 2.231 2.154 1.02 2.32 2.309 2.32 3.655-.047 7.118-.024 14.235 0 21.353 0 .654.237 1.193.663 1.52.308.23.686.327 1.136.307.615.039.97-.076 1.254-.307.427-.327.64-.866.663-1.52.024-7.118.024-14.235 0-21.353 0-1.346.166-2.635 2.32-3.655.733-.346 1.467-1.442 1.467-2.193 0-2 0-3.924.024-5.848 0-1.943.024-3.905.024-5.963 0-.539.52-.962 1.183-.962s1.183.423 1.183.962c0 2.077 0 4.02-.023 5.982 0 1.924-.024 3.829-.024 5.848 0 1.424-1.183 3.155-2.627 3.848-1.065.5-1.136.904-1.136 1.981.047 7.118.023 14.235 0 21.353 0 1.193-.497 2.231-1.397 2.924-.71.538-1.633.827-2.627.827l-.095-.02z" fill="#8A8A8A"/><path d="M22.425 25.619c-.662 0-1.183-.423-1.183-.962v-9.291c0-.539.52-.962 1.183-.962s1.184.423 1.184.962v9.291c0 .539-.52.962-1.184.962zm4.545 0c-.663 0-1.183-.423-1.183-.962v-9.291c0-.539.52-.962 1.183-.962s1.184.423 1.184.962v9.291c0 .539-.521.962-1.184.962z" fill="#8A8A8A"/><path d="M22.425 16.327c-.662 0-1.183-.423-1.183-.961 0-.539-.497-.924-1.089-.924-.591 0-1.089.423-1.089.924 0 .5-.52.961-1.183.961s-1.183-.423-1.183-.961c0-1.578 1.538-2.847 3.455-2.847 1.918 0 3.456 1.288 3.456 2.847 0 .538-.52.961-1.184.961z" fill="#8A8A8A"/><path d="M26.97 16.327c-.663 0-1.183-.423-1.183-.961 0-.539-.498-.924-1.09-.924-.591 0-1.088.423-1.088.924 0 .5-.52.961-1.184.961-.662 0-1.183-.423-1.183-.961 0-1.578 1.538-2.847 3.456-2.847 1.917 0 3.455 1.288 3.455 2.847 0 .538-.52.961-1.183.961z" fill="#8A8A8A"/><path d="M31.515 16.327c-.663 0-1.184-.423-1.184-.961 0-.539-.497-.924-1.089-.924-.591 0-1.088.423-1.088.924 0 .5-.521.961-1.184.961-.663 0-1.183-.423-1.183-.961 0-1.578 1.538-2.847 3.455-2.847 1.918 0 3.456 1.288 3.456 2.847 0 .538-.52.961-1.183.961zm-13.705 0c-.663 0-1.183-.423-1.183-.961 0-1.578 1.585-2.847 3.526-2.847.663 0 1.184.423 1.184.961 0 .539-.521.962-1.184.962-.662 0-1.16.423-1.16.924 0 .5-.52.961-1.183.961z" fill="#8A8A8A"/></svg>