<svg width="60" height="40" fill="none" xmlns="http://www.w3.org/2000/svg"><path d="M33.14 37.794C32.952 40 33.853 40 33.973 40h1.162c.07-.008.805.06 1.192-2.176l1.64-11.603-3.994-.358-.835 11.931zM44.286 23.22h-4.53l1.996 14.605c.298 2.176 1.005 2.159 1.43 2.176h1.193c.12-.01.715 0 .715-2.206l-.804-14.575zM20.74 28.495c6.259 0 6.14-8.823 0-8.823-6.08 0-6.35 8.823 0 8.823zM51.41 9.21a1.132 1.132 0 01-1.132-1.133c0-.625.506-1.102 1.132-1.102.626 0 1.103.477 1.103 1.102 0 .626-.477 1.133-1.103 1.133zm-18.27 29.3c0 .945.712 1.49.834 1.49h1.162c.063-.013.954 0 1.192-1.49l1.64-12.29-3.994-.357-.835 12.647zM19.07 26.22l-4.172 1.431 1.877 10.859C17.044 40 17.76 40 17.85 40h1.221c.181 0 .924 0 .865-1.49l-.864-12.29zm25.217-3h-4.53l1.996 15.29c.15 1.49 1.014 1.471 1.09 1.48l1.533.01c.131-.04.542-.19.69-1.492l-.78-15.289zm-6.32 3.367c6.648-.03 8.138-3.16 9.539-6.319 2.593-5.365 2.593-5.365 8.137-5.365 3.338 0 3.577-3.428 3.577-3.428l-7.69-7.63C52.78 2.623 53.526 1.967 52.78 0c-5.633 4.203-7.064 4.232-15.111 4.232H12.96c-2.623 0-4.977 1.223-4.977 4.8 0 4.947.06 8.673-2.325 11.832-2.832 0-4.382 1.282-5.067 4.173 7.75 0 9.448-4.262 9.448-16.006 0-1.252 1.49-1.252 1.49 0v8.555c0 5.693-2.98 6.885-2.98 9.478V38.51c0 1.49.694 1.49.894 1.49h1.312c.208 0 .983 0 1.192-1.49l1.222-9.3c7.6-5.365 15.171-2.593 24.799-2.623z" fill="#252525"/></svg>