<svg width="69" height="69" fill="none" xmlns="http://www.w3.org/2000/svg"><circle cx="34.5" cy="34.5" r="34.5" transform="rotate(-90 34.5 34.5)" fill="#B5325D"/><path d="M41.25 17.456a1.256 1.256 0 01-.046 1.776c-1.181 1.123-3.222 3.932-3.983 7.666a6.47 6.47 0 012.368 1.266 6.404 6.404 0 116.578 10.965 6.377 6.377 0 01-.358 4.182 6.393 6.393 0 01-4.014 3.526 6.405 6.405 0 11-12.772.1 6.405 6.405 0 01-3.904-7.403 6.406 6.406 0 01-1.52-11.006 6.406 6.406 0 017.543-.21c.45-.41.95-.749 1.486-1.011l-5.059-.343a7.327 7.327 0 01-6.815-7.81l7.31.497a7.331 7.331 0 016.774 6.375c.94-4.156 3.218-7.27 4.636-8.616a1.256 1.256 0 011.776.046zM29.652 30.34a3.891 3.891 0 10.423 6.19 6.398 6.398 0 01-.423-6.19zm2.176 7.993A6.428 6.428 0 0127.592 40a3.896 3.896 0 004.065 4.86 3.893 3.893 0 003.279-5.422 6.395 6.395 0 01-3.108-1.105zm5.663.79a6.378 6.378 0 01-.244 4.37 3.893 3.893 0 006.508-3.657 6.427 6.427 0 01-4.7-1.488 6.432 6.432 0 01-1.564.775zm3.33-2.578a3.892 3.892 0 10.334-6.404 6.393 6.393 0 01-.334 6.404zm-3.47 10.004a6.401 6.401 0 01-1.54-.969 6.426 6.426 0 01-4.29 1.796 3.894 3.894 0 107.774-.305 6.385 6.385 0 01-1.944-.522zm-5.452-15.081a3.89 3.89 0 003.438 5.54 3.89 3.89 0 001.673-7.445 3.892 3.892 0 00-5.11 1.907z" fill="#fff"/></svg>