<svg width="41" height="40" fill="none" xmlns="http://www.w3.org/2000/svg"><path d="M22.304 3.335c1.216-.005 2.432.008 3.648.037l.324.011c.373.014.741.03 1.186.05 1.774.084 2.984.364 4.045.775a8.12 8.12 0 012.954 1.924 8.18 8.18 0 011.921 2.951c.412 1.062.692 2.274.775 4.047.02.443.037.813.05 1.187l.01.323c.03 1.215.043 2.431.039 3.647l.001 1.243v2.183c.004 1.217-.008 2.433-.038 3.649l-.01.323c-.013.373-.03.742-.05 1.187-.083 1.773-.367 2.983-.777 4.045a8.14 8.14 0 01-1.921 2.953 8.192 8.192 0 01-2.954 1.922c-1.061.411-2.271.691-4.045.775-.445.02-.813.036-1.186.05l-.324.01c-1.216.03-2.432.042-3.648.038l-1.243.002h-2.182c-1.216.004-2.433-.009-3.648-.039l-.324-.01c-.395-.014-.79-.03-1.186-.05-1.774-.083-2.984-.366-4.047-.776a8.151 8.151 0 01-2.952-1.922A8.173 8.173 0 014.8 30.917c-.412-1.062-.692-2.272-.775-4.045-.019-.396-.035-.791-.05-1.187l-.008-.323a130.53 130.53 0 01-.042-3.649v-3.426c-.005-1.216.008-2.432.037-3.647l.011-.323c.014-.374.03-.744.05-1.187.084-1.775.364-2.983.775-4.047a8.133 8.133 0 011.927-2.95 8.162 8.162 0 012.95-1.925c1.063-.411 2.272-.691 4.047-.775l1.186-.05.324-.008c1.215-.03 2.43-.045 3.646-.042l3.427.002zm-1.713 8.333a8.334 8.334 0 100 16.665 8.333 8.333 0 100-16.665zm0 3.334A5 5 0 1120.592 25a5 5 0 110-10l-.001.002zm8.75-5.834a2.084 2.084 0 000 4.164 2.083 2.083 0 100-4.167v.003z" fill="#000"/></svg>