<svg width="40" height="40" fill="none" xmlns="http://www.w3.org/2000/svg"><mask id="a" fill="#fff"><rect x="2.857" y="2.857" width="34.286" height="34.286" rx="4"/></mask><rect x="2.857" y="2.857" width="34.286" height="34.286" rx="4" stroke="#252525" stroke-width="12" mask="url(#a)"/><path d="M21.713 3.335c1.217-.005 2.433.008 3.649.037l.323.011c.373.014.742.03 1.187.05 1.773.084 2.983.364 4.045.775a8.11 8.11 0 012.953 1.924 8.181 8.181 0 011.922 2.951c.411 1.062.691 2.274.775 4.047.02.443.036.813.05 1.187l.01.323c.03 1.215.042 2.431.038 3.647l.002 1.243v2.183c.004 1.217-.009 2.433-.039 3.649l-.01.323c-.013.373-.03.742-.05 1.187-.083 1.773-.366 2.983-.776 4.045a8.14 8.14 0 01-1.922 2.953 8.193 8.193 0 01-2.953 1.922c-1.062.411-2.272.691-4.045.775-.445.02-.814.036-1.187.05l-.323.01c-1.216.03-2.432.042-3.649.038l-1.243.002h-2.182a131.28 131.28 0 01-3.648-.039l-.323-.01a99.875 99.875 0 01-1.187-.05c-1.773-.083-2.983-.366-4.047-.776a8.151 8.151 0 01-2.951-1.922 8.174 8.174 0 01-1.924-2.953c-.411-1.062-.691-2.272-.775-4.045a124.05 124.05 0 01-.05-1.187l-.008-.323c-.03-1.216-.045-2.432-.042-3.649v-3.426c-.004-1.216.008-2.432.037-3.647l.012-.323c.013-.374.03-.744.05-1.187.083-1.775.363-2.983.775-4.047a8.133 8.133 0 011.926-2.95 8.162 8.162 0 012.95-1.925c1.064-.411 2.272-.691 4.047-.775l1.187-.05.323-.008c1.215-.03 2.431-.045 3.647-.042l3.426.002zM20 11.668a8.334 8.334 0 100 16.665 8.334 8.334 0 100-16.665zm0 3.334A5 5 0 1120.002 25a5 5 0 010-10l-.002.002zm8.75-5.834a2.083 2.083 0 000 4.164 2.083 2.083 0 000-4.167v.003z" fill="#252525"/></svg>