<svg width="32" height="36" fill="none" xmlns="http://www.w3.org/2000/svg"><path d="M26.49 3.175a1.17 1.17 0 01.062-1.16c.281-.44.827-.623 1.322-.446a.69.69 0 00.563-.034.743.743 0 00.371-.434c.034-.103.096-.234.175-.36.456-.686 1.373-.937 2.093-.577.433.217.737.594.866 1.063.124.462.046.954-.208 1.348-.09.131-.169.229-.247.297a.73.73 0 00-.253.52.74.74 0 00.19.543c.355.388.406.971.119 1.411-.22.343-.608.537-1.013.514a2.977 2.977 0 00-2.391.943l-.754.629a5.246 5.246 0 00-.5-.378 5.5 5.5 0 00-.552-.325l.264-.954a3.154 3.154 0 00-.107-2.6zM17.578 14.31c-.045.388-.124.783-.209 1.171-.01.052-.022.097-.033.149h-2.408l-.473-1.097.855-5.577.31-2.005c1.344 1.69 2.053 3.73 2.053 5.982-.005.468-.033.92-.095 1.377zM9.08 15.63a6.93 6.93 0 01-.27-.332c-.101-.131-.208-.257-.298-.388-.112-.154-.208-.32-.31-.48-.084-.137-.174-.274-.247-.411-.09-.166-.169-.343-.253-.515-.068-.143-.14-.285-.197-.428-.073-.177-.13-.366-.191-.549-.051-.148-.107-.291-.147-.44-.056-.194-.09-.388-.135-.583-.033-.148-.067-.29-.095-.445-.017-.109-.023-.223-.04-.332l3.669 2.583 2.554 1.806.22.514H9.08zm4.293-3.634L11.31 7.14 9.582 3.078c1.868.565 3.494 1.434 4.772 2.554l-.98 6.365zm-5.12-8.342l3.787 8.902-.653-.457-4.574-3.223c.017-.371.056-.743.112-1.12.197-1.354.642-2.725 1.328-4.102zm-3.1 4.634c.084 0 .169 0 .253.005-.011.115-.011.229-.017.349-.005.126-.017.257-.017.383-.01.303-.005.6.006.897.006.091.006.183.011.268.028.383.068.754.135 1.126l.051.251c.056.286.118.572.197.852l.101.348c.079.257.169.514.27.766.04.103.08.2.118.303.147.343.304.674.49 1 .017.028.04.062.056.09.135.24.276.475.433.704H.833c-.13 0-.26.011-.383.034A5.26 5.26 0 010 13.522C0 10.637 2.313 8.29 5.154 8.29zm15.85 26.243c0 .81-.647 1.468-1.446 1.468h-7.77a1.457 1.457 0 01-1.446-1.468v-1.446h10.662v1.446zm10.128-17.147c.152.177.225.4.197.628-.698 5.943-4.54 11.262-9.807 13.605H9.818C4.552 29.275.71 23.956.011 18.013c-.04-.325.13-.64.44-.811a.762.762 0 01.382-.097h29.669a.798.798 0 01.63.28zM26.8 13.997l-.253.234c-.023-.017-.04-.046-.062-.063l-1.677-1.12a.719.719 0 00-1.002.211.744.744 0 00.209 1.018l1.445.965-.416.389h-6.217a.158.158 0 00.005-.052c.04-.2.068-.394.102-.594.022-.137.05-.28.073-.417l1.44-4.205.647.428a.72.72 0 001.002-.211.743.743 0 00-.208-1.017l-.771-.514a3.685 3.685 0 014.968-.772 3.807 3.807 0 011.682 3.177 3.856 3.856 0 01-.967 2.543z" fill="#fff"/></svg>