<svg width="29" height="40" fill="none" xmlns="http://www.w3.org/2000/svg"><path d="M27.87 14.387L24.09 1.552a1.39 1.39 0 00-1.33-.996H6.13a1.389 1.389 0 00-1.331.996l-3.78 12.835a11.017 11.017 0 003.024 11.228 15.176 15.176 0 009.012 4.043v7.009H7.5a1.389 1.389 0 100 2.777h13.889a1.389 1.389 0 000-2.777h-5.556v-7.009a15.172 15.172 0 009.013-4.043 11.021 11.021 0 003.024-11.228zM7.168 3.333h14.553l3.487 11.839c.016.052.03.104.044.156-3.719 1.334-7.906-.278-10.18-1.429-4.372-2.213-7.845-2.494-10.405-2.07l2.501-8.496z" fill="#252525"/></svg>