<svg width="29" height="40" fill="none" xmlns="http://www.w3.org/2000/svg"><path d="M28.284 14.227L24.413 1.025A1.43 1.43 0 0023.049 0H6.017a1.419 1.419 0 00-1.364 1.025L.783 14.227a11.378 11.378 0 00-.093 6.218 11.34 11.34 0 003.19 5.33 15.513 15.513 0 009.23 4.159v7.209H7.42c-.377 0-.739.15-1.006.418a1.432 1.432 0 000 2.02A1.42 1.42 0 007.42 40h14.226c.377 0 .739-.15 1.006-.418a1.432 1.432 0 000-2.02 1.42 1.42 0 00-1.006-.42h-5.69v-7.208a15.51 15.51 0 009.23-4.159 11.345 11.345 0 003.19-5.33 11.38 11.38 0 00-.092-6.218zM7.08 2.857h14.904l3.573 12.177c.016.053.03.107.044.16 2.027 7.255-7.421 11.7-10.934 11.11-4.323.544-13.886-2.857-10.15-14.71L7.08 2.857z" fill="#252525"/></svg>