<svg width="24" height="24" fill="none" xmlns="http://www.w3.org/2000/svg"><g clip-path="url(#clip0_398_1541)"><path fill-rule="evenodd" clip-rule="evenodd" d="M3 4.5A1.5 1.5 0 014.5 3h15A1.5 1.5 0 0121 4.5v2.086A2 2 0 0120.414 8L15 13.414v7.424a1.1 1.1 0 01-1.592.984l-3.717-1.858A1.25 1.25 0 019 18.846v-5.432L3.586 8A2 2 0 013 6.586V4.5zM5 5v1.586l5.56 5.56a1.502 1.502 0 01.44 1.061v5.175l2 1v-6.175c0-.398.158-.78.44-1.06L19 6.585V5H5z" fill="#000"/></g><defs><clipPath id="clip0_398_1541"><path fill="#fff" d="M0 0h24v24H0z"/></clipPath></defs></svg>