<svg width="40" height="40" fill="none" xmlns="http://www.w3.org/2000/svg"><path d="M27.813 5C24.585 5 21.76 6.388 20 8.733 18.24 6.387 15.414 5 12.187 5A9.698 9.698 0 002.5 14.688c0 10.937 16.217 19.79 16.908 20.156a1.25 1.25 0 001.184 0c.69-.366 16.908-9.219 16.908-20.157A9.699 9.699 0 0027.812 5zM20 32.313C17.147 30.65 5 23.076 5 14.686A7.197 7.197 0 0112.188 7.5c3.039 0 5.59 1.619 6.656 4.219a1.25 1.25 0 002.312 0C22.222 9.114 24.773 7.5 27.813 7.5A7.197 7.197 0 0135 14.688c0 8.376-12.15 15.96-15 17.624z" fill="#252525"/></svg>