<svg width="41" height="40" fill="none" xmlns="http://www.w3.org/2000/svg"><path d="M9.149 6.667h22.5a5.417 5.417 0 015.408 5.11l.008.306v15.834a5.417 5.417 0 01-5.11 5.408l-.306.008h-22.5a5.417 5.417 0 01-5.409-5.11l-.008-.306V12.083a5.417 5.417 0 015.11-5.408l.307-.008zm25.417 8.955l-13.584 7.15a1.25 1.25 0 01-1.005.071l-.16-.07-13.585-7.15v12.294a2.916 2.916 0 002.677 2.906l.24.01h22.5a2.916 2.916 0 002.907-2.678l.01-.238V15.622zm-2.917-6.455h-22.5a2.917 2.917 0 00-2.907 2.676l-.01.24v.715L20.4 20.253l14.166-7.456v-.714a2.917 2.917 0 00-2.678-2.906l-.238-.01z" fill="#252525"/></svg>