<svg width="40" height="40" fill="none" xmlns="http://www.w3.org/2000/svg"><path d="M20 10a6.25 6.25 0 100 12.5A6.25 6.25 0 0020 10zm0 10a3.75 3.75 0 110-7.5 3.75 3.75 0 010 7.5zm0-17.5A13.766 13.766 0 006.25 16.25c0 4.906 2.267 10.106 6.563 15.04a39.715 39.715 0 006.476 5.983 1.25 1.25 0 001.434 0 39.711 39.711 0 006.465-5.984c4.289-4.933 6.562-10.133 6.562-15.039A13.765 13.765 0 0020 2.5zm0 32.188C17.417 32.656 8.75 25.194 8.75 16.25a11.25 11.25 0 1122.5 0c0 8.942-8.667 16.406-11.25 18.438z" fill="#252525"/></svg>