<svg width="40" height="40" fill="none" xmlns="http://www.w3.org/2000/svg"><path fill-rule="evenodd" clip-rule="evenodd" d="M20 4.583a10.417 10.417 0 100 20.834 10.417 10.417 0 000-20.834zM7.083 15a12.917 12.917 0 1125.042 4.462l3.813 3.946c.429.445.785.815 1.052 1.124.263.303.533.65.692 1.053.556 1.408.11 3.075-1.232 3.895-.383.237-.823.333-1.2.397-.387.066-.877.116-1.455.178l-.04.003c-.765.082-.91.107-1.008.145a1.139 1.139 0 00-.662.695c-.043.117-.068.289-.147 1.074l-.003.036c-.06.602-.11 1.107-.172 1.504-.06.383-.15.823-.371 1.208-.784 1.37-2.432 1.883-3.862 1.278-.402-.17-.743-.455-1.033-.725-.3-.276-.655-.646-1.084-1.091l-.033-.034L20 28.483l-5.387 5.675-.025.025c-.428.445-.785.815-1.083 1.092-.292.27-.633.555-1.033.725-1.434.605-3.08.092-3.864-1.278-.22-.385-.311-.824-.371-1.21-.062-.395-.112-.9-.17-1.5l-.005-.039c-.077-.785-.104-.955-.145-1.073a1.138 1.138 0 00-.662-.695c-.1-.038-.245-.063-1.01-.145l-.038-.003c-.579-.062-1.069-.114-1.455-.179-.377-.061-.817-.16-1.202-.396-1.34-.82-1.787-2.487-1.232-3.895.16-.404.429-.75.692-1.054.267-.308.623-.678 1.053-1.123l3.812-3.947A12.891 12.891 0 017.083 15zm1.964 6.848l-3.16 3.272c-.46.477-.77.797-.987 1.048a2.017 2.017 0 00-.257.334c-.15.383 0 .706.199.838.015.005.1.033.323.072.3.05.717.095 1.343.161l.125.014c.567.058 1.069.111 1.517.283a3.637 3.637 0 012.12 2.187c.16.448.21.955.267 1.545l.013.125c.063.648.107 1.081.157 1.4.043.27.076.356.078.361.133.225.407.335.708.209 0 0 .084-.045.31-.257.242-.223.55-.542 1.009-1.017l.003-.003 4.533-4.777a12.928 12.928 0 01-8.301-5.795zm13.605 5.797a12.93 12.93 0 008.303-5.797l3.16 3.272c.46.477.768.797.985 1.048.205.234.252.325.257.334.15.383 0 .706-.197.838-.017.005-.1.033-.323.072-.302.05-.717.095-1.345.161l-.125.014c-.565.058-1.069.111-1.517.283a3.641 3.641 0 00-2.12 2.187c-.16.448-.21.955-.267 1.545l-.013.125a27.314 27.314 0 01-.157 1.4c-.041.27-.076.356-.076.361-.134.225-.409.337-.712.209h.003s-.083-.045-.311-.257a28.46 28.46 0 01-1.009-1.017l-.003-.003-4.533-4.775zm-2.65-15.922c-.099.169-.207.362-.334.59l-.163.294a10.47 10.47 0 00-.037.066c-.131.24-.348.637-.71.912-.368.28-.813.377-1.071.433l-.072.015-.318.072c-.294.067-.53.12-.734.172.132.161.304.365.527.626l.217.254.05.056c.18.209.471.542.605.975.133.427.086.867.058 1.144a6.927 6.927 0 00-.008.078l-.034.338c-.025.256-.048.511-.068.767.173-.077.37-.167.605-.275l.298-.137.067-.033c.24-.112.657-.307 1.12-.307.465 0 .88.195 1.12.309l.067.031.3.137c.233.108.43.2.605.275a59.626 59.626 0 00-.07-.767l-.034-.338a5.196 5.196 0 00-.008-.078c-.028-.279-.073-.717.058-1.144.134-.433.425-.766.605-.975l.05-.056.217-.254c.223-.261.395-.465.528-.626-.203-.05-.441-.105-.733-.172l-.318-.072-.072-.016c-.26-.055-.703-.152-1.073-.434-.362-.273-.579-.67-.709-.908l-.038-.068-.163-.294c-.127-.228-.234-.421-.332-.59h.002zm-1.647-2.056c.287-.375.808-.917 1.643-.917.837 0 1.359.542 1.645.917.274.356.55.851.834 1.36l.036.068.165.295.094.167.165.038.316.072.08.016c.547.125 1.089.247 1.505.412.462.182 1.084.533 1.325 1.308.237.759-.061 1.402-.321 1.817-.242.383-.607.81-.984 1.248l-.05.059-.216.255-.137.161.02.225.033.339.007.076c.058.587.113 1.154.092 1.607-.02.477-.134 1.197-.78 1.685-.667.507-1.4.397-1.867.262-.43-.122-.937-.357-1.45-.592l-.072-.033-.298-.139-.142-.065-.141.067-.297.137-.073.033c-.512.235-1.02.47-1.45.592-.467.133-1.2.245-1.867-.262-.645-.488-.758-1.208-.78-1.683-.02-.455.033-1.022.092-1.609l.008-.076.033-.339.02-.225a15.112 15.112 0 00-.138-.161l-.217-.255-.05-.059c-.375-.438-.741-.866-.983-1.25-.26-.413-.557-1.056-.322-1.816.242-.772.865-1.125 1.325-1.307.417-.165.96-.287 1.507-.41l.077-.017.318-.073.167-.038.093-.167.163-.295.039-.068c.283-.509.558-1.004.833-1.36z" fill="#252525"/></svg>