<svg width="35" height="34" fill="none" xmlns="http://www.w3.org/2000/svg"><path d="M17.085 4.25c3.278 0 6.312.578 8.582 1.571 1.132.496 2.138 1.122 2.879 1.89.687.708 1.197 1.598 1.277 2.63l.012.284v14.167c0 1.153-.54 2.139-1.29 2.914-.74.768-1.746 1.394-2.878 1.89-2.27.991-5.304 1.57-8.582 1.57-3.278 0-6.313-.577-8.582-1.57-1.132-.496-2.138-1.122-2.88-1.89-.686-.709-1.196-1.598-1.277-2.63l-.011-.284V10.625c0-1.153.54-2.14 1.289-2.914.74-.768 1.747-1.394 2.879-1.89 2.27-.992 5.304-1.571 8.582-1.571zM27 21.827c-.429.257-.875.486-1.334.685-2.27.992-5.304 1.571-8.582 1.571-3.278 0-6.313-.578-8.582-1.57a11.5 11.5 0 01-1.335-.686v2.965c0 .215.094.532.493.945.405.419 1.06.86 1.978 1.263 1.833.802 4.464 1.333 7.446 1.333 2.982 0 5.613-.53 7.446-1.333.918-.402 1.572-.844 1.977-1.263.4-.411.493-.73.493-.945v-2.965zm0-7.084c-.429.258-.875.487-1.334.686-2.27.992-5.304 1.571-8.582 1.571-3.278 0-6.313-.578-8.582-1.571a11.5 11.5 0 01-1.335-.686v2.965c0 .216.094.533.493.945.405.42 1.06.862 1.978 1.264 1.833.802 4.464 1.333 7.446 1.333 2.982 0 5.613-.531 7.446-1.333.918-.402 1.572-.844 1.977-1.264.4-.41.493-.73.493-.945v-2.965zm-9.916-7.66c-2.982 0-5.613.532-7.446 1.333-.918.403-1.573.845-1.978 1.264-.4.41-.493.73-.493.945 0 .215.094.533.493.945.405.42 1.06.861 1.978 1.264 1.833.801 4.464 1.333 7.446 1.333 2.982 0 5.613-.532 7.446-1.333.918-.403 1.572-.845 1.977-1.264.4-.41.493-.73.493-.945 0-.215-.093-.533-.493-.945-.405-.42-1.06-.861-1.977-1.264-1.833-.801-4.464-1.333-7.446-1.333z" fill="#000"/></svg>