<svg width="40" height="40" fill="none" xmlns="http://www.w3.org/2000/svg"><path fill-rule="evenodd" clip-rule="evenodd" d="M24.794 27.613a15.106 15.106 0 01-10.801 3.337 15.183 15.183 0 01-10.105-5.113A15.645 15.645 0 01.006 15.071 15.619 15.619 0 014.47 4.54 15.154 15.154 0 0114.841.005c3.9-.11 7.694 1.3 10.601 3.942a15.59 15.59 0 015.035 10.262 15.668 15.668 0 01-3.286 10.968l11.66 11.84a1.723 1.723 0 01.54 1.23 1.744 1.744 0 01-.496 1.248 1.694 1.694 0 01-1.23.504 1.676 1.676 0 01-1.21-.548l-11.66-11.84zM6.87 24.026a12.116 12.116 0 01-3.248-6.172 12.231 12.231 0 01.674-6.964 12.02 12.02 0 014.37-5.411 11.745 11.745 0 016.592-2.036 11.744 11.744 0 016.596 2.027 12.018 12.018 0 014.377 5.405c.9 2.201 1.138 4.625.683 6.963a12.117 12.117 0 01-3.24 6.176l-.012.012-.011.009a11.781 11.781 0 01-8.392 3.521 11.782 11.782 0 01-8.389-3.53z" fill="#252525"/></svg>