<svg width="40" height="40" fill="none" xmlns="http://www.w3.org/2000/svg"><path d="M32.94 22.72c.462.001.91-.162 1.263-.46a1.98 1.98 0 00.674-1.168h0l1.904-10.635.106-.588H8.472l.106.589 2.127 11.85.074.412H32.94zm0 0h-.001l.001-.5m0 .5h0v-.5m0 0c.344.001.677-.12.941-.342.264-.223.443-.532.504-.875L32.94 22.22zm5.84-13.964l.002.002a.99.99 0 01.196.38l.483-.129-.483.128a1 1 0 01.018.428v.001l-2.224 12.379h0a3.957 3.957 0 01-1.336 2.323c-.7.591-1.58.914-2.49.915 0 0 0 0 0 0H11.132l.105.588.58 3.227c.082.455.319.868.671 1.166.353.298.8.462 1.26.462h17.71c.914 0 1.806.274 2.566.788a4.672 4.672 0 011.704 2.102c.35.857.442 1.8.263 2.71a4.705 4.705 0 01-1.267 2.4 4.602 4.602 0 01-2.365 1.28 4.563 4.563 0 01-2.667-.266 4.635 4.635 0 01-2.074-1.724 4.73 4.73 0 01-.78-2.605v0a4.681 4.681 0 01.448-2.008l.336-.714H17.74l.334.713a4.74 4.74 0 01-.516 4.878 4.627 4.627 0 01-2.018 1.516 4.563 4.563 0 01-2.5.222 4.598 4.598 0 01-2.247-1.136 4.694 4.694 0 01-1.33-2.163 4.746 4.746 0 01-.016-2.55 4.696 4.696 0 011.303-2.18l.342-.323-.303-.361a3.968 3.968 0 01-.865-1.853v-.001L5.247 2.874l-.075-.411h-3.71a.954.954 0 01-.679-.286.99.99 0 010-1.392.954.954 0 01.68-.285h3.3s0 0 0 0c.567 0 1.116.201 1.553.57.436.37.732.882.834 1.451h0l.895 4.974.074.412h29.923a.948.948 0 01.738.35zM13.375 37.481l.098-.49-.098.49a2.669 2.669 0 001.56-.156l-.194-.461.194.461a2.7 2.7 0 001.209-1.004 2.742 2.742 0 00-.335-3.432 2.676 2.676 0 00-3.407-.34c-.443.3-.788.726-.991 1.223a2.748 2.748 0 00.583 2.962c.376.38.857.641 1.38.747zm17.558 0l.099-.49-.099.49a2.67 2.67 0 001.56-.156 2.7 2.7 0 001.21-1.004 2.742 2.742 0 00-.335-3.432 2.676 2.676 0 00-3.407-.34 2.72 2.72 0 00-.992 1.223 2.748 2.748 0 00.583 2.962c.377.38.857.641 1.381.747z" fill="#252525" stroke="#252525"/></svg>