<svg width="44" height="40" fill="none" xmlns="http://www.w3.org/2000/svg"><path fill-rule="evenodd" clip-rule="evenodd" d="M2.239 34.359V15.897h3.077V34.36a2.564 2.564 0 002.564 2.564h28.718a2.565 2.565 0 002.564-2.564V15.897h3.077V34.36A5.641 5.641 0 0136.598 40H7.88a5.641 5.641 0 01-5.641-5.641z" fill="#252525"/><path fill-rule="evenodd" clip-rule="evenodd" d="M15.856 22.165a5.641 5.641 0 013.989-1.652h4.103a5.641 5.641 0 015.64 5.64v12.309h-3.076V26.154a2.564 2.564 0 00-2.564-2.564h-4.103a2.564 2.564 0 00-2.564 2.564v12.308h-3.077V26.154c0-1.496.594-2.931 1.652-3.989zM13.644 0h17.19l1.081 12.973a2.723 2.723 0 01-1.32 2.58l-.003.003c-.824.487-2.44 1.394-3.798 1.812-1.627.5-3.07.776-4.555.776-1.485 0-2.929-.275-4.556-.776-1.357-.418-2.973-1.325-3.795-1.809l-.005-.003a2.723 2.723 0 01-1.32-2.584L13.643 0zm2.83 3.077l-.828 9.946c.832.481 2.043 1.127 2.943 1.404 1.436.443 2.563.64 3.65.64 1.086 0 2.214-.197 3.65-.64.9-.277 2.113-.924 2.942-1.406l-.828-9.944H16.475z" fill="#252525"/><path fill-rule="evenodd" clip-rule="evenodd" d="M37.561 0h-9.973L28.7 13.363a2.723 2.723 0 001.31 2.119l.005.003c.792.473 2.501 1.447 3.92 1.883 1.259.387 2.721.49 4.02.486a29.96 29.96 0 003.485-.235l.01-.001a2.708 2.708 0 002.245-3.455L40.224 2.008A2.77 2.77 0 0037.561 0zm-.231 3.077l3.296 11.54a26.19 26.19 0 01-2.68.16c-1.178.004-2.28-.097-3.106-.35-.958-.295-2.264-1.006-3.087-1.49l-.821-9.86h6.398zM6.758 0h9.973l-1.113 13.363a2.724 2.724 0 01-1.31 2.119l-.005.003c-.792.473-2.501 1.447-3.92 1.883-1.259.387-2.721.49-4.02.486a29.826 29.826 0 01-3.485-.235l-.01-.001a2.708 2.708 0 01-2.245-3.455L4.095 2.008A2.77 2.77 0 016.758 0zm.232 3.077l-3.297 11.54a26.19 26.19 0 002.68.16c1.178.004 2.281-.097 3.106-.35.958-.295 2.264-1.006 3.087-1.49l.821-9.86H6.99z" fill="#252525"/></svg>