<svg width="41" height="40" fill="none" xmlns="http://www.w3.org/2000/svg"><path d="M34.514 7.5h-6.25V6.25a3.75 3.75 0 00-3.75-3.75h-7.5a3.75 3.75 0 00-3.75 3.75V7.5h-6.25a1.25 1.25 0 000 2.5h1.25v22.5a2.5 2.5 0 002.5 2.5h20a2.5 2.5 0 002.5-2.5V10h1.25a1.25 1.25 0 100-2.5zm-18.75-1.25A1.25 1.25 0 0117.014 5h7.5a1.25 1.25 0 011.25 1.25V7.5h-10V6.25zm15 26.25h-20V10h20v22.5zm-12.5-16.25v10a1.25 1.25 0 11-2.5 0v-10a1.25 1.25 0 112.5 0zm7.5 0v10a1.25 1.25 0 11-2.5 0v-10a1.25 1.25 0 112.5 0z" fill="#252525"/></svg>