<svg width="54" height="40" fill="none" xmlns="http://www.w3.org/2000/svg"><path d="M.443 4.839A4.839 4.839 0 015.282 0h29.032a4.839 4.839 0 014.839 4.839v4.838h3.29a4.838 4.838 0 013.774 1.816l4.778 5.968a4.839 4.839 0 011.061 3.026v6.932a4.838 4.838 0 01-4.839 4.84h-1.612a6.452 6.452 0 01-12.904 0H16.572a6.453 6.453 0 11-12.897-.275 4.839 4.839 0 01-3.232-4.565V4.84zM4.617 28.89a6.45 6.45 0 0111.09.142h17.859a6.483 6.483 0 012.361-2.361V4.839a1.613 1.613 0 00-1.613-1.613H5.282a1.613 1.613 0 00-1.613 1.613v22.58a1.613 1.613 0 00.948 1.471zm34.536-3.084a6.451 6.451 0 015.587 3.226h2.477a1.613 1.613 0 001.613-1.613v-6.935c0-.366-.125-.721-.355-1.007l-4.774-5.967a1.613 1.613 0 00-1.258-.607h-3.29v12.903zM10.12 29.032a3.226 3.226 0 100 6.452 3.226 3.226 0 000-6.452zm29.032 0a3.226 3.226 0 100 6.452 3.226 3.226 0 000-6.452z" fill="#252525"/></svg>