<svg width="40" height="40" fill="none" xmlns="http://www.w3.org/2000/svg"><path d="M32.083 14.948L28.68 3.397a1.25 1.25 0 00-1.198-.897H12.517a1.25 1.25 0 00-1.198.897L7.917 14.948a9.916 9.916 0 002.722 10.105 13.654 13.654 0 008.111 3.64V35h-5a1.25 1.25 0 000 2.5h12.5a1.25 1.25 0 000-2.5h-5v-6.308a13.658 13.658 0 008.11-3.639 9.915 9.915 0 002.723-10.105zM13.452 5h13.096l3.14 10.655.039.14c-3.347 1.2-7.116-.25-9.161-1.286-3.936-1.992-7.061-2.245-9.366-1.864L13.452 5zm14.204 18.227a11.202 11.202 0 01-15.312 0 7.43 7.43 0 01-2.031-7.572l.07-.238c1.875-.634 4.855-.803 9.051 1.324 1.743.882 4.557 2.007 7.568 2.007a10.724 10.724 0 002.976-.406 7.375 7.375 0 01-2.322 4.885z" fill="#252525"/></svg>