<svg width="71" height="70" viewBox="0 0 71 70" fill="none" xmlns="http://www.w3.org/2000/svg">
<circle cx="35.3735" cy="35" r="35" fill="white"/>
<path d="M42.5065 17.5882C42.6212 17.7089 42.7111 17.8511 42.7708 18.0066C42.8306 18.162 42.8592 18.3277 42.8549 18.4942C42.8507 18.6607 42.8136 18.8248 42.7459 18.977C42.6783 19.1292 42.5813 19.2665 42.4605 19.3812C41.2672 20.5151 39.2071 23.3521 38.4386 27.1224C39.316 27.3764 40.1304 27.8116 40.8291 28.4C41.5568 27.9053 42.3779 27.5644 43.242 27.3981C44.1061 27.2318 44.995 27.2436 45.8544 27.4328C46.7138 27.6221 47.5255 27.9847 48.2398 28.4985C48.9542 29.0124 49.5561 29.6666 50.0088 30.4212C50.4615 31.1758 50.7554 32.0148 50.8726 32.8869C50.9897 33.7591 50.9276 34.6459 50.6901 35.4932C50.4525 36.3405 50.0446 37.1304 49.4911 37.8145C48.9377 38.4986 48.2504 39.0626 47.4714 39.4719C47.8307 40.8799 47.7031 42.368 47.1094 43.6942C46.7308 44.5448 46.1726 45.3034 45.4731 45.918C44.7737 46.5326 43.9496 46.9886 43.0574 47.2547C43.1301 48.1412 43.0191 49.0331 42.7314 49.8748C42.4437 50.7164 41.9855 51.4896 41.3853 52.1461C40.7852 52.8026 40.0561 53.3282 39.2436 53.6901C38.431 54.052 37.5526 54.2423 36.6632 54.2492C35.7737 54.2561 34.8924 54.0795 34.0744 53.7303C33.2563 53.3811 32.5191 52.8669 31.9088 52.2198C31.2986 51.5727 30.8284 50.8067 30.5276 49.9696C30.2269 49.1325 30.1021 48.2424 30.161 47.3549C28.7169 46.7888 27.5244 45.7225 26.8009 44.3505C26.0773 42.9785 25.871 41.3922 26.2195 39.8807C25.3767 39.5408 24.6151 39.0271 23.9842 38.3731C23.3533 37.7191 22.8674 36.9395 22.5581 36.0851C22.2487 35.2306 22.123 34.3206 22.189 33.4143C22.255 32.508 22.5113 31.6258 22.9411 30.8252C23.371 30.0246 23.9647 29.3236 24.6837 28.7679C25.4027 28.2122 26.2307 27.8142 27.1138 27.6C27.9969 27.3858 28.9152 27.3602 29.8089 27.5247C30.7026 27.6893 31.5515 28.0403 32.3004 28.555C32.754 28.1422 33.2595 27.7998 33.8013 27.5347L28.6929 27.1884C27.7234 27.1226 26.7762 26.8664 25.9057 26.4346C25.0351 26.0027 24.2581 25.4036 23.6191 24.6714C22.9801 23.9392 22.4916 23.0883 22.1815 22.1673C21.8713 21.2463 21.7456 20.2733 21.8116 19.3037L29.1935 19.8049C30.902 19.9211 32.5173 20.6261 33.7643 21.7998C35.0113 22.9735 35.8127 24.5433 36.0321 26.2416C36.9811 22.0451 39.2821 18.9017 40.7135 17.5422C40.8342 17.4275 40.9764 17.3377 41.1319 17.2779C41.2873 17.2181 41.453 17.1895 41.6195 17.1938C41.786 17.1981 41.9501 17.2351 42.1023 17.3028C42.2544 17.3704 42.3918 17.4674 42.5065 17.5882ZM30.7958 30.5984C30.184 30.1975 29.4724 29.9753 28.7413 29.9568C28.0101 29.9383 27.2882 30.1242 26.6569 30.4937C26.0256 30.8631 25.51 31.4014 25.168 32.0479C24.826 32.6945 24.6712 33.4237 24.7211 34.1534C24.771 34.8831 25.0235 35.5844 25.4503 36.1785C25.8771 36.7725 26.4611 37.2356 27.1368 37.5157C27.8125 37.7958 28.5529 37.8818 29.2748 37.764C29.9967 37.6462 30.6713 37.3293 31.2229 36.8489C30.6273 35.9289 30.2756 34.8724 30.2009 33.7789C30.1261 32.6854 30.3309 31.5909 30.7958 30.5984ZM32.9935 38.6693C31.8206 39.7331 30.2992 40.3315 28.7158 40.3516C28.5585 40.9573 28.5481 41.5918 28.6854 42.2023C28.8227 42.8128 29.1038 43.3817 29.5052 43.8617C29.9067 44.3417 30.4169 44.719 30.9936 44.9621C31.5702 45.2052 32.1965 45.3071 32.8204 45.2594C33.4444 45.2117 34.0479 45.0157 34.5809 44.6878C35.1139 44.3599 35.5608 43.9095 35.8846 43.374C36.2085 42.8385 36.3998 42.2335 36.4427 41.6092C36.4856 40.9849 36.3788 40.3594 36.1313 39.7846C35.0058 39.6936 33.9239 39.309 32.9935 38.6693ZM38.7115 39.4668C39.1522 40.9203 39.0649 42.4828 38.4651 43.8782C39.0729 44.4693 39.8556 44.8479 40.6963 44.9577C41.537 45.0674 42.3907 44.9023 43.1298 44.4871C43.869 44.0718 44.4541 43.4286 44.7977 42.6535C45.1413 41.8784 45.225 41.013 45.0363 40.1864C44.1854 40.2606 43.3283 40.1661 42.5139 39.9083C41.6996 39.6506 40.9442 39.2346 40.291 38.6843C39.8025 39.0157 39.2711 39.2789 38.7115 39.4668ZM42.074 36.8637C42.642 37.2998 43.3185 37.5724 44.0303 37.652C44.742 37.7316 45.462 37.6152 46.1124 37.3153C46.7628 37.0154 47.3189 36.5436 47.7206 35.9506C48.1223 35.3577 48.3543 34.6662 48.3916 33.951C48.4289 33.2358 48.27 32.524 47.9322 31.8925C47.5943 31.261 47.0903 30.7338 46.4746 30.368C45.8589 30.0021 45.1549 29.8115 44.4387 29.8166C43.7225 29.8218 43.0214 30.0226 42.411 30.3973C42.9295 31.4093 43.1714 32.5403 43.1122 33.6758C43.053 34.8113 42.6948 35.9111 42.074 36.8637ZM38.5697 46.9645C38.0075 46.714 37.484 46.3846 37.0149 45.9861C35.848 47.1103 34.3027 47.7573 32.6828 47.7997C32.6821 48.3294 32.7883 48.8538 32.9953 49.3414C33.2023 49.829 33.5056 50.2697 33.8872 50.6372C34.2687 51.0046 34.7206 51.2911 35.2157 51.4795C35.7107 51.6679 36.2388 51.7544 36.7681 51.7336C37.2974 51.7128 37.817 51.5853 38.2958 51.3587C38.7746 51.1321 39.2026 50.8111 39.5542 50.4149C39.9058 50.0187 40.1737 49.5555 40.3419 49.0532C40.51 48.5509 40.5749 48.0198 40.5326 47.4918C39.8705 47.4227 39.2101 47.2502 38.5697 46.9645ZM33.0649 31.7372C32.8436 32.21 32.7188 32.7222 32.6977 33.2438C32.6766 33.7654 32.7596 34.286 32.9419 34.7751C33.1242 35.2643 33.4022 35.7122 33.7595 36.0928C34.1168 36.4733 34.5464 36.7789 35.0231 36.9916C35.4998 37.2043 36.0141 37.3199 36.536 37.3316C37.0579 37.3433 37.5769 37.251 38.0627 37.0599C38.5485 36.8689 38.9914 36.5829 39.3655 36.2188C39.7395 35.8547 40.0373 35.4197 40.2414 34.9393C40.6442 33.9912 40.6586 32.923 40.2816 31.9644C39.9046 31.0058 39.1663 30.2336 38.2257 29.8139C37.285 29.3941 36.2172 29.3605 35.252 29.7202C34.2868 30.08 33.5014 30.8042 33.0649 31.7372Z" fill="#B5325D"/>
</svg>
