<svg width="24" height="24" viewBox="0 0 24 24" fill="none" xmlns="http://www.w3.org/2000/svg">
<path d="M24.002 12C24.002 5.37188 18.6301 0 12.002 0C5.37383 0 0.00195312 5.37188 0.00195312 12C0.00195312 17.625 3.87852 22.35 9.10508 23.6484V15.6656H6.63008V12H9.10508V10.4203C9.10508 6.3375 10.952 4.44375 14.9645 4.44375C15.7238 4.44375 17.0363 4.59375 17.5754 4.74375V8.0625C17.2941 8.03438 16.802 8.01562 16.1879 8.01562C14.2191 8.01562 13.4598 8.76094 13.4598 10.6969V12H17.3785L16.7035 15.6656H13.4551V23.9109C19.3988 23.1938 24.002 18.1359 24.002 12Z" fill="#404E3B"/>
</svg>
