<svg width="24" height="24" viewBox="0 0 24 24" fill="none" xmlns="http://www.w3.org/2000/svg">
<path d="M12.0046 5.8467C8.59939 5.8467 5.85271 8.594 5.85271 12C5.85271 15.406 8.59939 18.1533 12.0046 18.1533C15.4099 18.1533 18.1566 15.406 18.1566 12C18.1566 8.594 15.4099 5.8467 12.0046 5.8467ZM12.0046 16.0004C9.80407 16.0004 8.00508 14.2064 8.00508 12C8.00508 9.7936 9.79872 7.99955 12.0046 7.99955C14.2105 7.99955 16.0042 9.7936 16.0042 12C16.0042 14.2064 14.2052 16.0004 12.0046 16.0004ZM19.8431 5.595C19.8431 6.39295 19.2006 7.03024 18.4082 7.03024C17.6104 7.03024 16.9733 6.38759 16.9733 5.595C16.9733 4.80241 17.6158 4.15977 18.4082 4.15977C19.2006 4.15977 19.8431 4.80241 19.8431 5.595ZM23.9176 7.05166C23.8266 5.12909 23.3876 3.42608 21.9794 2.02298C20.5766 0.619882 18.874 0.180743 16.9519 0.0843468C14.9708 -0.0281156 9.03307 -0.0281156 7.05204 0.0843468C5.13525 0.175388 3.43263 0.614526 2.02449 2.01763C0.616343 3.42073 0.182656 5.12373 0.0862811 7.0463C-0.0261562 9.02778 -0.0261562 14.9669 0.0862811 16.9483C0.177302 18.8709 0.616343 20.5739 2.02449 21.977C3.43263 23.3801 5.1299 23.8193 7.05204 23.9157C9.03307 24.0281 14.9708 24.0281 16.9519 23.9157C18.874 23.8246 20.5766 23.3855 21.9794 21.977C23.3822 20.5739 23.8213 18.8709 23.9176 16.9483C24.0301 14.9669 24.0301 9.03314 23.9176 7.05166ZM21.3583 19.0744C20.9407 20.1241 20.1322 20.9327 19.0775 21.3558C17.498 21.9824 13.7501 21.8378 12.0046 21.8378C10.2592 21.8378 6.50591 21.977 4.93179 21.3558C3.88238 20.9381 3.0739 20.1294 2.65092 19.0744C2.02449 17.4946 2.16905 13.7458 2.16905 12C2.16905 10.2542 2.02984 6.50006 2.65092 4.92558C3.06855 3.87593 3.87702 3.06728 4.93179 2.6442C6.51127 2.01763 10.2592 2.16222 12.0046 2.16222C13.7501 2.16222 17.5033 2.02298 19.0775 2.6442C20.1269 3.06192 20.9354 3.87058 21.3583 4.92558C21.9848 6.50541 21.8402 10.2542 21.8402 12C21.8402 13.7458 21.9848 17.4999 21.3583 19.0744Z" fill="#404E3B"/>
</svg>
