<svg width="31" height="31" viewBox="0 0 31 31" fill="none" xmlns="http://www.w3.org/2000/svg">
<path d="M21.8969 8.36166C22.0101 8.39905 22.0551 8.48574 22.0551 8.54819V13.9994C22.055 17.5128 18.9389 20.4144 15.0922 20.4144C12.8819 20.4142 11.0022 19.0885 10.3265 17.2777L10.0834 16.6253L9.54333 17.0648C8.33069 18.0495 7.55512 19.5084 7.55505 21.1478C7.55505 21.2276 7.47759 21.348 7.30505 21.348C7.13252 21.348 7.05505 21.2276 7.05505 21.1478C7.05513 19.1538 8.14414 17.3815 9.82263 16.3314C10.8441 15.694 12.0679 15.348 13.3051 15.348H15.8051C16.4638 15.348 17.0551 14.8438 17.0551 14.1478C17.0549 13.4519 16.4637 12.9476 15.8051 12.9476H13.3051C12.454 12.9476 11.6317 13.0636 10.8539 13.2767C11.7393 12.0042 13.2799 11.1478 15.0551 11.1478C16.9663 11.1478 18.456 10.6272 19.5306 10.0423L19.9662 9.7894C20.6021 9.3937 21.1368 8.92394 21.6273 8.40854C21.6769 8.36953 21.745 8.34538 21.8177 8.34799L21.8969 8.36166Z" stroke="#404E3B"/>
</svg>
