<svg width="529" height="93" viewBox="0 0 529 93" fill="none" xmlns="http://www.w3.org/2000/svg">
<path d="M57.6094 5.78125L35.5312 73H22.0781L0.09375 5.78125H15.375L28.7812 50.6406L42.2344 5.78125H57.6094ZM70.8656 73H58.0687V22.7969H61.1625L65.3812 28.75C67.4437 26.875 69.7875 25.4375 72.4125 24.4375C75.0375 23.4062 77.7562 22.8906 80.5687 22.8906H91.8656V35.6406H80.5687C79.225 35.6406 77.9594 35.8906 76.7719 36.3906C75.5844 36.8906 74.5531 37.5781 73.6781 38.4531C72.8031 39.3281 72.1156 40.3594 71.6156 41.5469C71.1156 42.7344 70.8656 44 70.8656 45.3438V73ZM110.512 9.15625C110.512 10.3437 110.278 11.4531 109.809 12.4844C109.372 13.5156 108.762 14.4219 107.981 15.2031C107.2 15.9531 106.278 16.5625 105.216 17.0312C104.184 17.4688 103.075 17.6875 101.887 17.6875C100.7 17.6875 99.575 17.4688 98.5125 17.0312C97.4812 16.5625 96.575 15.9531 95.7937 15.2031C95.0437 14.4219 94.4344 13.5156 93.9656 12.4844C93.5281 11.4531 93.3094 10.3437 93.3094 9.15625C93.3094 8 93.5281 6.90625 93.9656 5.875C94.4344 4.8125 95.0437 3.90625 95.7937 3.15625C96.575 2.375 97.4812 1.76562 98.5125 1.32812C99.575 0.859375 100.7 0.625 101.887 0.625C103.075 0.625 104.184 0.859375 105.216 1.32812C106.278 1.76562 107.2 2.375 107.981 3.15625C108.762 3.90625 109.372 4.8125 109.809 5.875C110.278 6.90625 110.512 8 110.512 9.15625ZM108.309 73H95.4187V22.7969H108.309V73ZM135.675 60.7188C136.175 60.875 136.675 60.9844 137.175 61.0469C137.675 61.0781 138.175 61.0938 138.675 61.0938C139.925 61.0938 141.128 60.9219 142.284 60.5781C143.441 60.2344 144.519 59.75 145.519 59.125C146.55 58.4688 147.456 57.6875 148.238 56.7812C149.05 55.8438 149.706 54.8125 150.206 53.6875L159.581 63.1094C158.394 64.7969 157.019 66.3125 155.456 67.6562C153.925 69 152.253 70.1406 150.441 71.0781C148.659 72.0156 146.769 72.7188 144.769 73.1875C142.8 73.6875 140.769 73.9375 138.675 73.9375C135.144 73.9375 131.816 73.2812 128.691 71.9688C125.597 70.6562 122.878 68.8281 120.534 66.4844C118.222 64.1406 116.394 61.3594 115.05 58.1406C113.706 54.8906 113.034 51.3281 113.034 47.4531C113.034 43.4844 113.706 39.8594 115.05 36.5781C116.394 33.2969 118.222 30.5 120.534 28.1875C122.878 25.875 125.597 24.0781 128.691 22.7969C131.816 21.5156 135.144 20.875 138.675 20.875C140.769 20.875 142.816 21.125 144.816 21.625C146.816 22.125 148.706 22.8438 150.488 23.7812C152.3 24.7188 153.988 25.875 155.55 27.25C157.113 28.5938 158.488 30.1094 159.675 31.7969L135.675 60.7188ZM142.238 34.3281C141.644 34.1094 141.05 33.9688 140.456 33.9062C139.894 33.8438 139.3 33.8125 138.675 33.8125C136.925 33.8125 135.269 34.1406 133.706 34.7969C132.175 35.4219 130.831 36.3281 129.675 37.5156C128.55 38.7031 127.659 40.1406 127.003 41.8281C126.347 43.4844 126.019 45.3594 126.019 47.4531C126.019 47.9219 126.034 48.4531 126.066 49.0469C126.128 49.6406 126.206 50.25 126.3 50.875C126.425 51.4688 126.566 52.0469 126.722 52.6094C126.878 53.1719 127.081 53.6719 127.331 54.1094L142.238 34.3281ZM176.541 73H163.744V22.7969H166.837L171.056 27.6719C173.119 25.7969 175.447 24.3594 178.041 23.3594C180.666 22.3281 183.4 21.8125 186.244 21.8125C189.306 21.8125 192.197 22.4062 194.916 23.5938C197.634 24.75 200.009 26.3594 202.041 28.4219C204.072 30.4531 205.666 32.8438 206.822 35.5938C208.009 38.3125 208.603 41.2188 208.603 44.3125V73H195.806V44.3125C195.806 43 195.556 41.7656 195.056 40.6094C194.556 39.4219 193.869 38.3906 192.994 37.5156C192.119 36.6406 191.103 35.9531 189.947 35.4531C188.791 34.9531 187.556 34.7031 186.244 34.7031C184.9 34.7031 183.634 34.9531 182.447 35.4531C181.259 35.9531 180.228 36.6406 179.353 37.5156C178.478 38.3906 177.791 39.4219 177.291 40.6094C176.791 41.7656 176.541 43 176.541 44.3125V73ZM263.859 73H260.766L255.797 66.1094C254.578 67.2031 253.281 68.2344 251.906 69.2031C250.562 70.1406 249.141 70.9688 247.641 71.6875C246.141 72.375 244.594 72.9219 243 73.3281C241.438 73.7344 239.844 73.9375 238.219 73.9375C234.688 73.9375 231.359 73.2812 228.234 71.9688C225.141 70.625 222.422 68.7812 220.078 66.4375C217.766 64.0625 215.938 61.2656 214.594 58.0469C213.25 54.7969 212.578 51.2656 212.578 47.4531C212.578 43.6719 213.25 40.1562 214.594 36.9062C215.938 33.6562 217.766 30.8438 220.078 28.4688C222.422 26.0938 225.141 24.2344 228.234 22.8906C231.359 21.5469 234.688 20.875 238.219 20.875C239.344 20.875 240.5 20.9688 241.688 21.1562C242.906 21.3438 244.078 21.6562 245.203 22.0938C246.359 22.5 247.438 23.0469 248.438 23.7344C249.438 24.4219 250.281 25.2656 250.969 26.2656V2.82812H263.859V73ZM250.969 47.4531C250.969 45.7031 250.625 44.0156 249.938 42.3906C249.281 40.7344 248.375 39.2812 247.219 38.0312C246.062 36.75 244.703 35.7344 243.141 34.9844C241.609 34.2031 239.969 33.8125 238.219 33.8125C236.469 33.8125 234.812 34.125 233.25 34.75C231.719 35.375 230.375 36.2812 229.219 37.4688C228.094 38.625 227.203 40.0469 226.547 41.7344C225.891 43.4219 225.562 45.3281 225.562 47.4531C225.562 49.2969 225.891 51.0469 226.547 52.7031C227.203 54.3594 228.094 55.8125 229.219 57.0625C230.375 58.3125 231.719 59.2969 233.25 60.0156C234.812 60.7344 236.469 61.0938 238.219 61.0938C239.969 61.0938 241.609 60.7188 243.141 59.9688C244.703 59.1875 246.062 58.1719 247.219 56.9219C248.375 55.6406 249.281 54.1875 249.938 52.5625C250.625 50.9062 250.969 49.2031 250.969 47.4531ZM291.225 60.7188C291.725 60.875 292.225 60.9844 292.725 61.0469C293.225 61.0781 293.725 61.0938 294.225 61.0938C295.475 61.0938 296.678 60.9219 297.834 60.5781C298.991 60.2344 300.069 59.75 301.069 59.125C302.1 58.4688 303.006 57.6875 303.788 56.7812C304.6 55.8438 305.256 54.8125 305.756 53.6875L315.131 63.1094C313.944 64.7969 312.569 66.3125 311.006 67.6562C309.475 69 307.803 70.1406 305.991 71.0781C304.209 72.0156 302.319 72.7188 300.319 73.1875C298.35 73.6875 296.319 73.9375 294.225 73.9375C290.694 73.9375 287.366 73.2812 284.241 71.9688C281.147 70.6562 278.428 68.8281 276.084 66.4844C273.772 64.1406 271.944 61.3594 270.6 58.1406C269.256 54.8906 268.584 51.3281 268.584 47.4531C268.584 43.4844 269.256 39.8594 270.6 36.5781C271.944 33.2969 273.772 30.5 276.084 28.1875C278.428 25.875 281.147 24.0781 284.241 22.7969C287.366 21.5156 290.694 20.875 294.225 20.875C296.319 20.875 298.366 21.125 300.366 21.625C302.366 22.125 304.256 22.8438 306.038 23.7812C307.85 24.7188 309.538 25.875 311.1 27.25C312.663 28.5938 314.038 30.1094 315.225 31.7969L291.225 60.7188ZM297.788 34.3281C297.194 34.1094 296.6 33.9688 296.006 33.9062C295.444 33.8438 294.85 33.8125 294.225 33.8125C292.475 33.8125 290.819 34.1406 289.256 34.7969C287.725 35.4219 286.381 36.3281 285.225 37.5156C284.1 38.7031 283.209 40.1406 282.553 41.8281C281.897 43.4844 281.569 45.3594 281.569 47.4531C281.569 47.9219 281.584 48.4531 281.616 49.0469C281.678 49.6406 281.756 50.25 281.85 50.875C281.975 51.4688 282.116 52.0469 282.272 52.6094C282.428 53.1719 282.631 53.6719 282.881 54.1094L297.788 34.3281ZM332.091 73H319.294V22.7969H322.388L326.606 27.6719C328.669 25.7969 330.997 24.3594 333.591 23.3594C336.216 22.3281 338.95 21.8125 341.794 21.8125C344.856 21.8125 347.747 22.4062 350.466 23.5938C353.184 24.75 355.559 26.3594 357.591 28.4219C359.622 30.4531 361.216 32.8438 362.372 35.5938C363.559 38.3125 364.153 41.2188 364.153 44.3125V73H351.356V44.3125C351.356 43 351.106 41.7656 350.606 40.6094C350.106 39.4219 349.419 38.3906 348.544 37.5156C347.669 36.6406 346.653 35.9531 345.497 35.4531C344.341 34.9531 343.106 34.7031 341.794 34.7031C340.45 34.7031 339.184 34.9531 337.997 35.4531C336.809 35.9531 335.778 36.6406 334.903 37.5156C334.028 38.3906 333.341 39.4219 332.841 40.6094C332.341 41.7656 332.091 43 332.091 44.3125V73ZM434.269 54.8594C434.269 57.4844 433.769 59.9688 432.769 62.3125C431.769 64.625 430.394 66.6406 428.644 68.3594C426.925 70.0781 424.894 71.4375 422.55 72.4375C420.237 73.4375 417.753 73.9375 415.097 73.9375C412.722 73.9375 410.441 73.5312 408.253 72.7188C406.066 71.875 404.081 70.6562 402.3 69.0625C400.55 70.6562 398.581 71.875 396.394 72.7188C394.237 73.5312 391.956 73.9375 389.55 73.9375C386.894 73.9375 384.409 73.4375 382.097 72.4375C379.784 71.4375 377.753 70.0781 376.003 68.3594C374.284 66.6406 372.925 64.625 371.925 62.3125C370.925 59.9688 370.425 57.4844 370.425 54.8594V22.8906H383.222V54.8594C383.222 55.7344 383.378 56.5625 383.691 57.3438C384.034 58.0938 384.487 58.7656 385.05 59.3594C385.644 59.9219 386.316 60.375 387.066 60.7188C387.847 61.0312 388.675 61.1875 389.55 61.1875C390.425 61.1875 391.253 61.0312 392.034 60.7188C392.816 60.375 393.503 59.9219 394.097 59.3594C394.691 58.7656 395.144 58.0938 395.456 57.3438C395.8 56.5625 395.972 55.7344 395.972 54.8594V22.8906H408.722V54.8594C408.722 55.7344 408.894 56.5625 409.237 57.3438C409.581 58.0938 410.034 58.7656 410.597 59.3594C411.191 59.9219 411.862 60.375 412.612 60.7188C413.394 61.0312 414.222 61.1875 415.097 61.1875C415.972 61.1875 416.8 61.0312 417.581 60.7188C418.362 60.375 419.034 59.9219 419.597 59.3594C420.191 58.7656 420.659 58.0938 421.003 57.3438C421.347 56.5625 421.519 55.7344 421.519 54.8594V22.8906H434.269V54.8594ZM456.244 9.15625C456.244 10.3437 456.009 11.4531 455.541 12.4844C455.103 13.5156 454.494 14.4219 453.712 15.2031C452.931 15.9531 452.009 16.5625 450.947 17.0312C449.916 17.4688 448.806 17.6875 447.619 17.6875C446.431 17.6875 445.306 17.4688 444.244 17.0312C443.212 16.5625 442.306 15.9531 441.525 15.2031C440.775 14.4219 440.166 13.5156 439.697 12.4844C439.259 11.4531 439.041 10.3437 439.041 9.15625C439.041 8 439.259 6.90625 439.697 5.875C440.166 4.8125 440.775 3.90625 441.525 3.15625C442.306 2.375 443.212 1.76562 444.244 1.32812C445.306 0.859375 446.431 0.625 447.619 0.625C448.806 0.625 449.916 0.859375 450.947 1.32812C452.009 1.76562 452.931 2.375 453.712 3.15625C454.494 3.90625 455.103 4.8125 455.541 5.875C456.009 6.90625 456.244 8 456.244 9.15625ZM454.041 73H441.15V22.7969H454.041V73ZM476.719 9.15625C476.719 10.3437 476.484 11.4531 476.016 12.4844C475.578 13.5156 474.969 14.4219 474.188 15.2031C473.438 15.9531 472.531 16.5625 471.469 17.0312C470.438 17.4688 469.344 17.6875 468.188 17.6875C466.969 17.6875 465.828 17.4688 464.766 17.0312C463.734 16.5625 462.828 15.9531 462.047 15.2031C461.266 14.4219 460.641 13.5156 460.172 12.4844C459.734 11.4531 459.516 10.3437 459.516 9.15625C459.516 8 459.734 6.90625 460.172 5.875C460.641 4.8125 461.266 3.90625 462.047 3.15625C462.828 2.375 463.734 1.76562 464.766 1.32812C465.828 0.859375 466.969 0.625 468.188 0.625C469.344 0.625 470.438 0.859375 471.469 1.32812C472.531 1.76562 473.438 2.375 474.188 3.15625C474.969 3.90625 475.578 4.8125 476.016 5.875C476.484 6.90625 476.719 8 476.719 9.15625ZM442.359 92.125V79.2344L449.438 79.3281C451.156 79.3281 452.75 78.9688 454.219 78.25C455.688 77.5625 456.953 76.625 458.016 75.4375C459.109 74.2812 459.969 72.9375 460.594 71.4062C461.219 69.875 461.531 68.2656 461.531 66.5781V22.7969H474.609V66.5781H474.516C474.484 68.9219 474.156 71.1875 473.531 73.375C472.938 75.5625 472.078 77.5938 470.953 79.4688C469.828 81.375 468.484 83.0938 466.922 84.625C465.359 86.1875 463.625 87.5156 461.719 88.6094C459.844 89.7344 457.828 90.5938 455.672 91.1875C453.484 91.8125 451.219 92.125 448.875 92.125H442.359ZM494.803 73H481.913V2.82812H494.803V47.0781L513.881 22.8906H528.6L511.959 43.7969L528.6 73H513.881L503.709 54.7656L494.803 66.5781V73Z" fill="#404E3B"/>
</svg>
