<svg width="229" height="228" viewBox="0 0 229 228" fill="none" xmlns="http://www.w3.org/2000/svg">
<g id="ion:pricetag">
<path id="Vector" d="M20.4204 113.789C20.413 115.646 20.7752 117.487 21.4858 119.205C22.1964 120.923 23.2412 122.483 24.5595 123.796L51.9791 151.215C53.7811 153.011 56.2158 154.026 58.755 154.04L168.179 154.245C171.917 154.247 175.499 152.767 178.137 150.129C180.776 147.49 182.256 143.909 182.253 140.171L182.161 88.0694C182.151 84.3301 180.657 80.7424 178.009 78.0936C175.36 75.4448 171.772 73.9515 168.033 73.9414L58.6528 73.7365C56.1132 73.737 53.68 74.7401 51.8824 76.5277L24.5442 103.866C23.2323 105.162 22.1921 106.706 21.4841 108.41C20.7761 110.113 20.4145 111.942 20.4204 113.789ZM64.4492 106.787C65.8609 108.198 66.8238 109.995 67.216 111.951C67.6083 113.906 67.4123 115.932 66.6529 117.772C65.8936 119.611 64.6048 121.183 62.9498 122.287C61.2947 123.391 59.3476 123.979 57.3547 123.975C55.3618 123.972 53.4126 123.377 51.7536 122.267C50.0946 121.157 48.8003 119.581 48.0344 117.739C47.2685 115.896 47.0654 113.87 47.4507 111.916C47.836 109.962 48.7925 108.168 50.1992 106.761C52.0856 104.875 54.6466 103.818 57.319 103.823C59.9914 103.827 62.5562 104.894 64.4492 106.787Z" fill="#B5325D"/>
</g>
</svg>
