<svg width="48" height="35" viewBox="0 0 48 35" fill="none" xmlns="http://www.w3.org/2000/svg">
<path d="M0.00195312 12.7636C0.00195312 5.71173 5.75552 0 12.8591 0H13.7162C15.6127 0 17.1448 1.521 17.1448 3.40364C17.1448 5.28627 15.6127 6.80727 13.7162 6.80727H12.8591C9.54838 6.80727 6.8591 9.477 6.8591 12.7636V13.6145H13.7162C17.4984 13.6145 20.5734 16.6672 20.5734 20.4218V27.2291C20.5734 30.9837 17.4984 34.0364 13.7162 34.0364H6.8591C3.07695 34.0364 0.00195312 30.9837 0.00195312 27.2291V23.8255V20.4218V12.7636ZM27.4305 12.7636C27.4305 5.71173 33.1841 0 40.2877 0H41.1448C43.0412 0 44.5734 1.521 44.5734 3.40364C44.5734 5.28627 43.0412 6.80727 41.1448 6.80727H40.2877C36.977 6.80727 34.2877 9.477 34.2877 12.7636V13.6145H41.1448C44.927 13.6145 48.002 16.6672 48.002 20.4218V27.2291C48.002 30.9837 44.927 34.0364 41.1448 34.0364H34.2877C30.5055 34.0364 27.4305 30.9837 27.4305 27.2291V23.8255V20.4218V12.7636Z" fill="black"/>
</svg>
