<svg width="48" height="35" viewBox="0 0 48 35" fill="none" xmlns="http://www.w3.org/2000/svg">
<path d="M48.002 21.2727C48.002 28.3246 42.2484 34.0364 35.1448 34.0364H34.2877C32.3912 34.0364 30.8591 32.5154 30.8591 30.6327C30.8591 28.7501 32.3912 27.2291 34.2877 27.2291H35.1448C38.4555 27.2291 41.1448 24.5594 41.1448 21.2727V20.4218H34.2877C30.5055 20.4218 27.4305 17.3692 27.4305 13.6145V6.80727C27.4305 3.05264 30.5055 0 34.2877 0H41.1448C44.927 0 48.002 3.05264 48.002 6.80727V10.2109V13.6145V21.2727ZM20.5734 21.2727C20.5734 28.3246 14.8198 34.0364 7.71624 34.0364H6.8591C4.96267 34.0364 3.43052 32.5154 3.43052 30.6327C3.43052 28.7501 4.96267 27.2291 6.8591 27.2291H7.71624C11.027 27.2291 13.7162 24.5594 13.7162 21.2727V20.4218H6.8591C3.07695 20.4218 0.00195312 17.3692 0.00195312 13.6145V6.80727C0.00195312 3.05264 3.07695 0 6.8591 0H13.7162C17.4984 0 20.5734 3.05264 20.5734 6.80727V10.2109V13.6145V21.2727Z" fill="black"/>
</svg>
