<svg width="14" height="14" viewBox="0 0 14 14" fill="none" xmlns="http://www.w3.org/2000/svg">
<path d="M7.82559 13.6845C7.37004 14.1052 6.63022 14.1052 6.17467 13.6845L0.343617 8.30056C-0.111935 7.87994 -0.111935 7.19685 0.343617 6.77623C0.799168 6.35561 1.53898 6.35561 1.99453 6.77623L7.00195 11.3997L12.0094 6.77959C12.4649 6.35897 13.2047 6.35897 13.6603 6.77959C14.1158 7.20022 14.1158 7.88331 13.6603 8.30393L7.82923 13.6879L7.82559 13.6845ZM13.6566 1.8398L7.82559 7.22377C7.37004 7.64439 6.63022 7.64439 6.17467 7.22377L0.343617 1.8398C-0.111935 1.41918 -0.111935 0.736089 0.343617 0.315467C0.799168 -0.105156 1.53898 -0.105156 1.99453 0.315467L7.00195 4.93895L12.0094 0.318832C12.4649 -0.101791 13.2047 -0.101791 13.6603 0.318832C14.1158 0.739454 14.1158 1.42255 13.6603 1.84317L13.6566 1.8398Z" fill="#BAC8B1"/>
</svg>
