<svg width="270" height="82" viewBox="0 0 270 82" fill="none" xmlns="http://www.w3.org/2000/svg">
<path d="M107.234 40.7891C107.227 42.6459 107.589 44.4869 108.299 46.2049C109.01 47.9229 110.055 49.4836 111.373 50.7959L138.793 78.2156C140.595 80.0109 143.029 81.0257 145.569 81.0397L254.993 81.2447C258.731 81.2475 262.312 79.7672 264.951 77.1287C267.589 74.4902 269.069 70.9091 269.067 67.1711L268.974 15.0695C268.964 11.3302 267.471 7.74243 264.822 5.09367C262.173 2.4449 258.586 0.951582 254.846 0.941469L145.466 0.736572C142.927 0.737056 140.494 1.74018 138.696 3.52781L111.358 30.866C110.046 32.1617 109.006 33.7063 108.298 35.4098C107.59 37.1134 107.228 38.942 107.234 40.7891ZM151.263 33.7867C152.675 35.1984 153.637 36.9955 154.03 38.9508C154.422 40.9061 154.226 42.9317 153.467 44.7716C152.707 46.6114 151.418 48.1828 149.763 49.2871C148.108 50.3914 146.161 50.9789 144.168 50.9753C142.175 50.9718 140.226 50.3774 138.567 49.2673C136.908 48.1571 135.614 46.5812 134.848 44.7386C134.082 42.8961 133.879 40.8697 134.264 38.9158C134.65 36.9619 135.606 35.1681 137.013 33.7614C138.899 31.8751 141.46 30.8181 144.133 30.8228C146.805 30.8275 149.37 31.8937 151.263 33.7867Z" fill="#B5325D"/>
<path d="M2.42275 62.9752C2.35426 62.4271 1.85448 62.0384 1.30646 62.1069C0.758439 62.1754 0.369701 62.6752 0.438191 63.2232L2.42275 62.9752ZM65.4386 60.9632L66.3069 61.4592L65.4386 60.9632ZM0.438191 63.2232C0.942083 67.2551 2.94609 71.7318 8.75424 75.0652C14.4916 78.358 23.874 80.4973 39.0624 80.1594L39.0179 78.1599C23.9789 78.4945 15.0258 76.3586 9.74978 73.3306C4.54459 70.3432 2.85744 66.4533 2.42275 62.9752L0.438191 63.2232ZM39.0624 80.1594C43.8247 80.0534 47.5627 79.651 50.4402 79.0245C53.3051 78.4007 55.3872 77.5399 56.7757 76.4673C58.1955 75.3706 58.9107 74.0288 58.9204 72.5541C58.9298 71.1339 58.2827 69.7651 57.3597 68.5572C55.5159 66.1443 52.2824 63.9897 49.1774 62.7174C47.6156 62.0774 46.0314 61.6375 44.6135 61.5126C43.2278 61.3905 41.8264 61.5553 40.8106 62.336L42.0294 63.9218C42.4575 63.5927 43.2455 63.3998 44.4381 63.5049C45.5985 63.6071 46.9814 63.9789 48.4191 64.5681C51.3132 65.754 54.2082 67.7269 55.7705 69.7715C56.5506 70.7923 56.9258 71.7348 56.9205 72.5409C56.9155 73.2926 56.5788 74.0922 55.5531 74.8845C54.4962 75.701 52.7391 76.477 50.0147 77.0703C47.303 77.6607 43.7015 78.0557 39.0179 78.1599L39.0624 80.1594ZM40.8106 62.336C39.9118 63.0268 39.3682 63.9341 39.4631 64.986C39.5519 65.9708 40.1812 66.8001 40.9479 67.4399C42.4929 68.7292 45.1213 69.7027 48.0832 70.0606C54.0377 70.7799 61.961 69.067 66.3069 61.4592L64.5703 60.4672C60.7557 67.145 53.7817 68.7344 48.3231 68.075C45.5785 67.7434 43.3713 66.8573 42.2293 65.9043C41.6526 65.423 41.4756 65.0355 41.455 64.8064C41.4404 64.6444 41.4842 64.3407 42.0294 63.9218L40.8106 62.336ZM66.3069 61.4592C67.9784 58.5331 70.8445 55.7442 74.4243 53.235C77.9947 50.7323 82.2205 48.5461 86.541 46.8059C90.8609 45.0659 95.2508 43.7816 99.14 43.0713C103.056 42.356 106.366 42.2411 108.573 42.7554L109.027 40.8076C106.421 40.2004 102.79 40.3715 98.7806 41.1038C94.7447 41.841 90.2249 43.1659 85.7937 44.9507C81.3632 46.7353 76.9965 48.9896 73.2763 51.5972C69.5654 54.1983 66.4427 57.1894 64.5703 60.4672L66.3069 61.4592Z" fill="#B5325D"/>
</svg>
