<svg width="265" height="82" viewBox="0 0 265 82" fill="none" xmlns="http://www.w3.org/2000/svg">
<path d="M103.047 40.7891C103.039 42.6459 103.402 44.4869 104.112 46.2049C104.823 47.9229 105.868 49.4836 107.186 50.7959L134.606 78.2156C136.408 80.0109 138.842 81.0257 141.382 81.0397L250.806 81.2447C254.544 81.2475 258.125 79.7672 260.764 77.1287C263.402 74.4902 264.882 70.9091 264.88 67.1711L264.787 15.0695C264.777 11.3302 263.284 7.74243 260.635 5.09367C257.986 2.4449 254.399 0.951582 250.659 0.941469L141.279 0.736572C138.74 0.737056 136.306 1.74018 134.509 3.52781L107.171 30.866C105.859 32.1617 104.819 33.7063 104.111 35.4098C103.403 37.1134 103.041 38.942 103.047 40.7891ZM147.076 33.7867C148.487 35.1984 149.45 36.9955 149.843 38.9508C150.235 40.9061 150.039 42.9317 149.279 44.7716C148.52 46.6114 147.231 48.1828 145.576 49.2871C143.921 50.3914 141.974 50.9789 139.981 50.9753C137.988 50.9718 136.039 50.3774 134.38 49.2673C132.721 48.1571 131.427 46.5812 130.661 44.7386C129.895 42.8961 129.692 40.8697 130.077 38.9158C130.463 36.9619 131.419 35.1681 132.826 33.7614C134.712 31.8751 137.273 30.8181 139.945 30.8228C142.618 30.8275 145.183 31.8937 147.076 33.7867Z" fill="#B5325D"/>
<path d="M5.99042 3.06224C5.93284 2.51296 5.44088 2.11437 4.89161 2.17195C4.34233 2.22954 3.94374 2.7215 4.00132 3.27077L5.99042 3.06224ZM16.5711 45.4231L17.1347 44.597L17.1347 44.597L16.5711 45.4231ZM37.2387 26.8446L37.4749 27.8163L37.4749 27.8163L37.2387 26.8446ZM58.5043 38.3673L59.0637 39.1962L59.0637 39.1962L58.5043 38.3673ZM4.00132 3.27077C4.24773 5.62117 3.60412 8.29745 2.77852 11.4464C1.96962 14.5316 1.00941 18.0015 0.821843 21.7008C0.632724 25.4306 1.22496 29.4086 3.50004 33.5556C5.76793 37.6894 9.67314 41.9278 16.0076 46.2492L17.1347 44.597C10.9809 40.3989 7.3295 36.3777 5.2535 32.5936C3.18468 28.8226 2.64574 25.2245 2.81928 21.8021C2.99436 18.3492 3.89063 15.0907 4.71313 11.9536C5.51893 8.88022 6.28165 5.84013 5.99042 3.06224L4.00132 3.27077ZM16.0076 46.2492C24.547 52.0747 30.9096 53.4204 35.471 51.8893C40.0686 50.3461 42.4128 46.0341 43.2716 41.5997L41.3081 41.2194C40.515 45.3146 38.4555 48.7779 34.8346 49.9933C31.1775 51.2208 25.5067 50.3084 17.1347 44.597L16.0076 46.2492ZM43.2716 41.5997C44.0012 37.8321 43.7086 33.7789 42.7023 30.7493C42.2011 29.2401 41.4958 27.9034 40.5756 26.9936C39.6289 26.0577 38.3973 25.5338 37.0025 25.8729L37.4749 27.8163C38.0333 27.6805 38.5845 27.8376 39.1695 28.4159C39.7809 29.0204 40.3563 30.031 40.8043 31.3797C41.6964 34.0657 41.9761 37.7698 41.3081 41.2194L43.2716 41.5997ZM37.0025 25.8729C35.261 26.2962 34.1213 27.4331 33.6062 28.9305C33.1081 30.3785 33.2118 32.0938 33.7403 33.7683C34.7986 37.1212 37.6669 40.6633 41.9233 42.34L42.6563 40.4791C38.991 39.0353 36.5342 35.9754 35.6476 33.1663C35.2036 31.7597 35.18 30.5039 35.4974 29.581C35.7979 28.7075 36.4168 28.0735 37.4749 27.8163L37.0025 25.8729ZM41.9233 42.34C46.4232 44.1126 52.3212 43.7465 59.0637 39.1962L57.9449 37.5384C51.6401 41.7933 46.4308 41.966 42.6563 40.4791L41.9233 42.34ZM59.0637 39.1962C67.0647 33.7966 78.2744 32.167 88.2763 32.9736C93.2634 33.3758 97.8989 34.3803 101.624 35.7898C105.385 37.2126 108.079 38.9953 109.36 40.8595L111.008 39.7268C109.381 37.3594 106.226 35.3924 102.332 33.9192C98.4027 32.4326 93.5785 31.3947 88.4371 30.9801C78.182 30.1531 66.4596 31.7921 57.9449 37.5384L59.0637 39.1962Z" fill="#B5325D"/>
</svg>
