<svg width="71" height="70" fill="none" xmlns="http://www.w3.org/2000/svg"><circle cx="35.373" cy="35" r="35" fill="#fff"/><path d="M42.507 17.588a1.267 1.267 0 01-.046 1.793c-1.194 1.134-3.254 3.971-4.022 7.741a6.53 6.53 0 012.39 1.278 6.465 6.465 0 116.642 11.072 6.438 6.438 0 01-.362 4.222 6.454 6.454 0 01-4.052 3.56 6.467 6.467 0 11-12.896.1 6.467 6.467 0 01-3.942-7.473A6.466 6.466 0 1132.3 28.555a6.44 6.44 0 011.501-1.02l-5.108-.347a7.4 7.4 0 01-6.881-7.884l7.381.5a7.402 7.402 0 016.84 6.438c.948-4.197 3.25-7.34 4.68-8.7a1.268 1.268 0 011.794.046zm-11.711 13.01a3.93 3.93 0 10.427 6.25 6.46 6.46 0 01-.427-6.25zm2.197 8.071a6.49 6.49 0 01-4.277 1.683 3.931 3.931 0 107.415-.567 6.457 6.457 0 01-3.138-1.116zm5.718.798a6.44 6.44 0 01-.246 4.411 3.93 3.93 0 006.571-3.692 6.49 6.49 0 01-4.745-1.502 6.497 6.497 0 01-1.58.783zm3.363-2.603a3.93 3.93 0 10.337-6.467 6.453 6.453 0 01-.337 6.467zm-3.504 10.1a6.466 6.466 0 01-1.555-.978 6.489 6.489 0 01-4.332 1.814 3.932 3.932 0 107.85-.308 6.45 6.45 0 01-1.963-.527zm-5.505-15.227a3.929 3.929 0 006.3 4.482 3.931 3.931 0 00-4.113-6.499 3.93 3.93 0 00-2.187 2.017z" fill="#B5325D"/></svg>