<svg width="529" height="93" fill="none" xmlns="http://www.w3.org/2000/svg"><path d="M57.61 5.781L35.53 73H22.078L.094 5.781h15.281l13.406 44.86L42.234 5.78H57.61zM70.865 73H58.069V22.797h3.093l4.22 5.953a22.002 22.002 0 017.03-4.313 22.113 22.113 0 018.157-1.546h11.297v12.75H80.569c-1.344 0-2.61.25-3.797.75a9.585 9.585 0 00-3.094 2.062 9.585 9.585 0 00-2.062 3.094 9.683 9.683 0 00-.75 3.797V73zm39.646-63.844a7.944 7.944 0 01-.703 3.328 8.498 8.498 0 01-1.828 2.72 9.47 9.47 0 01-2.765 1.827 8.436 8.436 0 01-3.329.657 8.774 8.774 0 01-3.374-.657 9.663 9.663 0 01-2.72-1.828 9.664 9.664 0 01-1.827-2.719 8.433 8.433 0 01-.657-3.328c0-1.156.22-2.25.657-3.281.468-1.063 1.078-1.969 1.828-2.719a8.503 8.503 0 012.719-1.828 8.269 8.269 0 013.374-.703c1.188 0 2.297.234 3.329.703a8.373 8.373 0 012.765 1.828 7.865 7.865 0 011.828 2.719 7.834 7.834 0 01.703 3.281zM108.309 73h-12.89V22.797h12.89V73zm27.366-12.281c.5.156 1 .265 1.5.328.5.031 1 .047 1.5.047 1.25 0 2.453-.172 3.609-.516a13.122 13.122 0 003.235-1.453 12.268 12.268 0 002.719-2.344 12.382 12.382 0 001.968-3.093l9.375 9.421a24.754 24.754 0 01-4.125 4.547 24.964 24.964 0 01-5.015 3.422 23.781 23.781 0 01-5.672 2.11c-1.969.5-4 .75-6.094.75-3.531 0-6.859-.657-9.984-1.97a25.514 25.514 0 01-8.157-5.484c-2.312-2.343-4.14-5.125-5.484-8.343-1.344-3.25-2.016-6.813-2.016-10.688 0-3.969.672-7.594 2.016-10.875 1.344-3.281 3.172-6.078 5.484-8.39a25.252 25.252 0 018.157-5.391c3.125-1.281 6.453-1.922 9.984-1.922 2.094 0 4.141.25 6.141.75s3.89 1.219 5.672 2.156c1.812.938 3.5 2.094 5.062 3.469a24.758 24.758 0 014.125 4.547l-24 28.922zm6.563-26.39a7.386 7.386 0 00-1.782-.423 16.159 16.159 0 00-1.781-.093c-1.75 0-3.406.328-4.969.984a11.783 11.783 0 00-4.031 2.719c-1.125 1.187-2.016 2.625-2.672 4.312-.656 1.656-.984 3.531-.984 5.625 0 .469.015 1 .047 1.594.062.594.14 1.203.234 1.828.125.594.266 1.172.422 1.734a6.53 6.53 0 00.609 1.5l14.907-19.78zM176.541 73h-12.797V22.797h3.093l4.219 4.875a22.14 22.14 0 016.985-4.313 22.234 22.234 0 018.203-1.547c3.062 0 5.953.594 8.672 1.782a21.966 21.966 0 017.125 4.828c2.031 2.031 3.625 4.422 4.781 7.172 1.187 2.718 1.781 5.625 1.781 8.718V73h-12.797V44.312c0-1.312-.25-2.546-.75-3.703a9.584 9.584 0 00-5.109-5.156 9.23 9.23 0 00-3.703-.75c-1.344 0-2.61.25-3.797.75a9.58 9.58 0 00-3.094 2.063 9.584 9.584 0 00-2.062 3.093 9.229 9.229 0 00-.75 3.703V73zm87.318 0h-3.093l-4.969-6.89a42.29 42.29 0 01-3.891 3.093 30.398 30.398 0 01-4.265 2.484A27.292 27.292 0 01243 73.329a18.93 18.93 0 01-4.781.61c-3.531 0-6.86-.657-9.985-1.97a26.174 26.174 0 01-8.156-5.53c-2.312-2.376-4.14-5.172-5.484-8.391-1.344-3.25-2.016-6.781-2.016-10.594 0-3.781.672-7.297 2.016-10.547 1.344-3.25 3.172-6.062 5.484-8.437a25.785 25.785 0 018.156-5.578c3.125-1.344 6.454-2.016 9.985-2.016 1.125 0 2.281.094 3.469.281 1.218.188 2.39.5 3.515.938 1.156.406 2.235.953 3.235 1.64a9.755 9.755 0 012.531 2.532V2.828h12.89V73zm-12.89-25.547c0-1.75-.344-3.437-1.031-5.062-.657-1.657-1.563-3.11-2.719-4.36a13.057 13.057 0 00-4.078-3.047 10.68 10.68 0 00-4.922-1.172c-1.75 0-3.407.313-4.969.938a11.782 11.782 0 00-4.031 2.719c-1.125 1.156-2.016 2.578-2.672 4.265-.656 1.688-.985 3.594-.985 5.72 0 1.843.329 3.593.985 5.25.656 1.655 1.547 3.108 2.672 4.358a12.923 12.923 0 004.031 2.954 11.748 11.748 0 004.969 1.078c1.75 0 3.39-.375 4.922-1.125a14.095 14.095 0 004.078-3.047 14.65 14.65 0 002.719-4.36 13.217 13.217 0 001.031-5.109zm40.256 13.266c.5.156 1 .265 1.5.328.5.031 1 .047 1.5.047 1.25 0 2.453-.172 3.609-.516a13.122 13.122 0 003.235-1.453 12.268 12.268 0 002.719-2.344 12.382 12.382 0 001.968-3.093l9.375 9.421a24.754 24.754 0 01-4.125 4.547 24.964 24.964 0 01-5.015 3.422 23.781 23.781 0 01-5.672 2.11c-1.969.5-4 .75-6.094.75-3.531 0-6.859-.657-9.984-1.97a25.514 25.514 0 01-8.157-5.484c-2.312-2.343-4.14-5.125-5.484-8.343-1.344-3.25-2.016-6.813-2.016-10.688 0-3.969.672-7.594 2.016-10.875 1.344-3.281 3.172-6.078 5.484-8.39a25.252 25.252 0 018.157-5.391c3.125-1.281 6.453-1.922 9.984-1.922 2.094 0 4.141.25 6.141.75s3.89 1.219 5.672 2.156c1.812.938 3.5 2.094 5.062 3.469a24.758 24.758 0 014.125 4.547l-24 28.922zm6.563-26.39a7.386 7.386 0 00-1.782-.423 16.159 16.159 0 00-1.781-.093c-1.75 0-3.406.328-4.969.984a11.783 11.783 0 00-4.031 2.719c-1.125 1.187-2.016 2.625-2.672 4.312-.656 1.656-.984 3.531-.984 5.625 0 .469.015 1 .047 1.594.062.594.14 1.203.234 1.828.125.594.266 1.172.422 1.734a6.53 6.53 0 00.609 1.5l14.907-19.78zM332.091 73h-12.797V22.797h3.094l4.218 4.875a22.14 22.14 0 016.985-4.313 22.234 22.234 0 018.203-1.547c3.062 0 5.953.594 8.672 1.782a21.966 21.966 0 017.125 4.828c2.031 2.031 3.625 4.422 4.781 7.172 1.187 2.718 1.781 5.625 1.781 8.718V73h-12.797V44.312c0-1.312-.25-2.546-.75-3.703a9.584 9.584 0 00-5.109-5.156 9.23 9.23 0 00-3.703-.75c-1.344 0-2.61.25-3.797.75a9.58 9.58 0 00-3.094 2.063 9.584 9.584 0 00-2.062 3.093 9.229 9.229 0 00-.75 3.703V73zm102.178-18.14c0 2.624-.5 5.109-1.5 7.453a18.897 18.897 0 01-4.125 6.046c-1.719 1.72-3.75 3.079-6.094 4.079-2.313 1-4.797 1.5-7.453 1.5a19.49 19.49 0 01-6.844-1.22 19.266 19.266 0 01-5.953-3.656 18.7 18.7 0 01-5.906 3.657c-2.157.812-4.438 1.219-6.844 1.219-2.656 0-5.141-.5-7.453-1.5-2.313-1-4.344-2.36-6.094-4.079-1.719-1.718-3.078-3.734-4.078-6.046-1-2.344-1.5-4.829-1.5-7.454V22.891h12.797v31.968c0 .875.156 1.703.469 2.485.343.75.796 1.422 1.359 2.015a7.389 7.389 0 002.016 1.36 6.626 6.626 0 002.484.468c.875 0 1.703-.156 2.484-.468a7.165 7.165 0 002.063-1.36 6.194 6.194 0 001.359-2.015c.344-.782.516-1.61.516-2.485V22.891h12.75v31.968c0 .875.172 1.703.515 2.485a7.38 7.38 0 001.36 2.015 7.384 7.384 0 002.015 1.36c.782.312 1.61.468 2.485.468.875 0 1.703-.156 2.484-.468a6.554 6.554 0 002.016-1.36 6.893 6.893 0 001.406-2.015c.344-.782.516-1.61.516-2.485V22.891h12.75v31.968zm21.975-45.704a7.96 7.96 0 01-.703 3.328 8.501 8.501 0 01-1.829 2.72 9.47 9.47 0 01-2.765 1.827 8.431 8.431 0 01-3.328.657 8.771 8.771 0 01-3.375-.657 9.65 9.65 0 01-2.719-1.828 9.668 9.668 0 01-1.828-2.719 8.424 8.424 0 01-.656-3.328c0-1.156.218-2.25.656-3.281.469-1.063 1.078-1.969 1.828-2.719a8.493 8.493 0 012.719-1.828 8.266 8.266 0 013.375-.703c1.187 0 2.297.234 3.328.703a8.373 8.373 0 012.765 1.828 7.867 7.867 0 011.829 2.719 7.849 7.849 0 01.703 3.281zM454.041 73H441.15V22.797h12.891V73zm22.678-63.844a7.96 7.96 0 01-.703 3.328 8.515 8.515 0 01-1.828 2.72c-.75.75-1.657 1.358-2.719 1.827a8.311 8.311 0 01-3.281.657 8.894 8.894 0 01-3.422-.657 9.65 9.65 0 01-2.719-1.828 9.191 9.191 0 01-1.875-2.719 8.424 8.424 0 01-.656-3.328c0-1.156.218-2.25.656-3.281a8.447 8.447 0 011.875-2.719 8.493 8.493 0 012.719-1.828 8.38 8.38 0 013.422-.703c1.156 0 2.25.234 3.281.703a7.874 7.874 0 012.719 1.828 7.879 7.879 0 011.828 2.719 7.849 7.849 0 01.703 3.281zm-34.36 82.969v-12.89l7.079.093c1.718 0 3.312-.36 4.781-1.078a11.687 11.687 0 003.797-2.813 12.91 12.91 0 002.578-4.03c.625-1.532.937-3.141.937-4.829V22.797h13.078v43.781h-.093a25.918 25.918 0 01-.985 6.797 23.97 23.97 0 01-2.578 6.094 24.93 24.93 0 01-4.031 5.156 24.763 24.763 0 01-5.203 3.984 24.161 24.161 0 01-6.047 2.579 24.621 24.621 0 01-6.797.937h-6.516zM494.803 73h-12.89V2.828h12.89v44.25l19.078-24.187H528.6l-16.641 20.906L528.6 73h-14.719l-10.172-18.234-8.906 11.812V73z" fill="#fff"/></svg>