<svg width="229" height="228" fill="none" xmlns="http://www.w3.org/2000/svg"><path d="M20.42 113.789a14.024 14.024 0 001.066 5.416 14.07 14.07 0 003.073 4.591l27.42 27.419a9.677 9.677 0 006.776 2.825l109.424.205a14.068 14.068 0 009.958-4.116 14.061 14.061 0 004.116-9.958l-.092-52.102a14.17 14.17 0 00-4.152-9.975 14.168 14.168 0 00-9.976-4.153l-109.38-.204a9.601 9.601 0 00-6.77 2.79l-27.339 27.339a13.863 13.863 0 00-3.06 4.544 13.897 13.897 0 00-1.064 5.379zm44.03-7.002a10.113 10.113 0 012.766 5.164 10.067 10.067 0 01-.563 5.821 10.027 10.027 0 01-9.298 6.203 10.128 10.128 0 01-9.32-6.236 10.088 10.088 0 01-.584-5.823 10.036 10.036 0 012.748-5.155 10.04 10.04 0 017.12-2.938 10.11 10.11 0 017.13 2.964z" fill="#B5325D"/></svg>