<svg width="48" height="35" fill="none" xmlns="http://www.w3.org/2000/svg"><path d="M48.002 21.273c0 7.052-5.754 12.763-12.857 12.763h-.857c-1.897 0-3.429-1.52-3.429-3.403s1.532-3.404 3.429-3.404h.857c3.31 0 6-2.67 6-5.956v-.851h-6.857c-3.782 0-6.857-3.053-6.857-6.808V6.807C27.43 3.053 30.505 0 34.288 0h6.857c3.782 0 6.857 3.053 6.857 6.807v14.466zm-27.429 0c0 7.052-5.753 12.763-12.857 12.763H6.86c-1.896 0-3.428-1.52-3.428-3.403s1.532-3.404 3.428-3.404h.857c3.311 0 6-2.67 6-5.956v-.851H6.86c-3.782 0-6.857-3.053-6.857-6.808V6.807C.002 3.053 3.077 0 6.859 0h6.857c3.782 0 6.857 3.053 6.857 6.807v14.466z" fill="#000"/></svg>