<svg width="48" height="35" fill="none" xmlns="http://www.w3.org/2000/svg"><path d="M.002 12.764C.002 5.712 5.756 0 12.859 0h.857c1.897 0 3.429 1.521 3.429 3.404 0 1.882-1.532 3.403-3.429 3.403h-.857c-3.31 0-6 2.67-6 5.957v.85h6.857c3.782 0 6.857 3.053 6.857 6.808v6.807c0 3.755-3.075 6.807-6.857 6.807H6.86c-3.782 0-6.857-3.052-6.857-6.807V12.764zm27.428 0C27.43 5.712 33.184 0 40.288 0h.857c1.896 0 3.428 1.521 3.428 3.404 0 1.882-1.532 3.403-3.428 3.403h-.857c-3.311 0-6 2.67-6 5.957v.85h6.857c3.782 0 6.857 3.053 6.857 6.808v6.807c0 3.755-3.075 6.807-6.857 6.807h-6.857c-3.782 0-6.857-3.052-6.857-6.807V12.764z" fill="#000"/></svg>