<svg width="265" height="82" fill="none" xmlns="http://www.w3.org/2000/svg"><path d="M103.047 40.79a14.024 14.024 0 001.065 5.415 14.074 14.074 0 003.074 4.59l27.42 27.42a9.678 9.678 0 006.776 2.825l109.424.205a14.064 14.064 0 009.958-4.116 14.068 14.068 0 004.116-9.958l-.093-52.102a14.165 14.165 0 00-4.152-9.975A14.166 14.166 0 00250.659.94L141.279.737a9.6 9.6 0 00-6.77 2.79l-27.338 27.339a13.863 13.863 0 00-3.06 4.544 13.9 13.9 0 00-1.064 5.38zm44.029-7.003a10.13 10.13 0 012.767 5.164c.392 1.955.196 3.98-.564 5.82a10.023 10.023 0 01-3.703 4.516 10.046 10.046 0 01-5.595 1.688 10.105 10.105 0 01-5.601-1.708 10.128 10.128 0 01-3.719-4.528 10.089 10.089 0 01-.584-5.823 10.037 10.037 0 019.868-8.093 10.113 10.113 0 017.131 2.964z" fill="#B5325D"/><path d="M5.99 3.062a1 1 0 10-1.989.209l1.99-.209zm10.581 42.361l.564-.826-.564.826zM37.24 26.845l.236.971-.236-.971zm21.265 11.522l.56.83-.56-.83zM4.001 3.271c.247 2.35-.397 5.026-1.222 8.175-.81 3.086-1.77 6.556-1.957 10.255-.19 3.73.403 7.708 2.678 11.855 2.268 4.133 6.173 8.372 12.508 12.693l1.127-1.652c-6.154-4.198-9.806-8.22-11.882-12.003-2.068-3.771-2.607-7.37-2.434-10.792.175-3.453 1.072-6.711 1.894-9.848C5.52 8.88 6.282 5.84 5.99 3.062l-1.989.209zm12.007 42.978c8.539 5.826 14.902 7.171 19.463 5.64 4.598-1.543 6.942-5.855 7.8-10.29l-1.963-.38c-.793 4.096-2.852 7.559-6.473 8.774-3.658 1.228-9.328.315-17.7-5.396l-1.127 1.652zm27.264-4.65c.73-3.767.437-7.82-.57-10.85-.5-1.509-1.206-2.846-2.126-3.755-.947-.936-2.179-1.46-3.574-1.121l.473 1.943c.558-.136 1.11.022 1.694.6.612.604 1.187 1.615 1.635 2.964.892 2.686 1.172 6.39.504 9.84l1.964.38zm-6.27-15.726c-1.741.423-2.88 1.56-3.396 3.057-.498 1.448-.394 3.164.134 4.838 1.059 3.353 3.927 6.895 8.183 8.572l.733-1.86c-3.665-1.445-6.122-4.505-7.008-7.314-.444-1.406-.468-2.662-.15-3.585.3-.873.919-1.508 1.977-1.765l-.473-1.943zm4.921 16.467c4.5 1.773 10.398 1.406 17.14-3.144l-1.118-1.658c-6.305 4.255-11.514 4.428-15.289 2.941l-.733 1.861zm17.14-3.144c8.002-5.4 19.211-7.029 29.213-6.222 4.987.402 9.623 1.406 13.348 2.816 3.761 1.423 6.455 3.205 7.736 5.07l1.648-1.133c-1.627-2.368-4.782-4.335-8.676-5.808-3.93-1.486-8.753-2.524-13.895-2.939-10.255-.827-21.977.812-30.492 6.558l1.119 1.658z" fill="#B5325D"/></svg>