<svg width="270" height="82" fill="none" xmlns="http://www.w3.org/2000/svg"><path d="M107.234 40.79a14.042 14.042 0 004.139 10.006l27.42 27.42a9.678 9.678 0 006.776 2.824l109.424.205a14.064 14.064 0 009.958-4.116 14.068 14.068 0 004.116-9.958l-.093-52.102a14.165 14.165 0 00-4.152-9.975A14.166 14.166 0 00254.846.94L145.466.737a9.602 9.602 0 00-6.77 2.79l-27.338 27.339a13.863 13.863 0 00-3.06 4.544 13.9 13.9 0 00-1.064 5.38zm44.029-7.003a10.123 10.123 0 012.767 5.164 10.07 10.07 0 01-.563 5.82 10.032 10.032 0 01-9.299 6.204 10.105 10.105 0 01-5.601-1.708 10.128 10.128 0 01-3.719-4.528 10.089 10.089 0 01-.584-5.823 10.037 10.037 0 019.869-8.093 10.112 10.112 0 017.13 2.964z" fill="#B5325D"/><path d="M2.423 62.975a1 1 0 10-1.985.248l1.985-.248zm63.016-2.012l.868.496-.868-.496zm-65 2.26c.503 4.032 2.507 8.509 8.315 11.842 5.738 3.293 15.12 5.432 30.308 5.094l-.044-2c-15.04.335-23.992-1.8-29.268-4.828-5.205-2.988-6.893-6.878-7.327-10.356l-1.985.248zM39.061 80.16c4.763-.106 8.5-.508 11.378-1.135 2.865-.623 4.947-1.484 6.336-2.557 1.42-1.096 2.135-2.438 2.144-3.913.01-1.42-.637-2.789-1.56-3.997-1.844-2.413-5.078-4.567-8.183-5.84-1.561-.64-3.146-1.08-4.563-1.204-1.386-.122-2.788.042-3.803.823l1.218 1.586c.428-.33 1.216-.522 2.41-.417 1.16.102 2.542.474 3.98 1.063 2.894 1.186 5.79 3.159 7.352 5.204.78 1.02 1.155 1.963 1.15 2.769-.005.752-.342 1.551-1.368 2.344-1.057.816-2.814 1.592-5.538 2.185-2.712.59-6.313.986-10.997 1.09l.044 2zm1.749-17.823c-.9.69-1.443 1.598-1.348 2.65.089.985.718 1.814 1.485 2.454 1.545 1.29 4.173 2.263 7.135 2.62 5.955.72 13.878-.993 18.224-8.6l-1.737-.993c-3.814 6.678-10.788 8.267-16.247 7.608-2.745-.332-4.952-1.218-6.094-2.17-.576-.482-.753-.87-.774-1.099-.015-.162.03-.465.574-.884l-1.218-1.586zm25.496-.877c1.671-2.926 4.537-5.715 8.117-8.224 3.57-2.503 7.796-4.689 12.117-6.43 4.32-1.74 8.71-3.023 12.599-3.734 3.916-.715 7.226-.83 9.433-.316l.454-1.947c-2.606-.608-6.237-.437-10.246.296-4.036.737-8.556 2.062-12.987 3.847-4.43 1.784-8.797 4.039-12.518 6.646-3.71 2.601-6.833 5.592-8.706 8.87l1.737.992z" fill="#B5325D"/></svg>